sahl-regular.sfdir
StartChar: uni0600
Encoding: 1536 1536 541
Width: 1597
GlyphClass: 2
Flags: W
LayerCount: 2
Fore
SplineSet
1495 -190 m 1,0,1
 1476 -298 1476 -298 1425 -377 c 1,2,3
 1356 -394 1356 -394 1160.5 -406 c 128,-1,4
 965 -418 965 -418 788 -418 c 0,5,6
 588 -418 588 -418 402.5 -403 c 128,-1,7
 217 -388 217 -388 173 -370 c 128,-1,8
 129 -352 129 -352 106 -313 c 128,-1,9
 83 -274 83 -274 83 -224 c 1,10,-1
 84 -197 l 1,11,12
 432 -236 432 -236 944 -236 c 1,13,14
 949 -56 949 -56 1067 41 c 1,15,16
 1182 130 1182 130 1329 203 c 1,17,18
 1342 171 1342 171 1342 137 c 0,19,20
 1342 96 1342 96 1327 63.5 c 128,-1,21
 1312 31 1312 31 1286 14 c 1,22,23
 1136 -76 1136 -76 1086 -116 c 128,-1,24
 1036 -156 1036 -156 1036 -176 c 0,25,26
 1036 -201 1036 -201 1074.5 -215 c 128,-1,27
 1113 -229 1113 -229 1184 -229 c 256,28,29
 1255 -229 1255 -229 1320.5 -221.5 c 128,-1,30
 1386 -214 1386 -214 1495 -190 c 1,0,1
EndSplineSet
EndChar
StartChar: uni0601
Encoding: 1537 1537 542
Width: 4016
GlyphClass: 2
Flags: W
LayerCount: 2
Fore
SplineSet
3623 -471 m 1,0,1
 3770 -324 3770 -324 3770 -274 c 0,2,3
 3770 -264 3770 -264 3760 -264 c 0,4,5
 3737 -264 3737 -264 3678 -282 c 0,6,7
 3471 -347 3471 -347 3179 -417 c 128,-1,8
 2887 -487 2887 -487 2624.5 -523 c 128,-1,9
 2362 -559 2362 -559 2142 -559 c 0,10,11
 1881 -559 1881 -559 1654.5 -522 c 128,-1,12
 1428 -485 1428 -485 1237 -403 c 0,13,14
 1207 -391 1207 -391 1194 -391 c 0,15,16
 1182 -391 1182 -391 1150 -438 c 0,17,18
 1108 -501 1108 -501 1085.5 -523.5 c 128,-1,19
 1063 -546 1063 -546 1039 -560.5 c 128,-1,20
 1015 -575 1015 -575 987 -575 c 0,21,22
 895 -575 895 -575 806 -444 c 0,23,24
 756 -370 756 -370 728.5 -341.5 c 128,-1,25
 701 -313 701 -313 678 -313 c 0,26,27
 624 -313 624 -313 570 -367.5 c 128,-1,28
 516 -422 516 -422 456 -530 c 1,29,30
 392 -648 392 -648 348 -698 c 128,-1,31
 304 -748 304 -748 264 -748 c 0,32,33
 174 -748 174 -748 126 -670.5 c 128,-1,34
 78 -593 78 -593 78 -451 c 0,35,36
 78 -326 78 -326 162 -158 c 1,37,-1
 238 -199 l 1,38,39
 215 -250 215 -250 199.5 -294.5 c 128,-1,40
 184 -339 184 -339 184 -385 c 0,41,42
 184 -468 184 -468 208 -507.5 c 128,-1,43
 232 -547 232 -547 260 -547 c 0,44,45
 293 -547 293 -547 331.5 -497 c 128,-1,46
 370 -447 370 -447 443 -318 c 0,47,48
 571 -90 571 -90 707 -90 c 0,49,50
 744 -90 744 -90 777 -125 c 128,-1,51
 810 -160 810 -160 849 -233 c 0,52,53
 886 -303 886 -303 929 -340 c 128,-1,54
 972 -377 972 -377 1024 -377 c 0,55,56
 1087 -377 1087 -377 1136 -280 c 0,57,58
 1159 -235 1159 -235 1176 -209.5 c 128,-1,59
 1193 -184 1193 -184 1206 -184 c 0,60,61
 1217 -184 1217 -184 1246 -197 c 0,62,63
 1319 -231 1319 -231 1449.5 -270.5 c 128,-1,64
 1580 -310 1580 -310 1772 -334 c 128,-1,65
 1964 -358 1964 -358 2183 -358 c 0,66,67
 2439 -358 2439 -358 2748 -312.5 c 128,-1,68
 3057 -267 3057 -267 3512 -152 c 0,69,70
 3622 -124 3622 -124 3686 -108 c 128,-1,71
 3750 -92 3750 -92 3787 -92 c 0,72,73
 3827 -92 3827 -92 3855 -119.5 c 128,-1,74
 3883 -147 3883 -147 3883 -188 c 0,75,76
 3883 -342 3883 -342 3688 -528 c 1,77,-1
 3623 -471 l 1,0,1
EndSplineSet
EndChar
StartChar: uni0603
Encoding: 1539 1539 544
Width: 1901
GlyphClass: 2
Flags: W
LayerCount: 2
Fore
SplineSet
975 -453 m 1,0,1
 1002 -401 1002 -401 1032 -354 c 1,2,3
 960 -323 960 -323 932 -309 c 1,4,5
 928 -309 928 -309 928 -313 c 1,6,7
 882 -359 882 -359 810.5 -389.5 c 128,-1,8
 739 -420 739 -420 672 -420 c 0,9,10
 538 -420 538 -420 445 -411.5 c 128,-1,11
 352 -403 352 -403 253.5 -383.5 c 128,-1,12
 155 -364 155 -364 122 -321 c 128,-1,13
 89 -278 89 -278 89 -215 c 1,14,-1
 90 -186 l 1,15,16
 307 -223 307 -223 425 -234.5 c 128,-1,17
 543 -246 543 -246 672 -246 c 0,18,19
 739 -246 739 -246 783.5 -229 c 128,-1,20
 828 -212 828 -212 866 -180 c 0,21,22
 905 -148 905 -148 926 -115.5 c 128,-1,23
 947 -83 947 -83 969 -49 c 0,24,25
 981 -29 981 -29 1002 -18 c 128,-1,26
 1023 -7 1023 -7 1045 -7 c 0,27,28
 1080 -7 1080 -7 1102 -29 c 1,29,30
 1060 -127 1060 -127 1032 -172 c 1,31,32
 1055 -183 1055 -183 1124 -207 c 1,33,34
 1245 -28 1245 -28 1357 75 c 128,-1,35
 1469 178 1469 178 1548 178 c 0,36,37
 1646 178 1646 178 1717 103 c 128,-1,38
 1788 28 1788 28 1788 -76 c 0,39,40
 1788 -174 1788 -174 1735 -252 c 128,-1,41
 1682 -330 1682 -330 1580 -379 c 128,-1,42
 1478 -428 1478 -428 1374 -428 c 0,43,44
 1253 -428 1253 -428 1120 -385 c 1,45,46
 1087 -433 1087 -433 1049 -498 c 1,47,-1
 975 -453 l 1,0,1
1489 -2 m 0,48,49
 1397 -2 1397 -2 1227 -229 c 1,50,51
 1308 -244 1308 -244 1391 -244 c 0,52,53
 1558 -244 1558 -244 1696 -137 c 1,54,55
 1608 -2 1608 -2 1489 -2 c 0,48,49
EndSplineSet
EndChar
StartChar: uni060C
Encoding: 1548 1548 93
Width: 512
GlyphClass: 2
Flags: W
LayerCount: 2
Fore
SplineSet
102 158 m 0,0,1
 102 305 102 305 187.5 407.5 c 128,-1,2
 273 510 273 510 438 559 c 1,3,-1
 438 473 l 1,4,5
 244 411 244 411 244 289 c 0,6,7
 244 267 244 267 258.5 251 c 128,-1,8
 273 235 273 235 319 211 c 1,9,10
 393 170 393 170 393 100 c 0,11,12
 393 42 393 42 355 11 c 128,-1,13
 317 -20 317 -20 260 -20 c 0,14,15
 190 -20 190 -20 146 29.5 c 128,-1,16
 102 79 102 79 102 158 c 0,0,1
EndSplineSet
EndChar
StartChar: uni060E
Encoding: 1550 1550 545
Width: 2058
GlyphClass: 2
Flags: W
LayerCount: 2
Fore
SplineSet
924 348 m 0,0,1
 924 297 924 297 893 154 c 1,2,3
 1311 156 1311 156 1583.5 220 c 128,-1,4
 1856 284 1856 284 1954 406 c 1,5,-1
 2017 356 l 1,6,7
 1959 233 1959 233 1873.5 167 c 128,-1,8
 1788 101 1788 101 1649.5 60 c 128,-1,9
 1511 19 1511 19 1307 -0.5 c 128,-1,10
 1103 -20 1103 -20 823 -20 c 0,11,12
 564 -20 564 -20 428.5 12 c 128,-1,13
 293 44 293 44 228.5 116.5 c 128,-1,14
 164 189 164 189 164 315 c 0,15,16
 164 432 164 432 226.5 522.5 c 128,-1,17
 289 613 289 613 393 671 c 128,-1,18
 497 729 497 729 614 729 c 0,19,20
 756 729 756 729 840 623 c 128,-1,21
 924 517 924 517 924 348 c 0,0,1
252 365 m 0,22,23
 252 264 252 264 396 210 c 128,-1,24
 540 156 540 156 805 154 c 1,25,26
 823 232 823 232 823 266 c 0,27,28
 823 350 823 350 789.5 411.5 c 128,-1,29
 756 473 756 473 697.5 507 c 128,-1,30
 639 541 639 541 571 541 c 0,31,32
 494 541 494 541 420 514.5 c 128,-1,33
 346 488 346 488 299 446.5 c 128,-1,34
 252 405 252 405 252 365 c 0,22,23
EndSplineSet
EndChar
StartChar: uni060F
Encoding: 1551 1551 546
Width: 1561
GlyphClass: 2
Flags: W
LayerCount: 2
Fore
SplineSet
1108 799 m 1,0,1
 1135 765 1135 765 1135 723 c 0,2,3
 1135 685 1135 685 1116 656.5 c 128,-1,4
 1097 628 1097 628 1065.5 606 c 128,-1,5
 1034 584 1034 584 950 549 c 1,6,7
 761 474 761 474 624.5 374 c 128,-1,8
 488 274 488 274 422 159 c 128,-1,9
 356 44 356 44 356 -80 c 0,10,11
 356 -171 356 -171 389 -252 c 1,12,13
 553 -44 553 -44 706.5 60 c 128,-1,14
 860 164 860 164 1024 164 c 0,15,16
 1192 164 1192 164 1282 64.5 c 128,-1,17
 1372 -35 1372 -35 1372 -221 c 0,18,19
 1372 -351 1372 -351 1295 -461 c 128,-1,20
 1218 -571 1218 -571 1088 -633.5 c 128,-1,21
 958 -696 958 -696 815 -696 c 0,22,23
 658 -696 658 -696 545 -632.5 c 128,-1,24
 432 -569 432 -569 365 -459 c 1,25,26
 280 -562 280 -562 162 -735 c 1,27,-1
 92 -684 l 1,28,29
 230 -465 230 -465 313 -352 c 1,30,31
 270 -225 270 -225 270 -80 c 0,32,33
 270 214 270 214 492 446 c 1,34,35
 354 477 354 477 259 577 c 128,-1,36
 164 677 164 677 164 795 c 0,37,38
 164 901 164 901 222 1015 c 128,-1,39
 280 1129 280 1129 367.5 1195.5 c 128,-1,40
 455 1262 455 1262 549 1262 c 0,41,42
 631 1262 631 1262 705 1222.5 c 128,-1,43
 779 1183 779 1183 887 1090 c 1,44,-1
 844 1014 l 1,45,46
 748 1050 748 1050 705.5 1059.5 c 128,-1,47
 663 1069 663 1069 610 1069 c 0,48,49
 463 1069 463 1069 301 981 c 1,50,51
 301 833 301 833 410.5 735.5 c 128,-1,52
 520 638 520 638 711 623 c 1,53,54
 892 734 892 734 1108 799 c 1,0,1
1040 -41 m 0,55,56
 751 -41 751 -41 455 -356 c 1,57,58
 520 -430 520 -430 621 -471 c 128,-1,59
 722 -512 722 -512 834 -512 c 0,60,61
 958 -512 958 -512 1068 -473 c 128,-1,62
 1178 -434 1178 -434 1232 -371.5 c 128,-1,63
 1286 -309 1286 -309 1286 -227 c 0,64,65
 1286 -151 1286 -151 1211 -96 c 128,-1,66
 1136 -41 1136 -41 1040 -41 c 0,55,56
EndSplineSet
EndChar
StartChar: uni0613
Encoding: 1555 1555 550
Width: 0
GlyphClass: 4
Flags: W
AnchorPoint: "Anchor-4" 120 1700 basemark 0
AnchorPoint: "Anchor-4" 140 980 mark 0
AnchorPoint: "Anchor-2" 140 980 mark 0
AnchorPoint: "Anchor-0" 140 980 mark 0
LayerCount: 2
Fore
SplineSet
-121 1505 m 1,0,1
 -80 1561 -80 1561 -63 1579 c 1,2,3
 -36 1561 -36 1561 18 1507 c 1,4,5
 -23 1448 -23 1448 -41 1436 c 1,6,-1
 -121 1505 l 1,0,1
303 961 m 0,7,8
 280 961 280 961 234.5 982.5 c 128,-1,9
 189 1004 189 1004 156 1032 c 1,10,-1
 172 1071 l 1,11,12
 248 1053 248 1053 281 1053 c 0,13,14
 355 1053 355 1053 402 1096 c 128,-1,15
 449 1139 449 1139 471 1208 c 1,16,17
 439 1275 439 1275 426 1299 c 0,18,19
 394 1356 394 1356 386.5 1378 c 128,-1,20
 379 1400 379 1400 379 1421 c 0,21,22
 379 1449 379 1449 396.5 1466.5 c 128,-1,23
 414 1484 414 1484 449 1499 c 1,24,25
 465 1439 465 1439 477 1405 c 0,26,27
 522 1287 522 1287 522 1239 c 0,28,29
 522 1123 522 1123 459 1042 c 128,-1,30
 396 961 396 961 303 961 c 0,7,8
-74 1264 m 1,31,32
 49 1473 49 1473 172 1473 c 0,33,34
 223 1473 223 1473 264 1430 c 128,-1,35
 305 1387 305 1387 305 1341 c 0,36,37
 305 1237 305 1237 233.5 1174.5 c 128,-1,38
 162 1112 162 1112 45 1112 c 0,39,40
 -8 1112 -8 1112 -59 1124 c 1,41,42
 -59 1029 -59 1029 -74 999 c 1,43,44
 -103 952 -103 952 -139 948 c 1,45,46
 -131 1018 -131 1018 -131 1075 c 0,47,48
 -131 1166 -131 1166 -184 1286 c 1,49,50
 -159 1355 -159 1355 -129 1393 c 1,51,52
 -118 1365 -118 1365 -106 1333 c 128,-1,53
 -94 1301 -94 1301 -74 1264 c 1,31,32
-45 1219 m 1,54,55
 -9 1204 -9 1204 47 1204 c 0,56,57
 205 1204 205 1204 256 1284 c 1,58,59
 232 1368 232 1368 145 1368 c 0,60,61
 35 1368 35 1368 -45 1219 c 1,54,55
EndSplineSet
EndChar
StartChar: uni0614
Encoding: 1556 1556 551
Width: 0
GlyphClass: 4
Flags: W
AnchorPoint: "Anchor-4" 160 1560 basemark 0
AnchorPoint: "Anchor-4" 80 1100 mark 0
AnchorPoint: "Anchor-2" 80 1100 mark 0
AnchorPoint: "Anchor-0" 80 1100 mark 0
LayerCount: 2
Fore
SplineSet
530 1315 m 1,0,1
 450 1098 450 1098 330 1098 c 0,2,3
 254 1098 254 1098 207 1190 c 1,4,5
 153 1147 153 1147 79 1132.5 c 128,-1,6
 5 1118 5 1118 -88 1118 c 0,7,8
 -208 1118 -208 1118 -281.5 1131.5 c 128,-1,9
 -355 1145 -355 1145 -355 1197 c 1,10,-1
 -354 1210 l 1,11,-1
 -255 1208 l 1,12,13
 -144 1208 -144 1208 -66.5 1212.5 c 128,-1,14
 11 1217 11 1217 69 1228 c 128,-1,15
 127 1239 127 1239 164 1260.5 c 128,-1,16
 201 1282 201 1282 248 1339 c 1,17,-1
 283 1325 l 1,18,-1
 283 1303 l 2,19,20
 283 1268 283 1268 306.5 1239 c 128,-1,21
 330 1210 330 1210 360 1210 c 0,22,23
 423 1210 423 1210 498 1341 c 1,24,-1
 530 1315 l 1,0,1
EndSplineSet
EndChar
StartChar: uni0615
Encoding: 1557 1557 111
Width: 0
GlyphClass: 4
Flags: W
AnchorPoint: "Anchor-4" 100 1560 basemark 0
AnchorPoint: "Anchor-4" 100 720 mark 0
AnchorPoint: "Anchor-2" 100 720 mark 0
AnchorPoint: "Anchor-0" 100 720 mark 0
LayerCount: 2
Fore
SplineSet
-229 901 m 1,0,-1
 -96 879 l 1,1,2
 -69 921 -69 921 -35 958 c 1,3,-1
 -86 1211 l 2,4,5
 -109 1321 -109 1321 -109 1341 c 0,6,7
 -109 1367 -109 1367 -71 1390.5 c 128,-1,8
 -33 1414 -33 1414 16 1423 c 1,9,-1
 51 1319 l 1,10,-1
 27 1300 l 1,11,12
 32 1242 32 1242 33 1173.5 c 128,-1,13
 34 1105 34 1105 37 1036 c 1,14,15
 99 1095 99 1095 156 1128 c 128,-1,16
 213 1161 213 1161 250 1161 c 0,17,18
 291 1161 291 1161 341.5 1126 c 128,-1,19
 392 1091 392 1091 427.5 1039.5 c 128,-1,20
 463 988 463 988 463 954 c 0,21,22
 463 886 463 886 416.5 829.5 c 128,-1,23
 370 773 370 773 292 740 c 128,-1,24
 214 707 214 707 135 707 c 0,25,26
 69 707 69 707 9 719.5 c 128,-1,27
 -51 732 -51 732 -105.5 753.5 c 128,-1,28
 -160 775 -160 775 -248 825 c 1,29,-1
 -229 901 l 1,0,-1
233 1012 m 0,30,31
 181 1012 181 1012 116.5 973.5 c 128,-1,32
 52 935 52 935 -8 870 c 1,33,34
 64 862 64 862 141 862 c 0,35,36
 220 862 220 862 273.5 874 c 128,-1,37
 327 886 327 886 395 915 c 1,38,39
 374 954 374 954 326 983 c 128,-1,40
 278 1012 278 1012 233 1012 c 0,30,31
EndSplineSet
EndChar
StartChar: uni061B
Encoding: 1563 1563 94
Width: 512
GlyphClass: 2
Flags: W
LayerCount: 2
Fore
SplineSet
129 119 m 256,0,1
 129 258 129 258 258 258 c 0,2,3
 321 258 321 258 354 222 c 128,-1,4
 387 186 387 186 387 119 c 256,5,6
 387 52 387 52 354.5 16 c 128,-1,7
 322 -20 322 -20 258 -20 c 0,8,9
 129 -20 129 -20 129 119 c 256,0,1
100 737 m 0,10,11
 100 883 100 883 185 986.5 c 128,-1,12
 270 1090 270 1090 436 1139 c 1,13,-1
 436 1053 l 1,14,15
 242 991 242 991 242 868 c 0,16,17
 242 844 242 844 259 827 c 128,-1,18
 276 810 276 810 317 790 c 0,19,20
 391 752 391 752 391 680 c 0,21,22
 391 621 391 621 353 590 c 128,-1,23
 315 559 315 559 258 559 c 0,24,25
 189 559 189 559 144.5 608.5 c 128,-1,26
 100 658 100 658 100 737 c 0,10,11
EndSplineSet
EndChar
StartChar: uni061F
Encoding: 1567 1567 92
Width: 1024
GlyphClass: 2
Flags: W
LayerCount: 2
Fore
SplineSet
485 643 m 1,0,1
 278 728 278 728 183 842 c 128,-1,2
 88 956 88 956 88 1112 c 0,3,4
 88 1281 88 1281 211.5 1382 c 128,-1,5
 335 1483 335 1483 537 1483 c 0,6,7
 718 1483 718 1483 819 1422.5 c 128,-1,8
 920 1362 920 1362 920 1253 c 0,9,10
 920 1191 920 1191 873.5 1155.5 c 128,-1,11
 827 1120 827 1120 750 1120 c 1,12,13
 750 1246 750 1246 691 1314 c 128,-1,14
 632 1382 632 1382 520 1382 c 0,15,16
 412 1382 412 1382 354.5 1323.5 c 128,-1,17
 297 1265 297 1265 297 1147 c 0,18,19
 297 999 297 999 376.5 892 c 128,-1,20
 456 785 456 785 610 723 c 1,21,-1
 610 412 l 1,22,-1
 485 412 l 1,23,-1
 485 643 l 1,0,1
680 125 m 256,24,25
 680 -14 680 -14 551 -14 c 0,26,27
 488 -14 488 -14 455 21.5 c 128,-1,28
 422 57 422 57 422 125 c 0,29,30
 422 192 422 192 454.5 228 c 128,-1,31
 487 264 487 264 551 264 c 0,32,33
 680 264 680 264 680 125 c 256,24,25
EndSplineSet
EndChar
StartChar: uni0621
Encoding: 1569 1569 4
AltUni2: 00fe80.ffffffff.0
Width: 1264
GlyphClass: 2
Flags: W
AnchorPoint: "Anchor-1" 720 -140 basechar 0
AnchorPoint: "Anchor-0" 650 1060 basechar 0
LayerCount: 2
Fore
SplineSet
164 -8 m 1,0,1
 298 47 298 47 420 86 c 1,2,3
 355 134 355 134 318 197 c 128,-1,4
 281 260 281 260 281 332 c 0,5,6
 281 433 281 433 343.5 547 c 128,-1,7
 406 661 406 661 503.5 730 c 128,-1,8
 601 799 601 799 705 799 c 0,9,10
 812 799 812 799 873 742.5 c 128,-1,11
 934 686 934 686 934 584 c 0,12,13
 934 527 934 527 907 485 c 1,14,-1
 829 516 l 1,15,16
 836 547 836 547 836 578 c 1,17,18
 774 606 774 606 707 606 c 0,19,20
 626 606 626 606 531.5 547.5 c 128,-1,21
 437 489 437 489 373 397 c 1,22,23
 414 298 414 298 489.5 242.5 c 128,-1,24
 565 187 565 187 690 158 c 1,25,26
 816 185 816 185 958 205 c 128,-1,27
 1100 225 1100 225 1171 231 c 1,28,29
 1202 200 1202 200 1202 153 c 0,30,31
 1202 103 1202 103 1168.5 72.5 c 128,-1,32
 1135 42 1135 42 1077 37 c 0,33,34
 841 19 841 19 702.5 -2.5 c 128,-1,35
 564 -24 564 -24 197 -109 c 1,36,-1
 164 -8 l 1,0,1
EndSplineSet
EndChar
StartChar: uni0627
Encoding: 1575 1575 5
AltUni2: 00fe8d.ffffffff.0
Width: 573
GlyphClass: 2
Flags: W
AnchorPoint: "Anchor-1" 280 -248 basechar 0
AnchorPoint: "Anchor-0" 300 1925 basechar 0
LayerCount: 2
Fore
SplineSet
365 1255 m 1,0,1
 379 849 379 849 379 782 c 0,2,3
 379 402 379 402 362 0 c 1,4,-1
 252 -20 l 1,5,6
 247 314 247 314 230 702.5 c 128,-1,7
 213 1091 213 1091 186 1382 c 1,8,-1
 184 1415 l 1,9,10
 184 1490 184 1490 222.5 1535 c 128,-1,11
 261 1580 261 1580 344 1597 c 1,12,13
 367 1506 367 1506 387 1446 c 2,14,-1
 430 1311 l 1,15,-1
 365 1255 l 1,0,1
EndSplineSet
Substitution2: "'fina' Terminal Forms in Arabic lookup 3 subtable" uni0627.fina
Colour: ffff00
EndChar
StartChar: uni062D
Encoding: 1581 1581 7
AltUni2: 00fea1.ffffffff.0
Width: 1532
GlyphClass: 2
Flags: W
AnchorPoint: "Anchor-1" 400 -750 basechar 0
AnchorPoint: "Anchor-0" 800 1200 basechar 0
LayerCount: 2
Fore
SplineSet
328 -80 m 0,0,1
 328 -204 328 -204 392.5 -297 c 128,-1,2
 457 -390 457 -390 589 -444 c 128,-1,3
 721 -498 721 -498 874 -498 c 0,4,5
 1039 -498 1039 -498 1179 -480.5 c 128,-1,6
 1319 -463 1319 -463 1464 -430 c 1,7,-1
 1491 -512 l 1,8,9
 1307 -613 1307 -613 1157 -654.5 c 128,-1,10
 1007 -696 1007 -696 868 -696 c 0,11,12
 572 -696 572 -696 407 -532.5 c 128,-1,13
 242 -369 242 -369 242 -80 c 0,14,15
 242 164 242 164 397 370.5 c 128,-1,16
 552 577 552 577 801 674 c 1,17,-1
 705 706 l 1,18,19
 545 762 545 762 463 762 c 0,20,21
 350 762 350 762 255 703 c 2,22,-1
 199 668 l 1,23,24
 185 682 185 682 174.5 707.5 c 128,-1,25
 164 733 164 733 164 762 c 0,26,27
 164 854 164 854 245 908.5 c 128,-1,28
 326 963 326 963 455 963 c 0,29,30
 535 963 535 963 631.5 942.5 c 128,-1,31
 728 922 728 922 860 879 c 0,32,33
 1117 795 1117 795 1280 795 c 2,34,-1
 1318 795 l 1,35,-1
 1438 799 l 1,36,-1
 1370 614 l 1,37,38
 1306 604 1306 604 1229 604 c 1,39,40
 1002 586 1002 586 780 481 c 128,-1,41
 558 376 558 376 443 230.5 c 128,-1,42
 328 85 328 85 328 -80 c 0,0,1
EndSplineSet
Substitution2: "'medi' Medial Forms in Arabic lookup 5 subtable" uni062D.medi
Substitution2: "'init' Initial Forms in Arabic lookup 4 subtable" uni062D.init
Substitution2: "'fina' Terminal Forms in Arabic lookup 3 subtable" uni062D.fina
EndChar
StartChar: uni062F
Encoding: 1583 1583 11
AltUni2: 00fea9.ffffffff.0
Width: 997
GlyphClass: 2
Flags: W
AnchorPoint: "Anchor-1" 450 -160 basechar 0
AnchorPoint: "Anchor-0" 350 1200 basechar 0
LayerCount: 2
Fore
SplineSet
377 -20 m 0,0,1
 232 -20 232 -20 157 19 c 128,-1,2
 82 58 82 58 82 133 c 0,3,4
 82 168 82 168 93.5 202.5 c 128,-1,5
 105 237 105 237 125 260 c 1,6,7
 185 211 185 211 262 187.5 c 128,-1,8
 339 164 339 164 453 164 c 0,9,10
 621 164 621 164 780 213 c 1,11,12
 740 324 740 324 629 530 c 2,13,-1
 586 609 l 1,14,15
 551 669 551 669 535.5 713 c 128,-1,16
 520 757 520 757 520 803 c 0,17,18
 520 862 520 862 553.5 903 c 128,-1,19
 587 944 587 944 647 963 c 1,20,21
 683 864 683 864 726 772 c 128,-1,22
 769 680 769 680 806.5 598 c 128,-1,23
 844 516 844 516 869.5 445 c 128,-1,24
 895 374 895 374 895 319 c 0,25,26
 895 242 895 242 811 74 c 1,27,28
 629 -20 629 -20 377 -20 c 0,0,1
EndSplineSet
Substitution2: "'fina' Terminal Forms in Arabic lookup 3 subtable" uni062F.fina
EndChar
StartChar: uni0631
Encoding: 1585 1585 12
AltUni2: 00fead.ffffffff.0
Width: 897
GlyphClass: 2
Flags: W
AnchorPoint: "Anchor-1" 360 -600 basechar 0
AnchorPoint: "Anchor-0" 400 1060 basechar 0
LayerCount: 2
Fore
SplineSet
233 -512 m 0,0,1
 179 -512 179 -512 84.5 -471.5 c 128,-1,2
 -10 -431 -10 -431 -82 -377 c 1,3,-1
 -49 -297 l 1,4,5
 35 -314 35 -314 80 -319 c 128,-1,6
 125 -324 125 -324 178 -324 c 0,7,8
 358 -324 358 -324 487.5 -216.5 c 128,-1,9
 617 -109 617 -109 684 98 c 1,10,11
 662 153 662 153 641 193 c 128,-1,12
 620 233 620 233 570 320 c 1,13,14
 525 395 525 395 487 483.5 c 128,-1,15
 449 572 449 572 449 633 c 256,16,17
 449 694 449 694 486.5 731.5 c 128,-1,18
 524 769 524 769 590 801 c 1,19,20
 606 736 606 736 658 601 c 0,21,22
 731 408 731 408 752.5 321 c 128,-1,23
 774 234 774 234 774 174 c 0,24,25
 774 -14 774 -14 703.5 -173 c 128,-1,26
 633 -332 633 -332 508.5 -422 c 128,-1,27
 384 -512 384 -512 233 -512 c 0,0,1
EndSplineSet
Substitution2: "'fina' Terminal Forms in Arabic lookup 3 subtable" uni0631.fina
EndChar
StartChar: uni0633
Encoding: 1587 1587 14
AltUni2: 00feb1.ffffffff.0
Width: 2441
GlyphClass: 2
Flags: W
AnchorPoint: "Anchor-1" 1680 -240 basechar 0
AnchorPoint: "Anchor-0" 1680 880 basechar 0
LayerCount: 2
Fore
SplineSet
600 -696 m 0,0,1
 394 -696 394 -696 279 -577.5 c 128,-1,2
 164 -459 164 -459 164 -244 c 0,3,4
 164 -169 164 -169 172.5 -112.5 c 128,-1,5
 181 -56 181 -56 211 68 c 1,6,-1
 299 47 l 1,7,8
 272 -56 272 -56 272 -125 c 0,9,10
 272 -303 272 -303 360.5 -400.5 c 128,-1,11
 449 -498 449 -498 606 -498 c 0,12,13
 721 -498 721 -498 843.5 -459 c 128,-1,14
 966 -420 966 -420 1063 -350 c 128,-1,15
 1160 -280 1160 -280 1200 -197 c 1,16,17
 1042 149 1042 149 1042 264 c 0,18,19
 1042 390 1042 390 1200 479 c 1,20,21
 1210 390 1210 390 1251 188 c 1,22,23
 1325 164 1325 164 1403 164 c 0,24,25
 1539 164 1539 164 1616 188 c 1,26,27
 1630 211 1630 211 1644 257 c 2,28,-1
 1674 355 l 2,29,30
 1708 467 1708 467 1731.5 514.5 c 128,-1,31
 1755 562 1755 562 1778 574 c 128,-1,32
 1801 586 1801 586 1828 587 c 1,33,34
 1861 587 1861 587 1884 569 c 1,35,36
 1853 503 1853 503 1828 422 c 128,-1,37
 1803 341 1803 341 1780 262 c 1,38,39
 1888 212 1888 212 1986.5 191 c 128,-1,40
 2085 170 2085 170 2204 170 c 1,41,42
 2175 276 2175 276 2114 434 c 0,43,44
 2066 557 2066 557 2066 596 c 0,45,46
 2066 651 2066 651 2110 706 c 128,-1,47
 2154 761 2154 761 2224 799 c 1,48,49
 2235 729 2235 729 2251 659.5 c 128,-1,50
 2267 590 2267 590 2282 523 c 128,-1,51
 2297 456 2297 456 2307.5 393.5 c 128,-1,52
 2318 331 2318 331 2318 276 c 0,53,54
 2318 232 2318 232 2289.5 140 c 128,-1,55
 2261 48 2261 48 2226 -20 c 1,56,57
 2069 -20 2069 -20 1959.5 0 c 128,-1,58
 1850 20 1850 20 1714 84 c 1,59,-1
 1694 45 l 1,60,61
 1677 16 1677 16 1590 -2 c 128,-1,62
 1503 -20 1503 -20 1376 -20 c 0,63,64
 1324 -20 1324 -20 1284 -12 c 1,65,66
 1290 -62 1290 -62 1290 -106 c 0,67,68
 1290 -251 1290 -251 1197.5 -386 c 128,-1,69
 1105 -521 1105 -521 941 -608.5 c 128,-1,70
 777 -696 777 -696 600 -696 c 0,0,1
EndSplineSet
Substitution2: "'medi' Medial Forms in Arabic lookup 5 subtable" uni0633.medi
Substitution2: "'init' Initial Forms in Arabic lookup 4 subtable" uni0633.init
Substitution2: "'fina' Terminal Forms in Arabic lookup 3 subtable" uni0633.fina
EndChar
StartChar: uni0635
Encoding: 1589 1589 18
AltUni2: 00feb9.ffffffff.0
Width: 2640
GlyphClass: 2
Flags: W
AnchorPoint: "Anchor-1" 1800 -160 basechar 0
AnchorPoint: "Anchor-0" 1700 1060 basechar 0
LayerCount: 2
Fore
SplineSet
600 -696 m 0,0,1
 394 -696 394 -696 279 -577.5 c 128,-1,2
 164 -459 164 -459 164 -244 c 0,3,4
 164 -169 164 -169 172.5 -112.5 c 128,-1,5
 181 -56 181 -56 211 68 c 1,6,-1
 299 47 l 1,7,8
 272 -56 272 -56 272 -125 c 0,9,10
 272 -303 272 -303 360.5 -400.5 c 128,-1,11
 449 -498 449 -498 606 -498 c 0,12,13
 721 -498 721 -498 843.5 -459 c 128,-1,14
 966 -420 966 -420 1063 -350 c 128,-1,15
 1160 -280 1160 -280 1200 -197 c 1,16,17
 1042 149 1042 149 1042 264 c 0,18,19
 1042 390 1042 390 1200 479 c 1,20,21
 1217 353 1217 353 1237 254 c 1,22,23
 1249 248 1249 248 1305 227 c 1,24,25
 1527 526 1527 526 1727.5 683 c 128,-1,26
 1928 840 1928 840 2091 840 c 0,27,28
 2165 840 2165 840 2270 778.5 c 128,-1,29
 2375 717 2375 717 2446 634 c 128,-1,30
 2517 551 2517 551 2517 489 c 0,31,32
 2517 341 2517 341 2423 228 c 128,-1,33
 2329 115 2329 115 2139 47.5 c 128,-1,34
 1949 -20 1949 -20 1741 -20 c 0,35,36
 1643 -20 1643 -20 1508.5 -3.5 c 128,-1,37
 1374 13 1374 13 1278 41 c 1,38,39
 1290 -48 1290 -48 1290 -106 c 0,40,41
 1290 -251 1290 -251 1197.5 -386 c 128,-1,42
 1105 -521 1105 -521 941 -608.5 c 128,-1,43
 777 -696 777 -696 600 -696 c 0,0,1
2032 639 m 0,44,45
 1917 639 1917 639 1756 525.5 c 128,-1,46
 1595 412 1595 412 1415 199 c 1,47,48
 1583 164 1583 164 1765 164 c 0,49,50
 1933 164 1933 164 2090.5 216.5 c 128,-1,51
 2248 269 2248 269 2408 369 c 1,52,53
 2340 492 2340 492 2235.5 565.5 c 128,-1,54
 2131 639 2131 639 2032 639 c 0,44,45
EndSplineSet
Substitution2: "'medi' Medial Forms in Arabic lookup 5 subtable" uni0635.medi
Substitution2: "'init' Initial Forms in Arabic lookup 4 subtable" uni0635.init
Substitution2: "'fina' Terminal Forms in Arabic lookup 3 subtable" uni0635.fina
EndChar
StartChar: uni0637
Encoding: 1591 1591 22
AltUni2: 00fec1.ffffffff.0
Width: 1853
GlyphClass: 2
Flags: W
AnchorPoint: "Anchor-1" 880 -160 basechar 0
AnchorPoint: "Anchor-0" 1040 1600 basechar 0
LayerCount: 2
Fore
SplineSet
954 -20 m 0,0,1
 854 -20 854 -20 675 -11.5 c 128,-1,2
 496 -3 496 -3 428 18 c 1,3,4
 376 33 376 33 276 84.5 c 128,-1,5
 176 136 176 136 102 188 c 1,6,-1
 127 272 l 1,7,8
 399 210 399 210 494 197 c 1,9,10
 554 278 554 278 631 371 c 1,11,-1
 561 784 l 1,12,13
 517 1020 517 1020 496.5 1182.5 c 128,-1,14
 476 1345 476 1345 476 1405 c 0,15,16
 476 1486 476 1486 513.5 1533 c 128,-1,17
 551 1580 551 1580 635 1597 c 1,18,19
 658 1506 658 1506 678 1446 c 2,20,-1
 721 1311 l 1,21,-1
 657 1255 l 1,22,23
 670 1068 670 1068 707 782 c 1,24,25
 723 612 723 612 729 481 c 1,26,27
 893 655 893 655 1039.5 747.5 c 128,-1,28
 1186 840 1186 840 1305 840 c 0,29,30
 1380 840 1380 840 1486 777 c 128,-1,31
 1592 714 1592 714 1661.5 631 c 128,-1,32
 1731 548 1731 548 1731 489 c 0,33,34
 1731 342 1731 342 1637.5 229 c 128,-1,35
 1544 116 1544 116 1354 48 c 128,-1,36
 1164 -20 1164 -20 954 -20 c 0,0,1
1245 639 m 0,37,38
 1126 639 1126 639 961 520 c 128,-1,39
 796 401 796 401 614 180 c 1,40,41
 772 164 772 164 979 164 c 0,42,43
 1294 164 1294 164 1622 369 c 1,44,45
 1554 492 1554 492 1449.5 565.5 c 128,-1,46
 1345 639 1345 639 1245 639 c 0,37,38
EndSplineSet
Substitution2: "'medi' Medial Forms in Arabic lookup 5 subtable" uni0637.medi
Substitution2: "'init' Initial Forms in Arabic lookup 4 subtable" uni0637.init
Substitution2: "'fina' Terminal Forms in Arabic lookup 3 subtable" uni0637.fina
EndChar
StartChar: uni0639
Encoding: 1593 1593 26
AltUni2: 00fec9.ffffffff.0
Width: 1438
GlyphClass: 2
Flags: W
AnchorPoint: "Anchor-1" 340 -780 basechar 0
AnchorPoint: "Anchor-0" 480 1460 basechar 0
LayerCount: 2
Fore
SplineSet
897 -696 m 0,0,1
 602 -696 602 -696 436 -532.5 c 128,-1,2
 270 -369 270 -369 270 -80 c 0,3,4
 270 214 270 214 492 446 c 1,5,6
 354 477 354 477 259 577 c 128,-1,7
 164 677 164 677 164 795 c 0,8,9
 164 901 164 901 222 1015 c 128,-1,10
 280 1129 280 1129 367.5 1195.5 c 128,-1,11
 455 1262 455 1262 549 1262 c 0,12,13
 631 1262 631 1262 705 1222.5 c 128,-1,14
 779 1183 779 1183 887 1090 c 1,15,-1
 844 1014 l 1,16,17
 748 1050 748 1050 705.5 1059.5 c 128,-1,18
 663 1069 663 1069 610 1069 c 0,19,20
 463 1069 463 1069 301 981 c 1,21,22
 301 833 301 833 410.5 735.5 c 128,-1,23
 520 638 520 638 711 623 c 1,24,25
 892 734 892 734 1108 799 c 1,26,27
 1135 765 1135 765 1135 723 c 0,28,29
 1135 685 1135 685 1116 656.5 c 128,-1,30
 1097 628 1097 628 1065.5 606 c 128,-1,31
 1034 584 1034 584 950 549 c 1,32,33
 761 474 761 474 624.5 374 c 128,-1,34
 488 274 488 274 422 159 c 128,-1,35
 356 44 356 44 356 -80 c 0,36,37
 356 -205 356 -205 421 -298 c 128,-1,38
 486 -391 486 -391 618 -444.5 c 128,-1,39
 750 -498 750 -498 903 -498 c 0,40,41
 1190 -498 1190 -498 1493 -430 c 1,42,-1
 1520 -512 l 1,43,44
 1336 -613 1336 -613 1186 -654.5 c 128,-1,45
 1036 -696 1036 -696 897 -696 c 0,0,1
EndSplineSet
Substitution2: "'medi' Medial Forms in Arabic lookup 5 subtable" uni0639.medi
Substitution2: "'init' Initial Forms in Arabic lookup 4 subtable" uni0639.init
Substitution2: "'fina' Terminal Forms in Arabic lookup 3 subtable" uni0639.fina
EndChar
StartChar: uni0640
Encoding: 1600 1600 52
Width: 240
GlyphClass: 2
Flags: W
AnchorPoint: "Anchor-1" 130 -160 basechar 0
AnchorPoint: "Anchor-0" 130 800 basechar 0
LayerCount: 2
Fore
SplineSet
0 -20 m 2,0,1
 -20 -20 -20 -20 -20 0 c 2,2,-1
 -20 143 l 2,3,4
 -20 164 -20 164 0 164 c 2,5,-1
 260 164 l 2,6,7
 281 164 281 164 281 143 c 2,8,-1
 281 0 l 2,9,10
 281 -20 281 -20 260 -20 c 2,11,-1
 0 -20 l 2,0,1
EndSplineSet
EndChar
StartChar: uni0643
Encoding: 1603 1603 32
AltUni2: 00fed9.ffffffff.0
Width: 1343
GlyphClass: 2
Flags: W
AnchorPoint: "Anchor-1" 600 -160 basechar 0
AnchorPoint: "Anchor-0" 450 1100 basechar 0
LayerCount: 2
Fore
SplineSet
545 -20 m 0,0,1
 377 -20 377 -20 209 -5 c 128,-1,2
 41 10 41 10 41 27 c 0,3,4
 41 71 41 71 54 132 c 128,-1,5
 67 193 67 193 80 213 c 1,6,7
 180 190 180 190 324.5 177 c 128,-1,8
 469 164 469 164 590 164 c 0,9,10
 842 164 842 164 1110 211 c 1,11,12
 1087 326 1087 326 1061.5 479.5 c 128,-1,13
 1036 633 1036 633 986 916.5 c 128,-1,14
 936 1200 936 1200 925 1405 c 1,15,16
 925 1485 925 1485 961.5 1532 c 128,-1,17
 998 1579 998 1579 1083 1597 c 1,18,19
 1089 1574 1089 1574 1094.5 1554 c 128,-1,20
 1100 1534 1100 1534 1169 1311 c 1,21,-1
 1106 1255 l 1,22,23
 1115 1125 1115 1125 1145 870 c 0,24,25
 1200 387 1200 387 1200 240 c 0,26,27
 1200 174 1200 174 1175.5 122 c 128,-1,28
 1151 70 1151 70 1114 20 c 1,29,30
 852 -20 852 -20 545 -20 c 0,0,1
651 797 m 1,31,-1
 653 809 l 1,32,33
 653 822 653 822 642 835 c 128,-1,34
 631 848 631 848 614 848 c 0,35,36
 573 848 573 848 533 816.5 c 128,-1,37
 493 785 493 785 473 733 c 1,38,39
 518 673 518 673 621 673 c 0,40,41
 678 673 678 673 766 692 c 1,42,-1
 760 575 l 1,43,44
 638 545 638 545 561 514 c 128,-1,45
 484 483 484 483 385 430 c 1,46,-1
 379 547 l 1,47,-1
 438 581 l 1,48,-1
 498 614 l 1,49,50
 387 636 387 636 387 735 c 0,51,52
 387 825 387 825 460 900 c 128,-1,53
 533 975 533 975 610 975 c 0,54,55
 674 975 674 975 701.5 942.5 c 128,-1,56
 729 910 729 910 729 862 c 0,57,58
 729 820 729 820 709 780 c 1,59,-1
 651 797 l 1,31,-1
EndSplineSet
Substitution2: "'medi' Medial Forms in Arabic lookup 5 subtable" uni0643.medi
Substitution2: "'init' Initial Forms in Arabic lookup 4 subtable" uni0643.init
Substitution2: "'fina' Terminal Forms in Arabic lookup 3 subtable" uni0643.fina
EndChar
StartChar: uni0644
Encoding: 1604 1604 34
AltUni2: 00fedd.ffffffff.0
Width: 1434
GlyphClass: 2
Flags: W
AnchorPoint: "Anchor-1" 630 -840 basechar 0
AnchorPoint: "Anchor-0" 460 1400 basechar 0
LayerCount: 2
Fore
SplineSet
1200 -197 m 1,0,1
 1155 108 1155 108 1087 512 c 0,2,3
 1045 756 1045 756 1005.5 1041.5 c 128,-1,4
 966 1327 966 1327 966 1405 c 0,5,6
 966 1485 966 1485 1002.5 1532 c 128,-1,7
 1039 1579 1039 1579 1124 1597 c 1,8,9
 1130 1574 1130 1574 1135.5 1554 c 128,-1,10
 1141 1534 1141 1534 1210 1311 c 1,11,-1
 1153 1262 l 1,12,-1
 1184 995 l 1,13,-1
 1237 510 l 1,14,15
 1290 86 1290 86 1290 -106 c 0,16,17
 1290 -251 1290 -251 1197.5 -386 c 128,-1,18
 1105 -521 1105 -521 941 -608.5 c 128,-1,19
 777 -696 777 -696 600 -696 c 0,20,21
 394 -696 394 -696 279 -577.5 c 128,-1,22
 164 -459 164 -459 164 -244 c 0,23,24
 164 -169 164 -169 172.5 -112.5 c 128,-1,25
 181 -56 181 -56 211 68 c 1,26,-1
 299 47 l 1,27,28
 272 -56 272 -56 272 -125 c 0,29,30
 272 -303 272 -303 360.5 -400.5 c 128,-1,31
 449 -498 449 -498 606 -498 c 0,32,33
 721 -498 721 -498 843.5 -459 c 128,-1,34
 966 -420 966 -420 1063 -350 c 128,-1,35
 1160 -280 1160 -280 1200 -197 c 1,0,1
EndSplineSet
Substitution2: "'medi' Medial Forms in Arabic lookup 5 subtable" uni0644.medi
Substitution2: "'init' Initial Forms in Arabic lookup 4 subtable" uni0644.init
Substitution2: "'fina' Terminal Forms in Arabic lookup 3 subtable" uni0644.fina
EndChar
StartChar: uni0645
Encoding: 1605 1605 38
AltUni2: 00fee1.ffffffff.0
Width: 1178
GlyphClass: 2
Flags: W
AnchorPoint: "Anchor-1" 740 -232 basechar 0
AnchorPoint: "Anchor-0" 540 1149 basechar 0
LayerCount: 2
Fore
SplineSet
371 -696 m 1,0,1
 290 -777 290 -777 209 -831 c 1,2,3
 209 -635 209 -635 187 -345 c 1,4,5
 164 -56 164 -56 164 -8 c 0,6,7
 164 38 164 38 187.5 95.5 c 128,-1,8
 211 153 211 153 240 215 c 1,9,10
 515 297 515 297 832 297 c 2,11,-1
 862 297 l 1,12,13
 832 336 832 336 797 391.5 c 128,-1,14
 762 447 762 447 722.5 498 c 128,-1,15
 683 549 683 549 640 585 c 128,-1,16
 597 621 597 621 551 621 c 0,17,18
 494 621 494 621 441.5 579 c 128,-1,19
 389 537 389 537 328 442 c 1,20,-1
 250 481 l 1,21,22
 315 644 315 644 404.5 732.5 c 128,-1,23
 494 821 494 821 596 821 c 0,24,25
 649 821 649 821 700 784.5 c 128,-1,26
 751 748 751 748 816 663 c 0,27,28
 919 527 919 527 972 468.5 c 128,-1,29
 1025 410 1025 410 1085 365 c 1,30,-1
 993 119 l 1,31,32
 526 119 526 119 256 27 c 1,33,34
 266 -53 266 -53 312 -300 c 0,35,36
 356 -538 356 -538 371 -696 c 1,0,1
EndSplineSet
Substitution2: "'medi' Medial Forms in Arabic lookup 5 subtable" uni0645.medi
Substitution2: "'init' Initial Forms in Arabic lookup 4 subtable" uni0645.init
Substitution2: "'fina' Terminal Forms in Arabic lookup 3 subtable" uni0645.fina
Colour: ffff00
EndChar
StartChar: uni0647
Encoding: 1607 1607 42
AltUni2: 00fee9.ffffffff.0
Width: 983
GlyphClass: 2
Flags: W
AnchorPoint: "Anchor-1" 480 -160 basechar 0
AnchorPoint: "Anchor-0" 400 1200 basechar 0
LayerCount: 2
Fore
SplineSet
164 283 m 0,0,1
 164 516 164 516 399 741 c 1,2,-1
 389 750 l 1,3,4
 341 782 341 782 341 849 c 0,5,6
 341 887 341 887 359.5 919.5 c 128,-1,7
 378 952 378 952 406 963 c 1,8,9
 516 927 516 927 621.5 832.5 c 128,-1,10
 727 738 727 738 793.5 618.5 c 128,-1,11
 860 499 860 499 860 403 c 0,12,13
 860 332 860 332 804.5 207 c 128,-1,14
 749 82 749 82 696 47 c 0,15,16
 597 -20 597 -20 459 -20 c 0,17,18
 320 -20 320 -20 242 62 c 128,-1,19
 164 144 164 144 164 283 c 0,0,1
741 279 m 1,20,21
 692 513 692 513 469 690 c 1,22,23
 381 607 381 607 327.5 516.5 c 128,-1,24
 274 426 274 426 274 354 c 0,25,26
 274 267 274 267 329 219.5 c 128,-1,27
 384 172 384 172 485 172 c 0,28,29
 543 172 543 172 616.5 202.5 c 128,-1,30
 690 233 690 233 741 279 c 1,20,21
EndSplineSet
Substitution2: "'medi' Medial Forms in Arabic lookup 5 subtable" uni0647.medi
Substitution2: "'init' Initial Forms in Arabic lookup 4 subtable" uni0647.init
Substitution2: "'fina' Terminal Forms in Arabic lookup 3 subtable" uni0647.fina
EndChar
StartChar: uni0648
Encoding: 1608 1608 46
AltUni2: 00feed.ffffffff.0
Width: 1128
GlyphClass: 2
Flags: W
AnchorPoint: "Anchor-1" 480 -840 basechar 0
AnchorPoint: "Anchor-0" 540 1127 basechar 0
LayerCount: 2
Fore
SplineSet
465 -512 m 0,0,1
 385 -512 385 -512 268 -463.5 c 128,-1,2
 151 -415 151 -415 82 -358 c 1,3,-1
 117 -279 l 1,4,5
 249 -324 249 -324 410 -324 c 0,6,7
 589 -324 589 -324 718 -217.5 c 128,-1,8
 847 -111 847 -111 915 98 c 1,9,-1
 913 108 l 1,10,-1
 913 117 l 1,11,12
 771 -20 771 -20 590 -20 c 0,13,14
 452 -20 452 -20 370.5 64.5 c 128,-1,15
 289 149 289 149 289 291 c 0,16,17
 289 414 289 414 337.5 532.5 c 128,-1,18
 386 651 386 651 466.5 725 c 128,-1,19
 547 799 547 799 629 799 c 0,20,21
 728 799 728 799 815 708.5 c 128,-1,22
 902 618 902 618 954 467.5 c 128,-1,23
 1006 317 1006 317 1006 174 c 0,24,25
 1006 2 1006 2 929.5 -162.5 c 128,-1,26
 853 -327 853 -327 730.5 -419.5 c 128,-1,27
 608 -512 608 -512 465 -512 c 0,0,1
647 176 m 0,28,29
 716 176 716 176 769 188 c 128,-1,30
 822 200 822 200 891 231 c 1,31,32
 849 391 849 391 764.5 492.5 c 128,-1,33
 680 594 680 594 592 594 c 0,34,35
 543 594 543 594 494.5 558 c 128,-1,36
 446 522 446 522 413.5 463.5 c 128,-1,37
 381 405 381 405 381 358 c 0,38,39
 381 270 381 270 450.5 223 c 128,-1,40
 520 176 520 176 647 176 c 0,28,29
EndSplineSet
Substitution2: "'fina' Terminal Forms in Arabic lookup 3 subtable" uni0648.fina
Colour: ffff00
EndChar
StartChar: uni0649
Encoding: 1609 1609 48
AltUni2: 00feef.ffffffff.0
Width: 1489
GlyphClass: 2
Flags: W
AnchorPoint: "Anchor-1" 700 -820 basechar 0
AnchorPoint: "Anchor-0" 500 560 basechar 0
LayerCount: 2
Fore
SplineSet
1319 -135 m 1,0,1
 1258 -124 1258 -124 1192 -119 c 0,2,3
 1005 -105 1005 -105 916.5 -74 c 128,-1,4
 828 -43 828 -43 782.5 25 c 128,-1,5
 737 93 737 93 737 199 c 0,6,7
 737 315 737 315 818 456.5 c 128,-1,8
 899 598 899 598 1013.5 698.5 c 128,-1,9
 1128 799 1128 799 1221 799 c 0,10,11
 1292 799 1292 799 1336.5 751.5 c 128,-1,12
 1381 704 1381 704 1407 590 c 1,13,-1
 1321 565 l 1,14,15
 1304 588 1304 588 1288 595 c 128,-1,16
 1272 602 1272 602 1243 602 c 0,17,18
 1180 602 1180 602 1085 535.5 c 128,-1,19
 990 469 990 469 916.5 374.5 c 128,-1,20
 843 280 843 280 823 190 c 1,21,22
 859 156 859 156 922.5 135 c 128,-1,23
 986 114 986 114 1088 100 c 1,24,25
 1217 81 1217 81 1281 56.5 c 128,-1,26
 1345 32 1345 32 1375 -11.5 c 128,-1,27
 1405 -55 1405 -55 1405 -133 c 0,28,29
 1405 -242 1405 -242 1274.5 -378 c 128,-1,30
 1144 -514 1144 -514 954 -605 c 128,-1,31
 764 -696 764 -696 600 -696 c 0,32,33
 394 -696 394 -696 279 -577.5 c 128,-1,34
 164 -459 164 -459 164 -244 c 0,35,36
 164 -169 164 -169 172.5 -112.5 c 128,-1,37
 181 -56 181 -56 211 68 c 1,38,-1
 299 47 l 1,39,40
 272 -56 272 -56 272 -125 c 0,41,42
 272 -303 272 -303 360.5 -400.5 c 128,-1,43
 449 -498 449 -498 606 -498 c 0,44,45
 720 -498 720 -498 869.5 -447.5 c 128,-1,46
 1019 -397 1019 -397 1147.5 -310.5 c 128,-1,47
 1276 -224 1276 -224 1319 -135 c 1,0,1
EndSplineSet
Substitution2: "'medi' Medial Forms in Arabic lookup 5 subtable" uni0649.medi
Substitution2: "'init' Initial Forms in Arabic lookup 4 subtable" uni0649.init
Substitution2: "'fina' Terminal Forms in Arabic lookup 3 subtable" uni0649.fina
EndChar
StartChar: uni064E
Encoding: 1614 1614 100
Width: 0
GlyphClass: 4
Flags: W
AnchorPoint: "Anchor-4" 200 1360 basemark 0
AnchorPoint: "Anchor-4" 200 1080 mark 0
AnchorPoint: "Anchor-2" 200 1080 mark 0
AnchorPoint: "Anchor-0" 200 1080 mark 0
LayerCount: 2
Fore
SplineSet
492 1321 m 1,0,-1
 495 1289 l 1,1,2
 495 1213 495 1213 426 1182 c 1,3,4
 253 1101 253 1101 -57 1006 c 1,5,-1
 -43 1135 l 1,6,7
 271 1233 271 1233 492 1321 c 1,0,-1
EndSplineSet
EndChar
StartChar: uni064F
Encoding: 1615 1615 101
Width: 0
GlyphClass: 4
Flags: W
AnchorPoint: "Anchor-4" 200 1560 basemark 0
AnchorPoint: "Anchor-4" 160 1000 mark 0
AnchorPoint: "Anchor-2" 160 1000 mark 0
AnchorPoint: "Anchor-0" 160 1000 mark 0
LayerCount: 2
Fore
SplineSet
-104 1024 m 1,0,1
 -40 1034 -40 1034 36.5 1063.5 c 128,-1,2
 113 1093 113 1093 180 1137 c 1,3,4
 134 1158 134 1158 101 1194.5 c 128,-1,5
 68 1231 68 1231 68 1282 c 0,6,7
 68 1327 68 1327 94.5 1370.5 c 128,-1,8
 121 1414 121 1414 163 1441 c 128,-1,9
 205 1468 205 1468 244 1468 c 0,10,11
 290 1468 290 1468 319 1416.5 c 128,-1,12
 348 1365 348 1365 348 1274 c 0,13,14
 348 1236 348 1236 334 1196 c 1,15,16
 383 1190 383 1190 430 1190 c 1,17,18
 425 1143 425 1143 396 1125.5 c 128,-1,19
 367 1108 367 1108 307 1108 c 2,20,-1
 289 1108 l 1,21,-1
 270 1110 l 1,22,23
 202 1040 202 1040 122.5 993 c 128,-1,24
 43 946 43 946 -16 946 c 0,25,26
 -57 946 -57 946 -80.5 966.5 c 128,-1,27
 -104 987 -104 987 -104 1024 c 1,0,1
141 1325 m 0,28,29
 141 1251 141 1251 258 1214 c 1,30,31
 272 1239 272 1239 272 1268 c 0,32,33
 272 1314 272 1314 254 1343 c 128,-1,34
 236 1372 236 1372 207 1372 c 0,35,36
 184 1372 184 1372 162.5 1356 c 128,-1,37
 141 1340 141 1340 141 1325 c 0,28,29
EndSplineSet
EndChar
StartChar: uni0651
Encoding: 1617 1617 104
Width: 0
GlyphClass: 4
Flags: W
AnchorPoint: "Anchor-4" 160 1560 basemark 0
AnchorPoint: "Anchor-4" 180 1050 mark 0
AnchorPoint: "Anchor-2" 180 1050 mark 0
AnchorPoint: "Anchor-0" 180 1050 mark 0
LayerCount: 2
Fore
SplineSet
381 1401 m 1,0,1
 403 1358 403 1358 416.5 1307 c 128,-1,2
 430 1256 430 1256 430 1219 c 0,3,4
 430 1154 430 1154 388 1101.5 c 128,-1,5
 346 1049 346 1049 283 1049 c 0,6,7
 260 1049 260 1049 232.5 1060 c 128,-1,8
 205 1071 205 1071 188 1094 c 1,9,10
 167 1043 167 1043 130 1016 c 128,-1,11
 93 989 93 989 53 989 c 0,12,13
 -1 989 -1 989 -35.5 1023 c 128,-1,14
 -70 1057 -70 1057 -70 1122 c 0,15,16
 -70 1144 -70 1144 -62 1179.5 c 128,-1,17
 -54 1215 -54 1215 -37 1247 c 1,18,-1
 4 1239 l 1,19,20
 -6 1196 -6 1196 -6 1167 c 0,21,22
 -6 1092 -6 1092 59 1092 c 0,23,24
 90 1092 90 1092 110.5 1114 c 128,-1,25
 131 1136 131 1136 131 1174 c 1,26,-1
 127 1268 l 1,27,-1
 190 1309 l 1,28,29
 200 1237 200 1237 212.5 1209 c 128,-1,30
 225 1181 225 1181 246.5 1166 c 128,-1,31
 268 1151 268 1151 303 1151 c 0,32,33
 320 1151 320 1151 335.5 1162 c 128,-1,34
 351 1173 351 1173 356 1184 c 1,35,36
 348 1219 348 1219 313 1294 c 0,37,38
 308 1306 308 1306 308 1318 c 0,39,40
 308 1344 308 1344 329.5 1368.5 c 128,-1,41
 351 1393 351 1393 381 1401 c 1,0,1
EndSplineSet
EndChar
StartChar: uni0652
Encoding: 1618 1618 105
Width: 0
GlyphClass: 4
Flags: W
AnchorPoint: "Anchor-4" 160 1560 basemark 0
AnchorPoint: "Anchor-4" 180 1040 mark 0
AnchorPoint: "Anchor-2" 180 1040 mark 0
AnchorPoint: "Anchor-0" 180 1040 mark 0
LayerCount: 2
Fore
SplineSet
176 1022 m 0,0,1
 108 1022 108 1022 67.5 1072.5 c 128,-1,2
 27 1123 27 1123 27 1194 c 0,3,4
 27 1252 27 1252 49 1296.5 c 128,-1,5
 71 1341 71 1341 107.5 1366 c 128,-1,6
 144 1391 144 1391 180 1391 c 0,7,8
 218 1391 218 1391 255.5 1365.5 c 128,-1,9
 293 1340 293 1340 315.5 1295.5 c 128,-1,10
 338 1251 338 1251 338 1192 c 0,11,12
 338 1122 338 1122 288 1072 c 128,-1,13
 238 1022 238 1022 176 1022 c 0,0,1
276 1192 m 0,14,15
 276 1205 276 1205 260.5 1229 c 128,-1,16
 245 1253 245 1253 221.5 1268.5 c 128,-1,17
 198 1284 198 1284 164 1284 c 0,18,19
 136 1284 136 1284 112 1262.5 c 128,-1,20
 88 1241 88 1241 88 1210 c 0,21,22
 88 1174 88 1174 112.5 1152 c 128,-1,23
 137 1130 137 1130 182 1130 c 0,24,25
 217 1130 217 1130 246.5 1151.5 c 128,-1,26
 276 1173 276 1173 276 1192 c 0,14,15
EndSplineSet
EndChar
StartChar: uni0653
Encoding: 1619 1619 106
Width: 0
GlyphClass: 4
Flags: W
AnchorPoint: "Anchor-4" 160 1680 basemark 0
AnchorPoint: "Anchor-4" 160 1320 mark 0
AnchorPoint: "Anchor-2" 160 1320 mark 0
AnchorPoint: "Anchor-0" 160 1320 mark 0
LayerCount: 2
Fore
SplineSet
270 1311 m 0,0,1
 129 1311 129 1311 -43 1376 c 1,2,3
 -122 1342 -122 1342 -188 1305 c 1,4,-1
 -225 1368 l 1,5,6
 -51 1513 -51 1513 -25 1513 c 0,7,8
 -7 1513 -7 1513 105 1488 c 1,9,10
 216 1462 216 1462 281 1462 c 0,11,12
 334 1462 334 1462 407.5 1479 c 128,-1,13
 481 1496 481 1496 524 1518 c 1,14,-1
 549 1452 l 1,15,16
 495 1395 495 1395 412 1353 c 128,-1,17
 329 1311 329 1311 270 1311 c 0,0,1
EndSplineSet
EndChar
StartChar: uni0654
Encoding: 1620 1620 107
Width: 0
GlyphClass: 4
Flags: W
AnchorPoint: "Anchor-4" 140 1780 basemark 0
AnchorPoint: "Anchor-4" 140 1200 mark 0
AnchorPoint: "Anchor-2" 140 1200 mark 0
AnchorPoint: "Anchor-0" 140 1200 mark 0
LayerCount: 2
Fore
SplineSet
236 1497 m 1,0,-1
 238 1509 l 1,1,2
 238 1522 238 1522 227 1535 c 128,-1,3
 216 1548 216 1548 199 1548 c 0,4,5
 153 1548 153 1548 114 1514.5 c 128,-1,6
 75 1481 75 1481 57 1434 c 1,7,8
 105 1373 105 1373 204 1373 c 0,9,10
 258 1373 258 1373 350 1393 c 1,11,-1
 344 1276 l 1,12,13
 213 1241 213 1241 139.5 1211.5 c 128,-1,14
 66 1182 66 1182 -31 1130 c 1,15,-1
 -37 1247 l 1,16,17
 -9 1266 -9 1266 22 1282 c 128,-1,18
 53 1298 53 1298 82 1315 c 1,19,20
 -29 1335 -29 1335 -29 1436 c 0,21,22
 -29 1491 -29 1491 3 1546.5 c 128,-1,23
 35 1602 35 1602 89 1638.5 c 128,-1,24
 143 1675 143 1675 195 1675 c 0,25,26
 253 1675 253 1675 283 1646 c 128,-1,27
 313 1617 313 1617 313 1563 c 0,28,29
 313 1546 313 1546 307 1521 c 128,-1,30
 301 1496 301 1496 293 1481 c 1,31,-1
 236 1497 l 1,0,-1
EndSplineSet
EndChar
StartChar: uni0657
Encoding: 1623 1623 552
Width: 0
GlyphClass: 4
Flags: W
AnchorPoint: "Anchor-4" 160 1560 basemark 0
AnchorPoint: "Anchor-4" 200 1000 mark 0
AnchorPoint: "Anchor-2" 200 1000 mark 0
AnchorPoint: "Anchor-0" 200 1000 mark 0
LayerCount: 2
Fore
SplineSet
475 1423 m 1,0,1
 313 1396 313 1396 190 1309 c 1,2,3
 303 1256 303 1256 303 1165 c 0,4,5
 303 1120 303 1120 276.5 1076.5 c 128,-1,6
 250 1033 250 1033 208 1006 c 128,-1,7
 166 979 166 979 127 979 c 0,8,9
 82 979 82 979 52.5 1030.5 c 128,-1,10
 23 1082 23 1082 23 1174 c 0,11,12
 23 1213 23 1213 37 1249 c 1,13,14
 -3 1257 -3 1257 -59 1257 c 1,15,16
 -54 1304 -54 1304 -25.5 1321.5 c 128,-1,17
 3 1339 3 1339 63 1339 c 1,18,-1
 98 1335 l 1,19,20
 159 1400 159 1400 242 1450.5 c 128,-1,21
 325 1501 325 1501 387 1501 c 0,22,23
 427 1501 427 1501 451 1481 c 128,-1,24
 475 1461 475 1461 475 1423 c 1,0,1
229 1122 m 0,25,26
 229 1193 229 1193 113 1233 c 1,27,28
 98 1209 98 1209 98 1180 c 0,29,30
 98 1133 98 1133 116 1104 c 128,-1,31
 134 1075 134 1075 164 1075 c 0,32,33
 186 1075 186 1075 207.5 1090 c 128,-1,34
 229 1105 229 1105 229 1122 c 0,25,26
EndSplineSet
EndChar
StartChar: uni0659
Encoding: 1625 1625 566
Width: 0
GlyphClass: 4
Flags: W
AnchorPoint: "Anchor-4" 280 1370 basemark 0
AnchorPoint: "Anchor-4" 300 1080 mark 0
AnchorPoint: "Anchor-2" 300 1080 mark 0
AnchorPoint: "Anchor-0" 300 1080 mark 0
LayerCount: 2
Fore
SplineSet
2 1081 m 1,0,-1
 27 1184 l 1,1,2
 175 1184 175 1184 604 1217 c 1,3,4
 604 1181 604 1181 588 1149.5 c 128,-1,5
 572 1118 572 1118 553 1116 c 0,6,7
 434 1103 434 1103 256.5 1092 c 128,-1,8
 79 1081 79 1081 2 1081 c 1,0,-1
EndSplineSet
EndChar
StartChar: uni065E
Encoding: 1630 1630 571
Width: 0
GlyphClass: 4
Flags: W
AnchorPoint: "Anchor-4" 200 1600 basemark 0
AnchorPoint: "Anchor-4" 220 1080 mark 0
AnchorPoint: "Anchor-2" 220 1080 mark 0
AnchorPoint: "Anchor-0" 220 1080 mark 0
LayerCount: 2
Fore
SplineSet
272 1130 m 1,0,1
 286 1155 286 1155 305 1177.5 c 128,-1,2
 324 1200 324 1200 338 1219 c 1,3,4
 374 1195 374 1195 434 1137 c 1,5,6
 396 1077 396 1077 367 1051 c 1,7,-1
 272 1130 l 1,0,1
2 1081 m 1,8,-1
 27 1184 l 1,9,10
 124 1220 124 1220 269 1328 c 0,11,12
 440 1456 440 1456 461 1468 c 1,13,14
 477 1436 477 1436 477 1398 c 0,15,16
 477 1367 477 1367 463 1356 c 1,17,18
 184 1162 184 1162 2 1081 c 1,8,-1
45 1393 m 1,19,20
 59 1417 59 1417 78 1439.5 c 128,-1,21
 97 1462 97 1462 111 1481 c 1,22,23
 158 1448 158 1448 207 1399 c 1,24,25
 170 1341 170 1341 139 1313 c 1,26,-1
 45 1393 l 1,19,20
EndSplineSet
EndChar
StartChar: uni0662
Encoding: 1634 1634 67
Width: 995
GlyphClass: 2
Flags: W
LayerCount: 2
Fore
SplineSet
185 1172 m 0,0,1
 185 1220 185 1220 218 1265.5 c 128,-1,2
 251 1311 251 1311 315 1348 c 1,3,4
 385 1221 385 1221 440 1077 c 1,5,6
 503 1032 503 1032 598 1032 c 0,7,8
 703 1032 703 1032 763.5 1114 c 128,-1,9
 824 1196 824 1196 838 1346 c 1,10,-1
 934 1327 l 1,11,12
 934 829 934 829 600 829 c 0,13,14
 562 829 562 829 516 848 c 1,15,16
 578 606 578 606 578 440 c 0,17,18
 578 342 578 342 572.5 251 c 128,-1,19
 567 160 567 160 545 -20 c 1,20,-1
 453 2 l 1,21,22
 447 296 447 296 427 438.5 c 128,-1,23
 407 581 407 581 357 740 c 128,-1,24
 307 899 307 899 205 1102 c 1,25,26
 185 1139 185 1139 185 1172 c 0,0,1
EndSplineSet
EndChar
StartChar: uni0663
Encoding: 1635 1635 68
Width: 1151
GlyphClass: 2
Flags: W
LayerCount: 2
Fore
SplineSet
185 1173 m 0,0,1
 185 1274 185 1274 315 1348 c 1,2,3
 382 1226 382 1226 440 1075 c 1,4,5
 498 1032 498 1032 575 1032 c 0,6,7
 646 1032 646 1032 678.5 1075.5 c 128,-1,8
 711 1119 711 1119 711 1214 c 0,9,10
 711 1259 711 1259 705 1323 c 1,11,-1
 776 1348 l 1,12,13
 811 1221 811 1221 811 1137 c 2,14,-1
 811 1122 l 1,15,16
 843 1108 843 1108 879 1108 c 0,17,18
 930 1108 930 1108 957.5 1151.5 c 128,-1,19
 985 1195 985 1195 985 1276 c 0,20,21
 985 1313 985 1313 981 1343 c 1,22,-1
 1079 1333 l 1,23,24
 1090 1258 1090 1258 1090 1206 c 0,25,26
 1090 1074 1090 1074 1032 990.5 c 128,-1,27
 974 907 974 907 881 907 c 0,28,29
 826 907 826 907 766 940 c 1,30,31
 709 829 709 829 598 829 c 0,32,33
 558 829 558 829 512 848 c 1,34,35
 573 617 573 617 573 440 c 0,36,37
 573 204 573 204 545 -20 c 1,38,-1
 453 2 l 1,39,40
 447 276 447 276 426.5 429 c 128,-1,41
 406 582 406 582 353 748 c 128,-1,42
 300 914 300 914 205 1102 c 0,43,44
 185 1140 185 1140 185 1173 c 0,0,1
EndSplineSet
EndChar
StartChar: uni0665
Encoding: 1637 1637 70
Width: 920
GlyphClass: 2
Flags: W
LayerCount: 2
Fore
SplineSet
113 471 m 0,0,1
 113 629 113 629 173 805 c 128,-1,2
 233 981 233 981 325 1101 c 128,-1,3
 417 1221 417 1221 498 1221 c 0,4,5
 588 1221 588 1221 657.5 1149.5 c 128,-1,6
 727 1078 727 1078 767 941.5 c 128,-1,7
 807 805 807 805 807 655 c 0,8,9
 807 441 807 441 755.5 345 c 128,-1,10
 704 249 704 249 611 186 c 128,-1,11
 518 123 518 123 418 123 c 0,12,13
 256 123 256 123 184.5 209.5 c 128,-1,14
 113 296 113 296 113 471 c 0,0,1
444 326 m 0,15,16
 500 326 500 326 546 344.5 c 128,-1,17
 592 363 592 363 627.5 397 c 128,-1,18
 663 431 663 431 685 477.5 c 128,-1,19
 707 524 707 524 707 547 c 0,20,21
 707 735 707 735 633 863 c 128,-1,22
 559 991 559 991 446 991 c 0,23,24
 398 991 398 991 344 920.5 c 128,-1,25
 290 850 290 850 249.5 731.5 c 128,-1,26
 209 613 209 613 209 524 c 0,27,28
 209 326 209 326 444 326 c 0,15,16
EndSplineSet
EndChar
StartChar: uni0666
Encoding: 1638 1638 71
Width: 1073
GlyphClass: 2
Flags: W
LayerCount: 2
Fore
SplineSet
778 -23 m 1,0,1
 688 198 688 198 646 389.5 c 128,-1,2
 604 581 604 581 604 782 c 0,3,4
 604 927 604 927 643 1122 c 1,5,6
 542 1108 542 1108 397 1108 c 0,7,8
 297 1108 297 1108 205 1126.5 c 128,-1,9
 113 1145 113 1145 61 1171 c 1,10,-1
 117 1374 l 1,11,12
 271 1315 271 1315 397 1315 c 0,13,14
 570 1315 570 1315 748 1339 c 1,15,-1
 778 1300 l 1,16,17
 750 1184 750 1184 743.5 1129.5 c 128,-1,18
 737 1075 737 1075 737 1014 c 0,19,20
 737 732 737 732 783 521 c 128,-1,21
 829 310 829 310 920 131 c 1,22,-1
 778 -23 l 1,0,1
EndSplineSet
EndChar
StartChar: uni0669
Encoding: 1641 1641 74
Width: 1044
GlyphClass: 2
Flags: W
LayerCount: 2
Fore
SplineSet
750 -23 m 1,0,1
 663 197 663 197 622.5 370.5 c 128,-1,2
 582 544 582 544 580 729 c 1,3,4
 514 702 514 702 449 702 c 0,5,6
 281 702 281 702 191.5 779.5 c 128,-1,7
 102 857 102 857 102 1006 c 0,8,9
 102 1087 102 1087 151 1180 c 128,-1,10
 200 1273 200 1273 274.5 1332 c 128,-1,11
 349 1391 349 1391 418 1391 c 0,12,13
 559 1391 559 1391 629.5 1266 c 128,-1,14
 700 1141 700 1141 700 883 c 0,15,16
 700 515 700 515 891 129 c 1,17,-1
 750 -23 l 1,0,1
518 905 m 0,18,19
 541 905 541 905 569 911 c 1,20,21
 535 1180 535 1180 358 1180 c 0,22,23
 301 1180 301 1180 254 1141.5 c 128,-1,24
 207 1103 207 1103 207 1065 c 0,25,26
 207 1020 207 1020 250.5 983.5 c 128,-1,27
 294 947 294 947 368 926 c 128,-1,28
 442 905 442 905 518 905 c 0,18,19
EndSplineSet
EndChar
StartChar: uni066A
Encoding: 1642 1642 91
Width: 967
GlyphClass: 2
Flags: W
LayerCount: 2
Fore
SplineSet
213 -20 m 1,0,1
 156 26 156 26 127 98 c 1,2,3
 463 799 463 799 762 1343 c 1,4,5
 792 1322 792 1322 810.5 1285 c 128,-1,6
 829 1248 829 1248 829 1212 c 0,7,8
 829 1192 829 1192 821 1178 c 2,9,-1
 732 1007 l 2,10,11
 369 311 369 311 213 -20 c 1,0,1
82 1034 m 1,12,13
 116 1093 116 1093 146 1150.5 c 128,-1,14
 176 1208 176 1208 213 1264 c 1,15,16
 333 1194 333 1194 383.5 1150 c 128,-1,17
 434 1106 434 1106 434 1087 c 0,18,19
 434 1054 434 1054 313 881 c 1,20,21
 197 971 197 971 82 1034 c 1,12,13
532 246 m 1,22,23
 567 305 567 305 596.5 362 c 128,-1,24
 626 419 626 419 664 475 c 1,25,26
 783 406 783 406 834 362 c 128,-1,27
 885 318 885 318 885 299 c 0,28,29
 885 267 885 267 764 92 c 1,30,31
 646 183 646 183 532 246 c 1,22,23
EndSplineSet
EndChar
StartChar: uni066B
Encoding: 1643 1643 95
Width: 418
GlyphClass: 2
Flags: W
LayerCount: 2
Fore
SplineSet
377 57 m 0,0,1
 377 -92 377 -92 291 -193.5 c 128,-1,2
 205 -295 205 -295 41 -344 c 1,3,-1
 41 -258 l 1,4,5
 236 -196 236 -196 236 -74 c 0,6,7
 236 -52 236 -52 221.5 -36.5 c 128,-1,8
 207 -21 207 -21 161 4 c 0,9,10
 86 43 86 43 86 115 c 0,11,12
 86 174 86 174 124 205 c 128,-1,13
 162 236 162 236 219 236 c 0,14,15
 288 236 288 236 332.5 186 c 128,-1,16
 377 136 377 136 377 57 c 0,0,1
EndSplineSet
EndChar
StartChar: uni066C
Encoding: 1644 1644 96
Width: 387
GlyphClass: 2
Flags: W
LayerCount: 2
Fore
SplineSet
41 -164 m 0,0,1
 41 -15 41 -15 127.5 87.5 c 128,-1,2
 214 190 214 190 377 238 c 1,3,-1
 377 152 l 1,4,5
 182 90 182 90 182 -33 c 0,6,7
 182 -55 182 -55 196.5 -70.5 c 128,-1,8
 211 -86 211 -86 257 -111 c 0,9,10
 332 -150 332 -150 332 -221 c 0,11,12
 332 -277 332 -277 295 -309.5 c 128,-1,13
 258 -342 258 -342 199 -342 c 0,14,15
 129 -342 129 -342 85 -292.5 c 128,-1,16
 41 -243 41 -243 41 -164 c 0,0,1
EndSplineSet
EndChar
StartChar: uni066D
Encoding: 1645 1645 97
Width: 965
GlyphClass: 2
Flags: W
LayerCount: 2
Fore
SplineSet
487 1098 m 1,0,-1
 580 774 l 1,1,-1
 915 786 l 1,2,-1
 920 776 l 1,3,-1
 639 588 l 1,4,-1
 752 272 l 1,5,-1
 743 266 l 1,6,-1
 479 473 l 1,7,-1
 217 266 l 1,8,-1
 209 272 l 1,9,-1
 322 588 l 1,10,-1
 45 774 l 1,11,-1
 49 786 l 1,12,-1
 383 774 l 1,13,-1
 475 1098 l 1,14,-1
 487 1098 l 1,0,-1
EndSplineSet
EndChar
StartChar: uni066E
Encoding: 1646 1646 53
Width: 1942
GlyphClass: 2
Flags: W
AnchorPoint: "Anchor-1" 960 -160 basechar 0
AnchorPoint: "Anchor-0" 940 1000 basechar 0
LayerCount: 2
Fore
SplineSet
834 -20 m 0,0,1
 545 -20 545 -20 395.5 85 c 128,-1,2
 246 190 246 190 246 391 c 0,3,4
 246 549 246 549 279 655 c 1,5,-1
 365 655 l 1,6,7
 363 644 363 644 359.5 605.5 c 128,-1,8
 356 567 356 567 356 537 c 0,9,10
 356 396 356 396 412 317 c 128,-1,11
 468 238 468 238 585 201 c 128,-1,12
 702 164 702 164 885 164 c 0,13,14
 1107 164 1107 164 1320 208.5 c 128,-1,15
 1533 253 1533 253 1704 334 c 1,16,17
 1675 441 1675 441 1617 598 c 0,18,19
 1571 722 1571 722 1571 760 c 0,20,21
 1571 815 1571 815 1615 870 c 128,-1,22
 1659 925 1659 925 1729 963 c 1,23,24
 1739 893 1739 893 1754.5 823.5 c 128,-1,25
 1770 754 1770 754 1784.5 687 c 128,-1,26
 1799 620 1799 620 1809 557.5 c 128,-1,27
 1819 495 1819 495 1819 440 c 0,28,29
 1819 363 1819 363 1735 195 c 1,30,31
 1568 89 1568 89 1339 34.5 c 128,-1,32
 1110 -20 1110 -20 834 -20 c 0,0,1
EndSplineSet
Substitution2: "'medi' Medial Forms in Arabic lookup 5 subtable" uni066E.medi
Substitution2: "'init' Initial Forms in Arabic lookup 4 subtable" uni066E.init
Substitution2: "'fina' Terminal Forms in Arabic lookup 3 subtable" uni066E.fina
EndChar
StartChar: uni066F
Encoding: 1647 1647 59
Width: 1559
GlyphClass: 2
Flags: W
AnchorPoint: "Anchor-1" 740 -1024 basechar 0
AnchorPoint: "Anchor-0" 900 1127 basechar 0
LayerCount: 2
Fore
SplineSet
1313 -188 m 1,0,1
 1313 -18 1313 -18 1284 123 c 1,2,3
 1199 44 1199 44 1119.5 12 c 128,-1,4
 1040 -20 1040 -20 956 -20 c 0,5,6
 820 -20 820 -20 737.5 64 c 128,-1,7
 655 148 655 148 655 291 c 0,8,9
 655 414 655 414 703.5 532.5 c 128,-1,10
 752 651 752 651 832.5 725 c 128,-1,11
 913 799 913 799 995 799 c 0,12,13
 1110 799 1110 799 1213 699 c 128,-1,14
 1316 599 1316 599 1376 422.5 c 128,-1,15
 1436 246 1436 246 1436 33 c 0,16,17
 1436 -118 1436 -118 1374.5 -249.5 c 128,-1,18
 1313 -381 1313 -381 1200.5 -479 c 128,-1,19
 1088 -577 1088 -577 936 -636.5 c 128,-1,20
 784 -696 784 -696 641 -696 c 0,21,22
 416 -696 416 -696 290 -577.5 c 128,-1,23
 164 -459 164 -459 164 -244 c 0,24,25
 164 -169 164 -169 172.5 -112.5 c 128,-1,26
 181 -56 181 -56 211 68 c 1,27,-1
 299 47 l 1,28,29
 272 -56 272 -56 272 -125 c 0,30,31
 272 -306 272 -306 369 -402 c 128,-1,32
 466 -498 466 -498 647 -498 c 0,33,34
 772 -498 772 -498 910.5 -457.5 c 128,-1,35
 1049 -417 1049 -417 1153 -347 c 128,-1,36
 1257 -277 1257 -277 1313 -188 c 1,0,1
1014 176 m 256,37,38
 1141 176 1141 176 1257 231 c 1,39,40
 1225 342 1225 342 1177.5 423 c 128,-1,41
 1130 504 1130 504 1071.5 549 c 128,-1,42
 1013 594 1013 594 958 594 c 0,43,44
 910 594 910 594 861.5 558 c 128,-1,45
 813 522 813 522 780.5 464 c 128,-1,46
 748 406 748 406 748 358 c 0,47,48
 748 270 748 270 817.5 223 c 128,-1,49
 887 176 887 176 1014 176 c 256,37,38
EndSplineSet
Substitution2: "'medi' Medial Forms in Arabic lookup 5 subtable" uni066F.medi
Substitution2: "'init' Initial Forms in Arabic lookup 4 subtable" uni066F.init
Substitution2: "'fina' Terminal Forms in Arabic lookup 3 subtable" uni066F.fina
Colour: ffff00
EndChar
StartChar: uni0670
Encoding: 1648 1648 109
Width: 0
GlyphClass: 4
Flags: W
AnchorPoint: "Anchor-4" 0 1680 basemark 0
AnchorPoint: "Anchor-4" 40 1000 mark 0
AnchorPoint: "Anchor-2" 40 1000 mark 0
AnchorPoint: "Anchor-0" 40 1000 mark 0
LayerCount: 2
Fore
SplineSet
59 1559 m 1,0,1
 82 1439 82 1439 90 1358 c 128,-1,2
 98 1277 98 1277 98 1171 c 0,3,4
 98 1042 98 1042 31 950 c 1,5,-1
 16 954 l 1,6,7
 16 1179 16 1179 -28 1355 c 0,8,9
 -37 1388 -37 1388 -37 1413 c 0,10,11
 -37 1464 -37 1464 -10.5 1503.5 c 128,-1,12
 16 1543 16 1543 59 1559 c 1,0,1
EndSplineSet
EndChar
StartChar: uni06A9
Encoding: 1705 1705 83
AltUni2: 00fb8e.ffffffff.0
Width: 1739
GlyphClass: 2
Flags: W
AnchorPoint: "Anchor-1" 800 -160 basechar 0
AnchorPoint: "Anchor-0" 835 1390 basechar 0
LayerCount: 2
Fore
SplineSet
762 164 m 0,0,1
 920 164 920 164 1039.5 179 c 128,-1,2
 1159 194 1159 194 1252.5 221.5 c 128,-1,3
 1346 249 1346 249 1452 305 c 1,4,5
 1361 581 1361 581 944 778 c 1,6,7
 922 770 922 770 887 770 c 0,8,9
 824 770 824 770 781.5 814 c 128,-1,10
 739 858 739 858 739 926 c 0,11,12
 739 971 739 971 763.5 1060 c 128,-1,13
 788 1149 788 1149 803 1157 c 0,14,15
 1091 1307 1091 1307 1249 1380 c 128,-1,16
 1407 1453 1407 1453 1659 1556 c 1,17,18
 1678 1540 1678 1540 1687 1514 c 128,-1,19
 1696 1488 1696 1488 1696 1465 c 1,20,-1
 1694 1444 l 1,21,22
 1682 1359 1682 1359 1593 1323 c 0,23,24
 1153 1142 1153 1142 827 993 c 1,25,26
 1004 950 1004 950 1173.5 847.5 c 128,-1,27
 1343 745 1343 745 1445.5 617 c 128,-1,28
 1548 489 1548 489 1548 375 c 0,29,30
 1548 179 1548 179 1345.5 79.5 c 128,-1,31
 1143 -20 1143 -20 741 -20 c 0,32,33
 442 -20 442 -20 303 66 c 128,-1,34
 164 152 164 152 164 319 c 0,35,36
 164 402 164 402 195 473 c 1,37,-1
 281 473 l 1,38,39
 272 443 272 443 272 375 c 0,40,41
 272 263 272 263 382 213.5 c 128,-1,42
 492 164 492 164 762 164 c 0,0,1
EndSplineSet
Substitution2: "'medi' Medial Forms in Arabic lookup 5 subtable" uni06A9.medi
Substitution2: "'init' Initial Forms in Arabic lookup 4 subtable" uni06A9.init
Substitution2: "'fina' Terminal Forms in Arabic lookup 3 subtable" uni06A9.fina
EndChar
StartChar: uni06AA
Encoding: 1706 1706 419
Width: 2445
GlyphClass: 2
Flags: W
AnchorPoint: "Anchor-1" 1000 -160 basechar 0
AnchorPoint: "Anchor-0" 940 1330 basechar 0
LayerCount: 2
Fore
SplineSet
690 -20 m 2,0,-1
 629 -20 l 2,1,2
 314 -20 314 -20 207.5 2.5 c 128,-1,3
 101 25 101 25 61.5 70.5 c 128,-1,4
 22 116 22 116 22 180 c 1,5,-1
 25 221 l 1,6,7
 292 164 292 164 653 164 c 0,8,9
 1052 164 1052 164 1484 181 c 128,-1,10
 1916 198 1916 198 2232 236 c 1,11,12
 2198 337 2198 337 2116.5 385.5 c 128,-1,13
 2035 434 2035 434 1894 434 c 0,14,15
 1748 434 1748 434 1405 415 c 0,16,17
 1062 395 1062 395 893 395 c 0,18,19
 731 395 731 395 659.5 446.5 c 128,-1,20
 588 498 588 498 588 618 c 0,21,22
 588 710 588 710 634 798.5 c 128,-1,23
 680 887 680 887 778 973.5 c 128,-1,24
 876 1060 876 1060 1013 1130 c 128,-1,25
 1150 1200 1150 1200 1268 1229 c 1,26,27
 1274 1198 1274 1198 1274 1168 c 0,28,29
 1274 1106 1274 1106 1245.5 1061.5 c 128,-1,30
 1217 1017 1217 1017 1165 995 c 0,31,32
 1065 954 1065 954 935.5 880.5 c 128,-1,33
 806 807 806 807 740 751 c 128,-1,34
 674 695 674 695 674 662 c 0,35,36
 674 630 674 630 762.5 606 c 128,-1,37
 851 582 851 582 936 582 c 0,38,39
 1049 582 1049 582 1408 599 c 0,40,41
 1766 616 1766 616 1888 616 c 0,42,43
 2009 616 2009 616 2109 575.5 c 128,-1,44
 2209 535 2209 535 2265.5 459.5 c 128,-1,45
 2322 384 2322 384 2322 281 c 0,46,47
 2322 202 2322 202 2271 86 c 1,48,49
 1940 37 1940 37 1511 8.5 c 128,-1,50
 1082 -20 1082 -20 690 -20 c 2,0,-1
EndSplineSet
Substitution2: "'medi' Medial Forms in Arabic lookup 5 subtable" uni06AA.medi
Substitution2: "'init' Initial Forms in Arabic lookup 4 subtable" uni06AA.init
Substitution2: "'fina' Terminal Forms in Arabic lookup 3 subtable" uni06AA.fina
EndChar
StartChar: uni06BA
Encoding: 1722 1722 89
AltUni2: 00fb9e.ffffffff.0
Width: 1413
GlyphClass: 2
Flags: W
AnchorPoint: "Anchor-1" 640 -800 basechar 0
AnchorPoint: "Anchor-0" 650 540 basechar 0
LayerCount: 2
Fore
SplineSet
600 -696 m 0,0,1
 394 -696 394 -696 279 -577.5 c 128,-1,2
 164 -459 164 -459 164 -244 c 0,3,4
 164 -169 164 -169 172.5 -112.5 c 128,-1,5
 181 -56 181 -56 211 68 c 1,6,-1
 299 47 l 1,7,8
 272 -56 272 -56 272 -125 c 0,9,10
 272 -303 272 -303 360.5 -400.5 c 128,-1,11
 449 -498 449 -498 606 -498 c 0,12,13
 721 -498 721 -498 843.5 -459 c 128,-1,14
 966 -420 966 -420 1063 -350 c 128,-1,15
 1160 -280 1160 -280 1200 -197 c 1,16,17
 1042 149 1042 149 1042 264 c 0,18,19
 1042 390 1042 390 1200 479 c 1,20,21
 1211 394 1211 394 1226.5 316.5 c 128,-1,22
 1242 239 1242 239 1256 167 c 128,-1,23
 1270 95 1270 95 1280 27.5 c 128,-1,24
 1290 -40 1290 -40 1290 -106 c 0,25,26
 1290 -251 1290 -251 1197.5 -386 c 128,-1,27
 1105 -521 1105 -521 941 -608.5 c 128,-1,28
 777 -696 777 -696 600 -696 c 0,0,1
EndSplineSet
Substitution2: "'medi' Medial Forms in Arabic lookup 5 subtable" uni0646.medi
Substitution2: "'init' Initial Forms in Arabic lookup 4 subtable" uni0646.init
Substitution2: "'fina' Terminal Forms in Arabic lookup 3 subtable" uni06BA.fina
EndChar
StartChar: uni06BE
Encoding: 1726 1726 80
AltUni2: 00fbaa.ffffffff.0
Width: 1520
GlyphClass: 2
Flags: W
AnchorPoint: "Anchor-1" 740 -160 basechar 0
AnchorPoint: "Anchor-0" 700 1200 basechar 0
LayerCount: 2
Fore
SplineSet
365 -20 m 0,0,1
 263 -20 263 -20 41 100 c 1,2,-1
 63 184 l 1,3,4
 153 164 153 164 330 164 c 0,5,6
 462 164 462 164 573 197 c 1,7,8
 424 323 424 323 424 479 c 0,9,10
 424 549 424 549 452 629.5 c 128,-1,11
 480 710 480 710 529 773 c 128,-1,12
 578 836 578 836 637 866 c 1,13,-1
 692 1024 l 1,14,15
 894 967 894 967 1056.5 848.5 c 128,-1,16
 1219 730 1219 730 1308 574.5 c 128,-1,17
 1397 419 1397 419 1397 260 c 0,18,19
 1397 147 1397 147 1274 -63 c 1,20,21
 963 -26 963 -26 739 86 c 1,22,23
 562 -20 562 -20 365 -20 c 0,0,1
510 481 m 1,24,25
 622 360 622 360 752 281 c 1,26,27
 874 377 874 377 874 537 c 0,28,29
 874 603 874 603 831 664 c 128,-1,30
 788 725 788 725 733 725 c 0,31,32
 695 725 695 725 649 693.5 c 128,-1,33
 603 662 603 662 566.5 607.5 c 128,-1,34
 530 553 530 553 510 481 c 1,24,25
1016 530 m 0,35,36
 1016 345 1016 345 893 209 c 1,37,38
 1067 135 1067 135 1268 113 c 1,39,40
 1268 272 1268 272 1184 438.5 c 128,-1,41
 1100 605 1100 605 967 719 c 1,42,43
 1016 626 1016 626 1016 530 c 0,35,36
EndSplineSet
Substitution2: "'medi' Medial Forms in Arabic lookup 5 subtable" uni06BE.medi
Substitution2: "'init' Initial Forms in Arabic lookup 4 subtable" uni06BE.init
Substitution2: "'fina' Terminal Forms in Arabic lookup 3 subtable" uni06BE.fina
EndChar
StartChar: uni06C1.fina
Encoding: 1729 1729 118
AltUni2: 00fba7.ffffffff.0
Width: 1024
GlyphClass: 2
Flags: W
AnchorPoint: "Anchor-1" 560 -160 basechar 0
AnchorPoint: "Anchor-0" 600 680 basechar 0
LayerCount: 2
Fore
SplineSet
1038 -20 m 0,0,1
 957 -20 957 -20 897.5 -1 c 128,-1,2
 838 18 838 18 794 47 c 128,-1,3
 750 76 750 76 718 109 c 128,-1,4
 686 142 686 142 659.5 171 c 128,-1,5
 633 200 633 200 608.5 219 c 128,-1,6
 584 238 584 238 555 238 c 0,7,8
 495 238 495 238 416.5 177 c 128,-1,9
 338 116 338 116 227 -20 c 1,10,-1
 164 35 l 1,11,12
 433 432 433 432 635 432 c 0,13,14
 682 432 682 432 727 399 c 128,-1,15
 772 366 772 366 824 298 c 0,16,17
 875 232 875 232 927 198 c 128,-1,18
 979 164 979 164 1038 164 c 0,19,20
 1065 164 1065 164 1065 139 c 2,21,-1
 1065 6 l 2,22,23
 1065 -20 1065 -20 1038 -20 c 0,0,1
EndSplineSet
Substitution2: "'isol' Isolated Forms in Arabic lookup 2 subtable" uni06C1
EndChar
StartChar: uni06D2
Encoding: 1746 1746 81
AltUni2: 00fbae.ffffffff.0
Width: 1862
GlyphClass: 2
Flags: W
AnchorPoint: "Anchor-1" 900 -160 basechar 0
AnchorPoint: "Anchor-0" 600 890 basechar 0
LayerCount: 2
Fore
SplineSet
979 -20 m 0,0,1
 802 -20 802 -20 611 -2 c 128,-1,2
 420 16 420 16 292 46.5 c 128,-1,3
 164 77 164 77 164 106 c 0,4,5
 164 149 164 149 191.5 252.5 c 128,-1,6
 219 356 219 356 242 379 c 0,7,8
 322 459 322 459 440 514 c 0,9,10
 474 530 474 530 579 565 c 0,11,12
 681 600 681 600 715 614.5 c 128,-1,13
 749 629 749 629 783 663 c 128,-1,14
 817 697 817 697 838 737 c 1,15,-1
 913 696 l 1,16,17
 879 593 879 593 829.5 536.5 c 128,-1,18
 780 480 780 480 702 457 c 0,19,20
 529 405 529 405 454 369.5 c 128,-1,21
 379 334 379 334 274 264 c 1,22,23
 407 209 407 209 578.5 186.5 c 128,-1,24
 750 164 750 164 1010 164 c 0,25,26
 1195 164 1195 164 1407.5 194 c 128,-1,27
 1620 224 1620 224 1786 274 c 1,28,29
 1820 234 1820 234 1820 196 c 0,30,31
 1820 135 1820 135 1744 92.5 c 128,-1,32
 1668 50 1668 50 1430 15 c 128,-1,33
 1192 -20 1192 -20 979 -20 c 0,0,1
EndSplineSet
Substitution2: "'fina' Terminal Forms in Arabic lookup 3 subtable" uni06D2.fina
EndChar
StartChar: uni06D4
Encoding: 1748 1748 726
Width: 350
GlyphClass: 2
Flags: W
LayerCount: 2
Fore
SplineSet
360 164 m 2,0,1
 371 164 371 164 371 156 c 2,2,-1
 371 -10 l 2,3,4
 371 -20 371 -20 360 -20 c 2,5,-1
 -10 -20 l 2,6,7
 -20 -20 -20 -20 -20 -10 c 2,8,-1
 -20 156 l 2,9,10
 -20 164 -20 164 -10 164 c 2,11,-1
 360 164 l 2,0,1
EndSplineSet
EndChar
StartChar: uni06D6
Encoding: 1750 1750 496
Width: 0
GlyphClass: 4
Flags: W
AnchorPoint: "Anchor-4" 0 1960 basemark 0
AnchorPoint: "Anchor-4" 0 980 mark 0
AnchorPoint: "Anchor-2" 0 980 mark 0
AnchorPoint: "Anchor-0" 0 980 mark 0
LayerCount: 2
Fore
SplineSet
-184 1225 m 1,0,1
 -216 1218 -216 1218 -242.5 1212.5 c 128,-1,2
 -269 1207 -269 1207 -292 1202 c 128,-1,3
 -315 1197 -315 1197 -337 1191 c 128,-1,4
 -359 1185 -359 1185 -383 1178 c 0,5,6
 -434 1162 -434 1162 -488.5 1143.5 c 128,-1,7
 -543 1125 -543 1125 -590 1096 c 1,8,9
 -547 1084 -547 1084 -468 1075.5 c 128,-1,10
 -389 1067 -389 1067 -307 1067 c 0,11,12
 -126 1067 -126 1067 -4 1090 c 1,13,14
 10 1072 10 1072 10 1056 c 0,15,16
 10 1013 10 1013 -74 1003 c 128,-1,17
 -158 993 -158 993 -313 993 c 0,18,19
 -422 993 -422 993 -528.5 1012.5 c 128,-1,20
 -635 1032 -635 1032 -635 1051 c 0,21,22
 -635 1059 -635 1059 -626 1092 c 128,-1,23
 -617 1125 -617 1125 -610 1133 c 1,24,25
 -565 1172 -565 1172 -511.5 1199.5 c 128,-1,26
 -458 1227 -458 1227 -401 1245 c 128,-1,27
 -344 1263 -344 1263 -213 1288 c 1,28,29
 -224 1399 -224 1399 -252 1784 c 1,30,31
 -225 1809 -225 1809 -186 1837 c 1,32,-1
 -179 1565 l 1,33,-1
 -174 1288 l 1,34,35
 -130 1264 -130 1264 -74 1264 c 0,36,37
 -23 1264 -23 1264 4 1286 c 0,38,39
 21 1300 21 1300 32.5 1318.5 c 128,-1,40
 44 1337 44 1337 61 1366 c 1,41,42
 73 1383 73 1383 93 1383 c 0,43,44
 107 1383 107 1383 115 1374 c 1,45,46
 100 1335 100 1335 86 1309 c 1,47,48
 101 1300 101 1300 135 1288 c 1,49,50
 317 1534 317 1534 449 1534 c 0,51,52
 496 1534 496 1534 557 1483.5 c 128,-1,53
 618 1433 618 1433 618 1395 c 0,54,55
 618 1334 618 1334 580 1288.5 c 128,-1,56
 542 1243 542 1243 465 1216.5 c 128,-1,57
 388 1190 388 1190 309 1190 c 256,58,59
 230 1190 230 1190 159.5 1205.5 c 128,-1,60
 89 1221 89 1221 49 1245 c 1,61,-1
 33 1225 l 1,62,63
 -2 1190 -2 1190 -74 1190 c 0,64,65
 -147 1190 -147 1190 -184 1225 c 1,0,1
426 1454 m 0,66,67
 380 1454 380 1454 315.5 1409.5 c 128,-1,68
 251 1365 251 1365 180 1278 c 1,69,70
 241 1264 241 1264 319 1264 c 0,71,72
 449 1264 449 1264 575 1346 c 1,73,74
 548 1394 548 1394 507 1424 c 128,-1,75
 466 1454 466 1454 426 1454 c 0,66,67
EndSplineSet
EndChar
StartChar: uni06D9
Encoding: 1753 1753 499
Width: 0
GlyphClass: 4
Flags: W
AnchorPoint: "Anchor-4" -80 1680 basemark 0
AnchorPoint: "Anchor-4" 60 960 mark 0
AnchorPoint: "Anchor-2" 60 960 mark 0
AnchorPoint: "Anchor-0" 60 960 mark 0
LayerCount: 2
Fore
SplineSet
-154 963 m 2,0,1
 -156 963 -156 963 -156 975 c 0,2,3
 -155 999 -155 999 -150 1017.5 c 128,-1,4
 -145 1036 -145 1036 -141 1036 c 2,5,-1
 -121 1036 l 1,6,7
 -15 1115 -15 1115 33 1182 c 1,8,9
 -61 1290 -61 1290 -170 1352 c 1,10,-1
 -205 1350 l 1,11,12
 -222 1367 -222 1367 -236 1385.5 c 128,-1,13
 -250 1404 -250 1404 -252 1430 c 1,14,15
 -252 1469 -252 1469 -219 1487 c 1,16,17
 -151 1439 -151 1439 -70 1365 c 128,-1,18
 11 1291 11 1291 61 1229 c 1,19,20
 80 1263 80 1263 80 1311 c 0,21,22
 80 1339 80 1339 68 1421 c 2,23,-1
 48 1565 l 1,24,25
 48 1615 48 1615 113 1626 c 1,26,-1
 130 1566 l 1,27,-1
 147 1511 l 1,28,-1
 121 1489 l 1,29,-1
 129 1331 l 1,30,31
 129 1252 129 1252 90 1186 c 1,32,33
 164 1063 164 1063 164 1044 c 0,34,35
 164 1027 164 1027 151.5 1004 c 128,-1,36
 139 981 139 981 133 979 c 0,37,38
 48 963 48 963 -103 963 c 2,39,-1
 -154 963 l 2,0,1
125 1055 m 1,40,41
 101 1095 101 1095 63 1145 c 1,42,43
 23 1090 23 1090 -45 1038 c 1,44,45
 64 1043 64 1043 125 1055 c 1,40,41
EndSplineSet
EndChar
StartChar: uni06DA
Encoding: 1754 1754 500
Width: 0
GlyphClass: 4
Flags: W
AnchorPoint: "Anchor-4" 0 1640 basemark 0
AnchorPoint: "Anchor-4" 50 800 mark 0
AnchorPoint: "Anchor-2" 50 800 mark 0
AnchorPoint: "Anchor-0" 50 800 mark 0
LayerCount: 2
Fore
SplineSet
-209 1044 m 0,0,1
 -209 990 -209 990 -179.5 953.5 c 128,-1,2
 -150 917 -150 917 -100 898 c 128,-1,3
 -50 879 -50 879 10 879 c 0,4,5
 126 879 126 879 246 905 c 1,6,-1
 258 872 l 1,7,8
 205 845 205 845 142.5 822 c 128,-1,9
 80 799 80 799 8 799 c 0,10,11
 -109 799 -109 799 -175.5 863 c 128,-1,12
 -242 927 -242 927 -242 1044 c 0,13,14
 -242 1141 -242 1141 -180.5 1224.5 c 128,-1,15
 -119 1308 -119 1308 -18 1348 c 1,16,17
 -60 1360 -60 1360 -93 1371 c 128,-1,18
 -126 1382 -126 1382 -154 1382 c 0,19,20
 -192 1382 -192 1382 -214.5 1370.5 c 128,-1,21
 -237 1359 -237 1359 -260 1343 c 1,22,23
 -274 1363 -274 1363 -274 1382 c 0,24,25
 -274 1417 -274 1417 -242 1439.5 c 128,-1,26
 -210 1462 -210 1462 -158 1462 c 0,27,28
 -103 1462 -103 1462 4 1429 c 0,29,30
 111 1395 111 1395 172 1395 c 2,31,-1
 203 1395 l 1,32,-1
 236 1397 l 1,33,-1
 209 1323 l 1,34,35
 191 1319 191 1319 168 1319 c 0,36,37
 75 1316 75 1316 -17.5 1275 c 128,-1,38
 -110 1234 -110 1234 -159.5 1173.5 c 128,-1,39
 -209 1113 -209 1113 -209 1044 c 0,0,1
68 1044 m 1,40,41
 41 1006 41 1006 6 973 c 1,42,43
 -37 1006 -37 1006 -63 1036 c 1,44,45
 -26 1071 -26 1071 4 1106 c 1,46,47
 29 1078 29 1078 68 1044 c 1,40,41
EndSplineSet
EndChar
StartChar: uni06DE
Encoding: 1758 1758 734
Width: 2220
GlyphClass: 2
Flags: W
LayerCount: 2
Fore
SplineSet
2171 750 m 1,0,-1
 1862 438 l 1,1,-1
 1862 0 l 1,2,-1
 1421 0 l 1,3,-1
 1110 -311 l 1,4,-1
 801 0 l 1,5,-1
 360 0 l 1,6,-1
 360 438 l 1,7,-1
 49 750 l 1,8,-1
 360 1061 l 1,9,-1
 360 1499 l 1,10,-1
 801 1499 l 1,11,-1
 1110 1810 l 1,12,-1
 1421 1499 l 1,13,-1
 1862 1499 l 1,14,-1
 1862 1061 l 1,15,-1
 2171 750 l 1,0,-1
436 365 m 1,16,-1
 436 76 l 1,17,-1
 725 76 l 1,18,-1
 436 365 l 1,16,-1
725 1425 m 1,19,-1
 436 1425 l 1,20,-1
 436 1137 l 1,21,-1
 725 1425 l 1,19,-1
1786 1137 m 1,22,-1
 1786 1425 l 1,23,-1
 1495 1425 l 1,24,-1
 1786 1137 l 1,22,-1
1786 76 m 1,25,-1
 1786 365 l 1,26,-1
 1495 76 l 1,27,-1
 1786 76 l 1,25,-1
905 0 m 1,28,-1
 1110 -205 l 1,29,-1
 1315 0 l 1,30,-1
 905 0 l 1,28,-1
360 954 m 1,31,-1
 156 750 l 1,32,-1
 360 545 l 1,33,-1
 360 954 l 1,31,-1
1315 1499 m 1,34,-1
 1110 1706 l 1,35,-1
 905 1499 l 1,36,-1
 1315 1499 l 1,34,-1
1786 1030 m 1,37,-1
 1391 1425 l 1,38,-1
 831 1425 l 1,39,-1
 436 1030 l 1,40,-1
 436 469 l 1,41,-1
 831 76 l 1,42,-1
 1391 76 l 1,43,-1
 1786 469 l 1,44,-1
 1786 1030 l 1,37,-1
2064 750 m 1,45,-1
 1862 954 l 1,46,-1
 1862 545 l 1,47,-1
 2064 750 l 1,45,-1
1327 750 m 0,48,49
 1327 659 1327 659 1263.5 595.5 c 128,-1,50
 1200 532 1200 532 1110 532 c 0,51,52
 1022 532 1022 532 957.5 595.5 c 128,-1,53
 893 659 893 659 893 750 c 0,54,55
 893 840 893 840 957.5 903.5 c 128,-1,56
 1022 967 1022 967 1110 967 c 0,57,58
 1200 967 1200 967 1263.5 903.5 c 128,-1,59
 1327 840 1327 840 1327 750 c 0,48,49
1253 750 m 0,60,61
 1253 809 1253 809 1211 851 c 128,-1,62
 1169 893 1169 893 1110 893 c 256,63,64
 1051 893 1051 893 1010 851 c 128,-1,65
 969 809 969 809 969 750 c 0,66,67
 969 690 969 690 1010 648 c 128,-1,68
 1051 606 1051 606 1110 606 c 256,69,70
 1169 606 1169 606 1211 648 c 128,-1,71
 1253 690 1253 690 1253 750 c 0,60,61
EndSplineSet
EndChar
StartChar: uni06E0
Encoding: 1760 1760 735
Width: 0
GlyphClass: 4
Flags: W
AnchorPoint: "Anchor-4" 0 1500 basemark 0
AnchorPoint: "Anchor-4" 0 1100 mark 0
AnchorPoint: "Anchor-2" 0 1100 mark 0
AnchorPoint: "Anchor-0" 0 1100 mark 0
LayerCount: 2
Fore
SplineSet
-164 1347 m 256,0,1
 -164 1571 -164 1571 0 1571 c 128,-1,2
 164 1571 164 1571 164 1346 c 0,3,4
 164 1119 164 1119 0 1120 c 128,-1,5
 -164 1121 -164 1121 -164 1347 c 256,0,1
85 1346 m 256,6,7
 85 1538 85 1538 0 1538 c 128,-1,8
 -85 1538 -85 1538 -85 1346 c 256,9,10
 -85 1153 -85 1153 0 1153 c 128,-1,11
 85 1153 85 1153 85 1346 c 256,6,7
EndSplineSet
EndChar
StartChar: uni06E1
Encoding: 1761 1761 504
Width: 0
GlyphClass: 4
Flags: W
AnchorPoint: "Anchor-4" 35 1440 basemark 0
AnchorPoint: "Anchor-4" 40 980 mark 0
AnchorPoint: "Anchor-2" 40 980 mark 0
AnchorPoint: "Anchor-0" 40 980 mark 0
LayerCount: 2
Fore
SplineSet
-283 1036 m 1,0,1
 -105 1036 -105 1036 -14 1077 c 0,2,3
 53 1107 53 1107 73 1114 c 128,-1,4
 93 1121 93 1121 113 1124 c 1,5,6
 82 1137 82 1137 56.5 1152 c 128,-1,7
 31 1167 31 1167 6.5 1180 c 128,-1,8
 -18 1193 -18 1193 -43 1201.5 c 128,-1,9
 -68 1210 -68 1210 -96 1210 c 0,10,11
 -134 1210 -134 1210 -157 1198.5 c 128,-1,12
 -180 1187 -180 1187 -203 1171 c 1,13,14
 -217 1191 -217 1191 -217 1210 c 0,15,16
 -217 1245 -217 1245 -185 1267.5 c 128,-1,17
 -153 1290 -153 1290 -100 1290 c 0,18,19
 -31 1290 -31 1290 59 1241 c 0,20,21
 151 1191 151 1191 185 1179 c 128,-1,22
 219 1167 219 1167 264.5 1161 c 128,-1,23
 310 1155 310 1155 365 1153 c 1,24,-1
 328 1081 l 1,25,-1
 240 1094 l 1,26,27
 177 1092 177 1092 129.5 1075.5 c 128,-1,28
 82 1059 82 1059 25 1024 c 1,29,30
 -36 988 -36 988 -90.5 975.5 c 128,-1,31
 -145 963 -145 963 -283 963 c 1,32,-1
 -283 1036 l 1,0,1
EndSplineSet
EndChar
StartChar: uni06E2
Encoding: 1762 1762 505
Width: 0
GlyphClass: 4
Flags: W
AnchorPoint: "Anchor-4" 0 1520 basemark 0
AnchorPoint: "Anchor-4" 0 820 mark 0
AnchorPoint: "Anchor-2" 0 820 mark 0
AnchorPoint: "Anchor-0" 0 820 mark 0
LayerCount: 2
Fore
SplineSet
-86 852 m 1,0,1
 -105 831 -105 831 -150 799 c 1,2,3
 -150 901 -150 901 -157 966 c 128,-1,4
 -164 1031 -164 1031 -164 1073 c 0,5,6
 -164 1099 -164 1099 -131 1171 c 1,7,8
 -68 1189 -68 1189 -23 1195.5 c 128,-1,9
 22 1202 22 1202 80 1204 c 1,10,-1
 55 1237 l 1,11,12
 26 1277 26 1277 8.5 1294 c 128,-1,13
 -9 1311 -9 1311 -25 1311 c 0,14,15
 -43 1311 -43 1311 -60.5 1298 c 128,-1,16
 -78 1285 -78 1285 -104 1251 c 1,17,-1
 -135 1266 l 1,18,19
 -77 1397 -77 1397 -2 1397 c 0,20,21
 22 1397 22 1397 40 1379.5 c 128,-1,22
 58 1362 58 1362 76.5 1336 c 128,-1,23
 95 1310 95 1310 117.5 1279.5 c 128,-1,24
 140 1249 140 1249 172 1223 c 1,25,-1
 135 1124 l 1,26,27
 69 1124 69 1124 9 1118 c 128,-1,28
 -51 1112 -51 1112 -121 1087 c 1,29,30
 -119 1055 -119 1055 -104 986 c 1,31,32
 -91 919 -91 919 -86 852 c 1,0,1
EndSplineSet
EndChar
StartChar: uni06E3
Encoding: 1763 1763 506
Width: 0
GlyphClass: 4
Flags: W
AnchorPoint: "Anchor-5" 160 -460 basemark 0
AnchorPoint: "Anchor-5" 50 40 mark 0
AnchorPoint: "Anchor-3" 50 40 mark 0
AnchorPoint: "Anchor-1" 50 40 mark 0
LayerCount: 2
Fore
SplineSet
-240 -512 m 0,0,1
 -324 -512 -324 -512 -369 -464.5 c 128,-1,2
 -414 -417 -414 -417 -414 -332 c 0,3,4
 -414 -277 -414 -277 -395 -207 c 1,5,-1
 -360 -215 l 1,6,7
 -371 -254 -371 -254 -371 -283 c 0,8,9
 -371 -358 -371 -358 -333.5 -395 c 128,-1,10
 -296 -432 -296 -432 -238 -432 c 0,11,12
 -166 -432 -166 -432 -95.5 -397.5 c 128,-1,13
 -25 -363 -25 -363 0 -311 c 1,14,15
 -63 -180 -63 -180 -63 -127 c 0,16,17
 -63 -79 -63 -79 0 -41 c 1,18,19
 11 -113 11 -113 23 -160 c 1,20,21
 45 -168 45 -168 82 -168 c 0,22,23
 134 -168 134 -168 166 -158 c 1,24,-1
 177 -130 l 1,25,26
 200 -52 200 -52 214.5 -25.5 c 128,-1,27
 229 1 229 1 250 1 c 0,28,29
 264 1 264 1 274 -6 c 1,30,31
 261 -35 261 -35 231 -127 c 1,32,33
 314 -166 314 -166 401 -166 c 1,34,-1
 383 -108 l 1,35,-1
 365 -59 l 2,36,37
 346 -8 346 -8 346 4 c 0,38,39
 346 51 346 51 410 86 c 1,40,41
 419 30 419 30 432.5 -24 c 128,-1,42
 446 -78 446 -78 446 -123 c 0,43,44
 446 -138 446 -138 434.5 -177 c 128,-1,45
 423 -216 423 -216 410 -242 c 1,46,47
 355 -242 355 -242 308.5 -233.5 c 128,-1,48
 262 -225 262 -225 205 -199 c 1,49,-1
 197 -215 l 2,50,51
 190 -227 190 -227 154.5 -234.5 c 128,-1,52
 119 -242 119 -242 70 -242 c 2,53,-1
 53 -242 l 1,54,-1
 35 -240 l 1,55,-1
 37 -276 l 1,56,57
 37 -336 37 -336 -2.5 -391 c 128,-1,58
 -42 -446 -42 -446 -107.5 -479 c 128,-1,59
 -173 -512 -173 -512 -240 -512 c 0,0,1
EndSplineSet
EndChar
StartChar: uni06E5
Encoding: 1765 1765 508
Width: 0
GlyphClass: 2
Flags: W
LayerCount: 2
Fore
SplineSet
0 881 m 0,0,1
 -31 881 -31 881 -79.5 900 c 128,-1,2
 -128 919 -128 919 -154 942 c 1,3,-1
 -139 975 l 1,4,5
 -84 956 -84 956 -23 956 c 0,6,7
 50 956 50 956 102 1000 c 128,-1,8
 154 1044 154 1044 180 1124 c 1,9,-1
 178 1133 l 1,10,11
 108 1077 108 1077 37 1077 c 0,12,13
 -22 1077 -22 1077 -54 1110 c 128,-1,14
 -86 1143 -86 1143 -86 1202 c 0,15,16
 -86 1284 -86 1284 -44.5 1344.5 c 128,-1,17
 -3 1405 -3 1405 53 1405 c 0,18,19
 122 1405 122 1405 169.5 1330 c 128,-1,20
 217 1255 217 1255 217 1155 c 0,21,22
 217 1048 217 1048 153 964.5 c 128,-1,23
 89 881 89 881 0 881 c 0,0,1
61 1155 m 0,24,25
 124 1155 124 1155 170 1178 c 1,26,27
 155 1243 155 1243 119.5 1283 c 128,-1,28
 84 1323 84 1323 39 1323 c 0,29,30
 7 1323 7 1323 -21 1291.5 c 128,-1,31
 -49 1260 -49 1260 -49 1229 c 0,32,33
 -49 1194 -49 1194 -19.5 1174.5 c 128,-1,34
 10 1155 10 1155 61 1155 c 0,24,25
EndSplineSet
EndChar
StartChar: uni06E6
Encoding: 1766 1766 509
Width: 705
GlyphClass: 2
Flags: W
LayerCount: 2
Fore
SplineSet
346 963 m 0,0,1
 223 963 223 963 121.5 980 c 128,-1,2
 20 997 20 997 20 1014 c 0,3,4
 20 1035 20 1035 32 1075 c 128,-1,5
 44 1115 44 1115 51 1122 c 0,6,7
 81 1152 81 1152 131 1176 c 1,8,-1
 242 1217 l 1,9,10
 275 1235 275 1235 291 1266 c 1,11,-1
 322 1249 l 1,12,13
 309 1212 309 1212 290 1188 c 128,-1,14
 271 1164 271 1164 236 1153 c 1,15,16
 175 1136 175 1136 144 1122 c 128,-1,17
 113 1108 113 1108 66 1077 c 1,18,19
 158 1036 158 1036 358 1036 c 0,20,21
 434 1036 434 1036 523 1049.5 c 128,-1,22
 612 1063 612 1063 670 1081 c 1,23,24
 684 1064 684 1064 684 1049 c 0,25,26
 684 1027 684 1027 656.5 1009.5 c 128,-1,27
 629 992 629 992 535.5 977.5 c 128,-1,28
 442 963 442 963 346 963 c 0,0,1
EndSplineSet
EndChar
StartChar: uni06E7
Encoding: 1767 1767 510
Width: 0
GlyphClass: 4
Flags: W
AnchorPoint: "Anchor-4" -100 1380 basemark 0
AnchorPoint: "Anchor-4" 0 960 mark 0
AnchorPoint: "Anchor-2" 0 960 mark 0
AnchorPoint: "Anchor-0" 0 960 mark 0
LayerCount: 2
Fore
SplineSet
-16 963 m 0,0,1
 -139 963 -139 963 -240.5 980 c 128,-1,2
 -342 997 -342 997 -342 1014 c 0,3,4
 -342 1033 -342 1033 -331.5 1073 c 128,-1,5
 -321 1113 -321 1113 -311 1122 c 1,6,7
 -269 1167 -269 1167 -175 1197 c 0,8,9
 -118 1215 -118 1215 -100 1230 c 128,-1,10
 -82 1245 -82 1245 -72 1266 c 1,11,-1
 -41 1249 l 1,12,13
 -66 1172 -66 1172 -127 1153 c 1,14,15
 -184 1137 -184 1137 -214 1124 c 128,-1,16
 -244 1111 -244 1111 -297 1077 c 1,17,18
 -208 1036 -208 1036 -4 1036 c 0,19,20
 70 1036 70 1036 158 1049.5 c 128,-1,21
 246 1063 246 1063 307 1081 c 1,22,23
 321 1064 321 1064 321 1048 c 0,24,25
 321 1024 321 1024 288.5 1007 c 128,-1,26
 256 990 256 990 164 976.5 c 128,-1,27
 72 963 72 963 -16 963 c 0,0,1
EndSplineSet
EndChar
StartChar: uni06E9
Encoding: 1769 1769 736
Width: 1229
GlyphClass: 2
Flags: W
LayerCount: 2
Fore
SplineSet
1180 0 m 1,0,-1
 49 0 l 1,1,-1
 279 260 l 1,2,-1
 279 850 l 1,3,-1
 49 1108 l 1,4,-1
 614 1675 l 1,5,-1
 1180 1108 l 1,6,-1
 950 850 l 1,7,-1
 950 260 l 1,8,-1
 1180 0 l 1,0,-1
1102 1108 m 1,9,-1
 614 1597 l 1,10,-1
 127 1108 l 1,11,-1
 338 870 l 1,12,-1
 338 240 l 1,13,-1
 178 55 l 1,14,-1
 1051 55 l 1,15,-1
 891 240 l 1,16,-1
 891 870 l 1,17,-1
 1102 1108 l 1,9,-1
995 1108 m 1,18,-1
 846 938 l 1,19,-1
 846 131 l 1,20,-1
 383 131 l 1,21,-1
 383 938 l 1,22,-1
 233 1108 l 1,23,-1
 614 1489 l 1,24,-1
 995 1108 l 1,18,-1
922 1108 m 1,25,-1
 614 1415 l 1,26,-1
 307 1108 l 1,27,-1
 432 969 l 1,28,-1
 432 186 l 1,29,-1
 797 186 l 1,30,-1
 797 969 l 1,31,-1
 922 1108 l 1,25,-1
834 1108 m 1,32,-1
 745 1012 l 1,33,-1
 745 266 l 1,34,-1
 483 266 l 1,35,-1
 483 1012 l 1,36,-1
 395 1108 l 1,37,-1
 614 1331 l 1,38,-1
 834 1108 l 1,32,-1
780 1108 m 1,39,-1
 614 1278 l 1,40,-1
 449 1108 l 1,41,-1
 522 1026 l 1,42,-1
 522 309 l 1,43,-1
 705 309 l 1,44,-1
 705 1026 l 1,45,-1
 780 1108 l 1,39,-1
EndSplineSet
EndChar
StartChar: uni06EB
Encoding: 1771 1771 513
Width: 0
GlyphClass: 4
Flags: W
AnchorPoint: "Anchor-4" 0 1460 basemark 0
AnchorPoint: "Anchor-4" 0 1040 mark 0
AnchorPoint: "Anchor-2" 0 1040 mark 0
AnchorPoint: "Anchor-0" 0 1040 mark 0
LayerCount: 2
Fore
SplineSet
168 1157 m 1,0,-1
 0 989 l 1,1,-1
 -168 1157 l 1,2,-1
 0 1325 l 1,3,-1
 168 1157 l 1,0,-1
104 1157 m 1,4,-1
 0 1260 l 1,5,-1
 -104 1157 l 1,6,-1
 0 1053 l 1,7,-1
 104 1157 l 1,4,-1
EndSplineSet
EndChar
StartChar: uni06ED
Encoding: 1773 1773 514
Width: 0
GlyphClass: 4
Flags: W
AnchorPoint: "Anchor-5" 20 -660 basemark 0
AnchorPoint: "Anchor-5" -30 -100 mark 0
AnchorPoint: "Anchor-3" -30 -100 mark 0
AnchorPoint: "Anchor-1" -30 -100 mark 0
LayerCount: 2
Fore
SplineSet
-86 -643 m 1,0,1
 -105 -664 -105 -664 -150 -696 c 1,2,3
 -150 -594 -150 -594 -157 -529 c 128,-1,4
 -164 -464 -164 -464 -164 -422 c 0,5,6
 -164 -396 -164 -396 -131 -324 c 1,7,8
 -60 -303 -60 -303 -20 -297 c 128,-1,9
 20 -291 20 -291 80 -291 c 1,10,-1
 55 -258 l 1,11,12
 26 -218 26 -218 8.5 -201 c 128,-1,13
 -9 -184 -9 -184 -25 -184 c 0,14,15
 -43 -184 -43 -184 -60.5 -197 c 128,-1,16
 -78 -210 -78 -210 -104 -244 c 1,17,-1
 -135 -229 l 1,18,19
 -77 -98 -77 -98 -2 -98 c 0,20,21
 22 -98 22 -98 40 -115.5 c 128,-1,22
 58 -133 58 -133 76.5 -159 c 128,-1,23
 95 -185 95 -185 117.5 -215.5 c 128,-1,24
 140 -246 140 -246 172 -272 c 1,25,-1
 135 -371 l 1,26,27
 69 -371 69 -371 9 -377 c 128,-1,28
 -51 -383 -51 -383 -121 -408 c 1,29,30
 -118 -439 -118 -439 -104 -508 c 0,31,32
 -91 -575 -91 -575 -86 -643 c 1,0,1
EndSplineSet
EndChar
StartChar: uni06F6
Encoding: 1782 1782 77
Width: 1069
GlyphClass: 2
Flags: W
LayerCount: 2
Fore
SplineSet
143 96 m 1,0,1
 219 243 219 243 270.5 327.5 c 128,-1,2
 322 412 322 412 384 491.5 c 128,-1,3
 446 571 446 571 463 588 c 1,4,5
 330 620 330 620 247 703 c 128,-1,6
 164 786 164 786 164 891 c 0,7,8
 164 1007 164 1007 211 1116.5 c 128,-1,9
 258 1226 258 1226 335 1286 c 128,-1,10
 412 1346 412 1346 506 1346 c 0,11,12
 587 1346 587 1346 664 1307 c 128,-1,13
 741 1268 741 1268 854 1171 c 1,14,-1
 809 1087 l 1,15,16
 710 1126 710 1126 666.5 1134.5 c 128,-1,17
 623 1143 623 1143 569 1143 c 0,18,19
 486 1143 486 1143 421 1124 c 128,-1,20
 356 1105 356 1105 291 1059 c 1,21,22
 291 783 291 783 659 768 c 1,23,24
 784 856 784 856 971 942 c 1,25,26
 982 927 982 927 989.5 893 c 128,-1,27
 997 859 997 859 997 836 c 0,28,29
 997 768 997 768 857 676 c 0,30,31
 804 641 804 641 700.5 563 c 128,-1,32
 597 485 597 485 524 410.5 c 128,-1,33
 451 336 451 336 380 237 c 128,-1,34
 309 138 309 138 215 -20 c 1,35,-1
 143 96 l 1,0,1
EndSplineSet
Substitution2: "'locl' Localized Forms in Arabic lookup 1 subtable" uni0666
EndChar
StartChar: uni076A
Encoding: 1898 1898 670
Width: 1528
GlyphClass: 2
Flags: W
AnchorPoint: "Anchor-1" 630 -840 basechar 0
AnchorPoint: "Anchor-0" 460 1400 basechar 0
LayerCount: 2
Fore
SplineSet
705 995 m 1,0,-1
 1012 995 l 1,1,2
 966 1309 966 1309 966 1405 c 0,3,4
 966 1485 966 1485 1002.5 1532 c 128,-1,5
 1039 1579 1039 1579 1124 1597 c 1,6,7
 1130 1574 1130 1574 1135.5 1554 c 128,-1,8
 1141 1534 1141 1534 1210 1311 c 1,9,-1
 1153 1262 l 1,10,-1
 1184 995 l 1,11,-1
 1384 995 l 1,12,-1
 1384 879 l 1,13,-1
 1196 879 l 1,14,-1
 1231 564 l 1,15,16
 1290 81 1290 81 1290 -106 c 0,17,18
 1290 -251 1290 -251 1197.5 -386 c 128,-1,19
 1105 -521 1105 -521 941 -608.5 c 128,-1,20
 777 -696 777 -696 600 -696 c 0,21,22
 394 -696 394 -696 279 -577.5 c 128,-1,23
 164 -459 164 -459 164 -244 c 0,24,25
 164 -169 164 -169 172.5 -112.5 c 128,-1,26
 181 -56 181 -56 211 68 c 1,27,-1
 299 47 l 1,28,29
 272 -56 272 -56 272 -125 c 0,30,31
 272 -303 272 -303 360.5 -400.5 c 128,-1,32
 449 -498 449 -498 606 -498 c 0,33,34
 721 -498 721 -498 843.5 -459 c 128,-1,35
 966 -420 966 -420 1063 -350 c 128,-1,36
 1160 -280 1160 -280 1200 -197 c 1,37,38
 1155 108 1155 108 1087 512 c 0,39,40
 1048 740 1048 740 1028 879 c 1,41,-1
 705 879 l 1,42,-1
 705 995 l 1,0,-1
EndSplineSet
Substitution2: "'medi' Medial Forms in Arabic lookup 5 subtable" uni076A.medi
Substitution2: "'init' Initial Forms in Arabic lookup 4 subtable" uni076A.init
Substitution2: "'fina' Terminal Forms in Arabic lookup 3 subtable" uni076A.fina
EndChar
StartChar: uni25CC
Encoding: 9676 9676 750
Width: 1217
GlyphClass: 2
Flags: W
AnchorPoint: "Anchor-1" 615 -80 basechar 0
AnchorPoint: "Anchor-0" 600 1300 basechar 0
LayerCount: 2
Fore
SplineSet
980 918 m 256,0,1
 980 868 980 868 932 868 c 0,2,3
 880 868 880 868 880 918 c 256,4,5
 880 968 880 968 932 968 c 0,6,7
 980 968 980 968 980 918 c 256,0,1
832 1016 m 0,8,9
 832 967 832 967 784 967 c 0,10,11
 732 967 732 967 732 1016 c 0,12,13
 732 1067 732 1067 784 1067 c 0,14,15
 832 1067 832 1067 832 1016 c 0,8,9
1079 770 m 0,16,17
 1079 719 1079 719 1028 719 c 0,18,19
 979 719 979 719 979 770 c 0,20,21
 979 819 979 819 1030 819 c 0,22,23
 1079 819 1079 819 1079 770 c 0,16,17
1115 596 m 256,24,25
 1115 546 1115 546 1067 546 c 0,26,27
 1015 546 1015 546 1015 596 c 256,28,29
 1015 646 1015 646 1067 646 c 0,30,31
 1115 646 1115 646 1115 596 c 256,24,25
658 1053 m 0,32,33
 658 1002 658 1002 608 1002 c 256,34,35
 558 1002 558 1002 558 1053 c 0,36,37
 558 1102 558 1102 608 1102 c 256,38,39
 658 1102 658 1102 658 1053 c 0,32,33
485 1016 m 0,40,41
 485 967 485 967 434 967 c 0,42,43
 385 967 385 967 385 1016 c 0,44,45
 385 1067 385 1067 434 1067 c 0,46,47
 485 1067 485 1067 485 1016 c 0,40,41
1079 422 m 0,48,49
 1079 373 1079 373 1028 373 c 0,50,51
 979 373 979 373 979 422 c 0,52,53
 979 473 979 473 1028 473 c 0,54,55
 1079 473 1079 473 1079 422 c 0,48,49
337 918 m 256,56,57
 337 868 337 868 287 868 c 256,58,59
 237 868 237 868 237 915 c 0,60,61
 237 968 237 968 287 968 c 256,62,63
 337 968 337 968 337 918 c 256,56,57
980 272 m 0,64,65
 980 223 980 223 932 223 c 0,66,67
 880 223 880 223 880 272 c 0,68,69
 880 323 880 323 932 323 c 0,70,71
 980 323 980 323 980 272 c 0,64,65
832 174 m 0,72,73
 832 126 832 126 784 126 c 0,74,75
 732 126 732 126 732 174 c 0,76,77
 732 226 732 226 784 226 c 0,78,79
 832 226 832 226 832 174 c 0,72,73
238 770 m 0,80,81
 238 719 238 719 190 719 c 0,82,83
 138 719 138 719 138 770 c 0,84,85
 138 819 138 819 188 819 c 256,86,87
 238 819 238 819 238 770 c 0,80,81
202 596 m 1,88,89
 203 546 203 546 154 546 c 0,90,91
 102 546 102 546 102 596 c 256,92,93
 102 646 102 646 154 646 c 0,94,95
 203 646 203 646 202 596 c 1,88,89
658 141 m 0,96,97
 658 90 658 90 608 90 c 256,98,99
 558 90 558 90 558 141 c 0,100,101
 558 190 558 190 608 190 c 256,102,103
 658 190 658 190 658 141 c 0,96,97
238 422 m 0,104,105
 238 373 238 373 188 373 c 256,106,107
 138 373 138 373 138 422 c 0,108,109
 138 473 138 473 188 473 c 256,110,111
 238 473 238 473 238 422 c 0,104,105
485 178 m 0,112,113
 485 126 485 126 434 126 c 0,114,115
 385 126 385 126 385 174 c 0,116,117
 385 226 385 226 434 226 c 0,118,119
 485 226 485 226 485 178 c 0,112,113
337 272 m 0,120,121
 337 223 337 223 287 223 c 256,122,123
 237 223 237 223 237 272 c 0,124,125
 237 323 237 323 287 323 c 256,126,127
 337 323 337 323 337 272 c 0,120,121
EndSplineSet
EndChar
StartChar: uni06A9.fina
Encoding: 64399 64399 84
Width: 1870
GlyphClass: 2
Flags: W
AnchorPoint: "Anchor-1" 700 -348 basechar 0
AnchorPoint: "Anchor-0" 900 1585 basechar 0
LayerCount: 2
Fore
SplineSet
705 -20 m 0,0,1
 422 -20 422 -20 293 65.5 c 128,-1,2
 164 151 164 151 164 328 c 0,3,4
 164 404 164 404 207 502 c 1,5,-1
 285 473 l 1,6,7
 272 408 272 408 272 375 c 0,8,9
 272 265 272 265 376 214.5 c 128,-1,10
 480 164 480 164 721 164 c 0,11,12
 844 164 844 164 963 189.5 c 128,-1,13
 1082 215 1082 215 1143 252 c 1,14,15
 1109 416 1109 416 1010 547 c 1,16,17
 903 674 903 674 834.5 794 c 128,-1,18
 766 914 766 914 766 979 c 0,19,20
 766 1042 766 1042 789 1082.5 c 128,-1,21
 812 1123 812 1123 870 1155 c 0,22,23
 1012 1234 1012 1234 1159.5 1302 c 128,-1,24
 1307 1370 1307 1370 1763 1556 c 1,25,26
 1782 1540 1782 1540 1791.5 1514 c 128,-1,27
 1801 1488 1801 1488 1801 1465 c 1,28,-1
 1799 1444 l 1,29,30
 1787 1359 1787 1359 1698 1323 c 2,31,-1
 1466 1229 l 2,32,33
 1062 1065 1062 1065 852 971 c 1,34,35
 1042 739 1042 739 1171 605.5 c 128,-1,36
 1300 472 1300 472 1434 360.5 c 128,-1,37
 1568 249 1568 249 1674.5 206.5 c 128,-1,38
 1781 164 1781 164 1890 164 c 0,39,40
 1911 164 1911 164 1911 143 c 2,41,-1
 1911 0 l 2,42,43
 1911 -20 1911 -20 1890 -20 c 0,44,45
 1754 -20 1754 -20 1646 18 c 128,-1,46
 1538 56 1538 56 1427 144.5 c 128,-1,47
 1316 233 1316 233 1235 309 c 1,48,49
 1235 208 1235 208 1178 113 c 1,50,51
 1081 52 1081 52 951.5 16 c 128,-1,52
 822 -20 822 -20 705 -20 c 0,0,1
EndSplineSet
Colour: ffff00
EndChar
StartChar: uni06BA.fina
Encoding: 64415 64415 90
Width: 1411
GlyphClass: 2
Flags: W
AnchorPoint: "Anchor-1" 640 -800 basechar 0
AnchorPoint: "Anchor-0" 650 540 basechar 0
LayerCount: 2
Fore
SplineSet
1432 -20 m 0,0,1
 1350 -20 1350 -20 1282 12 c 1,2,3
 1290 -65 1290 -65 1290 -106 c 0,4,5
 1290 -251 1290 -251 1197.5 -386 c 128,-1,6
 1105 -521 1105 -521 941 -608.5 c 128,-1,7
 777 -696 777 -696 600 -696 c 0,8,9
 394 -696 394 -696 279 -577.5 c 128,-1,10
 164 -459 164 -459 164 -244 c 0,11,12
 164 -169 164 -169 172.5 -112.5 c 128,-1,13
 181 -56 181 -56 211 68 c 1,14,-1
 299 47 l 1,15,16
 272 -56 272 -56 272 -125 c 0,17,18
 272 -303 272 -303 360.5 -400.5 c 128,-1,19
 449 -498 449 -498 606 -498 c 0,20,21
 721 -498 721 -498 843.5 -459 c 128,-1,22
 966 -420 966 -420 1063 -350 c 128,-1,23
 1160 -280 1160 -280 1200 -197 c 1,24,25
 1042 149 1042 149 1042 264 c 0,26,27
 1042 390 1042 390 1200 479 c 1,28,29
 1208 415 1208 415 1247 209 c 1,30,31
 1297 181 1297 181 1340.5 172.5 c 128,-1,32
 1384 164 1384 164 1432 164 c 0,33,34
 1452 164 1452 164 1452 143 c 2,35,-1
 1452 0 l 2,36,37
 1452 -20 1452 -20 1432 -20 c 0,0,1
EndSplineSet
EndChar
StartChar: uni06C1.init
Encoding: 64424 64424 78
Width: 664
GlyphClass: 2
Flags: W
AnchorPoint: "Anchor-1" 436 -580 basechar 0
AnchorPoint: "Anchor-0" 300 1000 basechar 0
LayerCount: 2
Fore
SplineSet
418 -492 m 1,0,1
 362 -486 362 -486 329.5 -448 c 128,-1,2
 297 -410 297 -410 297 -360 c 0,3,4
 297 -275 297 -275 337 -185 c 128,-1,5
 377 -95 377 -95 455 8 c 1,6,-1
 528 -37 l 1,7,8
 442 -156 442 -156 442 -252 c 0,9,10
 442 -289 442 -289 468 -312.5 c 128,-1,11
 494 -336 494 -336 553 -354 c 1,12,13
 534 -394 534 -394 508.5 -423.5 c 128,-1,14
 483 -453 483 -453 456.5 -472.5 c 128,-1,15
 430 -492 430 -492 418 -492 c 1,0,1
0 -20 m 0,16,17
 -20 -20 -20 -20 -20 0 c 2,18,-1
 -20 143 l 2,19,20
 -20 164 -20 164 0 164 c 0,21,22
 107 164 107 164 223 187.5 c 128,-1,23
 339 211 339 211 426 252 c 1,24,25
 397 359 397 359 339 516 c 0,26,27
 293 640 293 640 293 678 c 0,28,29
 293 733 293 733 337 788 c 128,-1,30
 381 843 381 843 451 881 c 1,31,32
 461 811 461 811 476.5 741.5 c 128,-1,33
 492 672 492 672 506.5 605 c 128,-1,34
 521 538 521 538 531 475.5 c 128,-1,35
 541 413 541 413 541 358 c 0,36,37
 541 281 541 281 457 113 c 1,38,39
 234 -20 234 -20 0 -20 c 0,16,17
EndSplineSet
EndChar
StartChar: uni06C1.medi
Encoding: 64425 64425 79
Width: 952
GlyphClass: 2
Flags: W
AnchorPoint: "Anchor-1" 667 -600 basechar 0
AnchorPoint: "Anchor-0" 500 560 basechar 0
LayerCount: 2
Fore
SplineSet
463 -547 m 1,0,1
 311 -432 311 -432 226.5 -283.5 c 128,-1,2
 142 -135 142 -135 135 16 c 1,3,4
 105 0 105 0 63 -10 c 128,-1,5
 21 -20 21 -20 0 -20 c 0,6,7
 -20 -20 -20 -20 -20 0 c 2,8,-1
 -20 143 l 2,9,10
 -20 164 -20 164 0 164 c 0,11,12
 62 164 62 164 87 170 c 128,-1,13
 112 176 112 176 131 189.5 c 128,-1,14
 150 203 150 203 160 227 c 0,15,16
 192 304 192 304 253 304 c 0,17,18
 296 304 296 304 330 262 c 1,19,20
 320 240 320 240 312.5 195.5 c 128,-1,21
 305 151 305 151 305 121 c 0,22,23
 305 7 305 7 355 -108.5 c 128,-1,24
 405 -224 405 -224 502 -328 c 1,25,26
 520 -205 520 -205 545.5 -132 c 128,-1,27
 571 -59 571 -59 610.5 -9.5 c 128,-1,28
 650 40 650 40 705 82 c 128,-1,29
 760 124 760 124 824 144 c 128,-1,30
 888 164 888 164 967 164 c 0,31,32
 993 164 993 164 993 139 c 2,33,-1
 993 6 l 2,34,35
 993 -20 993 -20 967 -20 c 0,36,37
 846 -20 846 -20 786 -28 c 128,-1,38
 726 -36 726 -36 686 -53 c 1,39,40
 651 -132 651 -132 642 -228.5 c 128,-1,41
 633 -325 633 -325 633 -436 c 1,42,-1
 463 -547 l 1,0,1
825 -547 m 1,43,44
 769 -541 769 -541 737 -503 c 128,-1,45
 705 -465 705 -465 705 -416 c 0,46,47
 705 -328 705 -328 742 -246.5 c 128,-1,48
 779 -165 779 -165 852 -70 c 1,49,-1
 926 -115 l 1,50,51
 850 -218 850 -218 850 -307 c 0,52,53
 850 -344 850 -344 876 -367.5 c 128,-1,54
 902 -391 902 -391 961 -410 c 1,55,56
 942 -450 942 -450 916.5 -479 c 128,-1,57
 891 -508 891 -508 863.5 -527.5 c 128,-1,58
 836 -547 836 -547 825 -547 c 1,43,44
EndSplineSet
EndChar
StartChar: uni06BE.fina
Encoding: 64427 64427 244
Width: 1163
GlyphClass: 2
Flags: W
AnchorPoint: "Anchor-1" 740 -620 basechar 0
AnchorPoint: "Anchor-0" 700 1200 basechar 0
LayerCount: 2
Fore
SplineSet
979 471 m 0,0,1
 979 302 979 302 864 189.5 c 128,-1,2
 749 77 749 77 524 20 c 1,3,4
 559 -163 559 -163 713 -328 c 1,5,6
 731 -205 731 -205 756.5 -132 c 128,-1,7
 782 -59 782 -59 821.5 -9.5 c 128,-1,8
 861 40 861 40 916 82 c 128,-1,9
 971 124 971 124 1035 144 c 128,-1,10
 1099 164 1099 164 1178 164 c 0,11,12
 1204 164 1204 164 1204 139 c 2,13,-1
 1204 6 l 2,14,15
 1204 -20 1204 -20 1178 -20 c 0,16,17
 1057 -20 1057 -20 997 -28 c 128,-1,18
 937 -36 937 -36 897 -53 c 1,19,20
 862 -132 862 -132 853 -228.5 c 128,-1,21
 844 -325 844 -325 844 -436 c 1,22,-1
 674 -547 l 1,23,24
 537 -443 537 -443 452 -304.5 c 128,-1,25
 367 -166 367 -166 350 -12 c 1,26,27
 285 -22 285 -22 217.5 -32.5 c 128,-1,28
 150 -43 150 -43 76 -68 c 1,29,-1
 41 4 l 1,30,31
 154 102 154 102 352 154 c 1,32,33
 371 371 371 371 479 569.5 c 128,-1,34
 587 768 587 768 821 1001 c 1,35,-1
 905 975 l 1,36,37
 912 880 912 880 949 715 c 1,38,39
 979 576 979 576 979 471 c 0,0,1
766 758 m 1,40,41
 631 563 631 563 578 431.5 c 128,-1,42
 525 300 525 300 518 174 c 1,43,44
 616 186 616 186 691.5 215.5 c 128,-1,45
 767 245 767 245 848 301 c 1,46,-1
 826 423 l 1,47,48
 795 560 795 560 782.5 627 c 128,-1,49
 770 694 770 694 766 758 c 1,40,41
EndSplineSet
EndChar
StartChar: uniFD3E
Encoding: 64830 64830 745
Width: 1206
GlyphClass: 2
Flags: W
LayerCount: 2
Fore
SplineSet
1061 1608 m 1,0,-1
 1001 1587 l 2,1,2
 937 1565 937 1565 906 1515 c 128,-1,3
 875 1465 875 1465 860 1352 c 2,4,-1
 799 866 l 2,5,6
 795 832 795 832 722 709 c 1,7,-1
 698 666 l 1,8,9
 638 623 638 623 585 596 c 128,-1,10
 532 569 532 569 508 569 c 0,11,12
 428 569 428 569 379 682 c 1,13,14
 478 706 478 706 527.5 724 c 128,-1,15
 577 742 577 742 657 786 c 1,16,17
 657 1229 657 1229 674 1362 c 1,18,19
 686 1470 686 1470 742.5 1540.5 c 128,-1,20
 799 1611 799 1611 905 1647 c 2,21,-1
 1032 1690 l 1,22,-1
 1061 1608 l 1,0,-1
348 682 m 1,23,24
 295 603 295 603 193 506 c 1,25,26
 92 585 92 585 20 664 c 1,27,28
 111 751 111 751 188 840 c 1,29,30
 271 749 271 749 348 682 c 1,23,24
711 590 m 1,31,32
 764 496 764 496 791 403.5 c 128,-1,33
 818 311 818 311 835 165 c 2,34,-1
 860 -43 l 1,35,36
 875 -158 875 -158 906.5 -208 c 128,-1,37
 938 -258 938 -258 1001 -279 c 2,38,-1
 1061 -299 l 1,39,-1
 1032 -381 l 1,40,-1
 905 -338 l 2,41,42
 798 -301 798 -301 741.5 -230.5 c 128,-1,43
 685 -160 685 -160 674 -53 c 1,44,45
 658 65 658 65 653 334 c 1,46,47
 650 423 650 423 646.5 457.5 c 128,-1,48
 643 492 643 492 635 545 c 1,49,-1
 711 590 l 1,31,32
1104 -483 m 1,50,51
 1085 -514 1085 -514 1032 -563 c 1,52,53
 979 -520 979 -520 954 -492 c 1,54,55
 991 -458 991 -458 1032 -412 c 1,56,-1
 1104 -483 l 1,50,51
1104 1800 m 1,57,58
 1085 1769 1085 1769 1032 1720 c 1,59,60
 977 1764 977 1764 954 1792 c 1,61,62
 991 1826 991 1826 1032 1872 c 1,63,-1
 1069 1834 l 1,64,-1
 1104 1800 l 1,57,58
EndSplineSet
EndChar
StartChar: allah
Encoding: 65010 65010 562
Width: 2746
GlyphClass: 3
Flags: W
AnchorPoint: "Anchor-3" 2480 -120 baselig 0
AnchorPoint: "Anchor-2" 2557 1780 baselig 0
AnchorPoint: "Anchor-3" 1780 -160 baselig 1
AnchorPoint: "Anchor-2" 1925 1680 baselig 1
AnchorPoint: "Anchor-3" 1130 -160 baselig 2
AnchorPoint: "Anchor-2" 1230 2440 baselig 2
AnchorPoint: "Anchor-3" 480 -160 baselig 3
AnchorPoint: "Anchor-2" 420 1240 baselig 3
LayerCount: 2
Fore
SplineSet
672 121 m 1,0,1
 548 131 548 131 479 147 c 128,-1,2
 410 163 410 163 329 202 c 128,-1,3
 248 241 248 241 206 277.5 c 128,-1,4
 164 314 164 314 164 344 c 0,5,6
 164 375 164 375 195.5 450.5 c 128,-1,7
 227 526 227 526 250 567 c 0,8,9
 285 632 285 632 402.5 717 c 128,-1,10
 520 802 520 802 664 862 c 1,11,-1
 651 963 l 1,12,13
 699 1009 699 1009 742.5 1038 c 128,-1,14
 786 1067 786 1067 834 1098 c 1,15,16
 843 687 843 687 855 379 c 1,17,-1
 860 225 l 1,18,19
 969 164 969 164 1110 164 c 0,20,21
 1245 164 1245 164 1372 225 c 1,22,23
 1298 842 1298 842 1278 1167 c 1,24,25
 1346 1238 1346 1238 1440 1303 c 1,26,27
 1452 1020 1452 1020 1458 724 c 2,28,-1
 1468 225 l 1,29,30
 1577 164 1577 164 1714 164 c 2,31,-1
 1720 164 l 2,32,33
 1868 164 1868 164 1987 227 c 1,34,35
 1940 834 1940 834 1866 1462 c 1,36,37
 1937 1537 1937 1537 2028 1597 c 1,38,39
 2035 1408 2035 1408 2045.5 1240 c 128,-1,40
 2056 1072 2056 1072 2065.5 915.5 c 128,-1,41
 2075 759 2075 759 2082 609 c 128,-1,42
 2089 459 2089 459 2091 305 c 1,43,44
 2091 221 2091 221 2007 63 c 1,45,46
 1961 -20 1961 -20 1720 -20 c 0,47,48
 1534 -20 1534 -20 1444 66 c 1,49,50
 1358 18 1358 18 1288.5 -1 c 128,-1,51
 1219 -20 1219 -20 1114 -20 c 2,52,-1
 1104 -20 l 1,53,54
 960 -18 960 -18 872 36 c 128,-1,55
 784 90 784 90 768 190 c 2,56,-1
 754 276 l 1,57,-1
 672 121 l 1,0,1
2558 1255 m 1,58,59
 2572 849 2572 849 2572 782 c 0,60,61
 2572 379 2572 379 2556 0 c 1,62,-1
 2445 -20 l 1,63,64
 2435 654 2435 654 2391 1237 c 1,65,-1
 2378 1415 l 1,66,67
 2378 1490 2378 1490 2416 1535 c 128,-1,68
 2454 1580 2454 1580 2537 1597 c 1,69,70
 2543 1574 2543 1574 2548.5 1554 c 128,-1,71
 2554 1534 2554 1534 2623 1311 c 1,72,-1
 2558 1255 l 1,58,59
748 317 m 1,73,-1
 686 707 l 1,74,75
 400 605 400 605 281 455 c 1,76,77
 343 407 343 407 398 379.5 c 128,-1,78
 453 352 453 352 542 336 c 128,-1,79
 631 320 631 320 748 317 c 1,73,-1
1532 1800 m 1,80,81
 1556 1754 1556 1754 1568.5 1703 c 128,-1,82
 1581 1652 1581 1652 1581 1618 c 0,83,84
 1581 1553 1581 1553 1539 1500.5 c 128,-1,85
 1497 1448 1497 1448 1434 1448 c 0,86,87
 1411 1448 1411 1448 1383.5 1459 c 128,-1,88
 1356 1470 1356 1470 1339 1493 c 1,89,90
 1318 1442 1318 1442 1281 1415.5 c 128,-1,91
 1244 1389 1244 1389 1204 1389 c 0,92,93
 1150 1389 1150 1389 1115.5 1423 c 128,-1,94
 1081 1457 1081 1457 1081 1522 c 0,95,96
 1081 1543 1081 1543 1089 1579 c 128,-1,97
 1097 1615 1097 1615 1114 1647 c 1,98,-1
 1155 1638 l 1,99,100
 1145 1595 1145 1595 1145 1567 c 0,101,102
 1145 1491 1145 1491 1210 1491 c 0,103,104
 1241 1491 1241 1491 1261.5 1513.5 c 128,-1,105
 1282 1536 1282 1536 1282 1573 c 1,106,-1
 1278 1667 l 1,107,-1
 1341 1708 l 1,108,109
 1354 1612 1354 1612 1380 1581 c 128,-1,110
 1406 1550 1406 1550 1454 1550 c 0,111,112
 1471 1550 1471 1550 1486.5 1561 c 128,-1,113
 1502 1572 1502 1572 1507 1583 c 1,114,115
 1500 1617 1500 1617 1464 1694 c 0,116,117
 1459 1706 1459 1706 1459 1718 c 0,118,119
 1459 1743 1459 1743 1481.5 1768 c 128,-1,120
 1504 1793 1504 1793 1532 1800 c 1,80,81
1303 2370 m 1,121,122
 1328 2228 1328 2228 1334.5 2155 c 128,-1,123
 1341 2082 1341 2082 1341 1982 c 0,124,125
 1341 1853 1341 1853 1274 1761 c 1,126,-1
 1260 1765 l 1,127,128
 1260 1986 1260 1986 1215 2166 c 0,129,130
 1206 2199 1206 2199 1206 2224 c 0,131,132
 1206 2275 1206 2275 1232.5 2314.5 c 128,-1,133
 1259 2354 1259 2354 1303 2370 c 1,121,122
EndSplineSet
Ligature2: "'liga' Standard Ligatures in Arabic lookup 7 subtable" uni0627 uni0644.init uni0644.medi uni06C1.fina
Ligature2: "'liga' Standard Ligatures in Arabic lookup 7 subtable" uni0627 uni0644.init uni0644.medi uni0647.fina
EndChar
StartChar: riyal
Encoding: 65020 65020 563
Width: 2376
GlyphClass: 3
Flags: W
AnchorPoint: "Anchor-3" 2400 -540 baselig 0
AnchorPoint: "Anchor-2" 2070 1480 baselig 0
AnchorPoint: "Anchor-3" 1848 -600 baselig 1
AnchorPoint: "Anchor-2" 1600 1900 baselig 1
AnchorPoint: "Anchor-3" 1230 -600 baselig 2
AnchorPoint: "Anchor-2" 1020 1790 baselig 2
AnchorPoint: "Anchor-3" 540 -700 baselig 3
AnchorPoint: "Anchor-2" 640 1070 baselig 3
LayerCount: 2
Fore
SplineSet
1872 -20 m 0,0,1
 1774 -20 1774 -20 1692 44 c 128,-1,2
 1610 108 1610 108 1602 190 c 1,3,4
 1571 447 1571 447 1542 864 c 1,5,6
 1457 767 1457 767 1329 561 c 1,7,8
 1345 441 1345 441 1358.5 283.5 c 128,-1,9
 1372 126 1372 126 1372 37 c 0,10,11
 1372 -108 1372 -108 1279.5 -243 c 128,-1,12
 1187 -378 1187 -378 1023 -465.5 c 128,-1,13
 859 -553 859 -553 682 -553 c 0,14,15
 475 -553 475 -553 360.5 -433.5 c 128,-1,16
 246 -314 246 -314 246 -100 c 0,17,18
 246 -22 246 -22 257.5 57 c 128,-1,19
 269 136 269 136 309 291 c 1,20,-1
 397 270 l 1,21,22
 354 105 354 105 354 18 c 0,23,24
 354 -159 354 -159 442.5 -256.5 c 128,-1,25
 531 -354 531 -354 688 -354 c 0,26,27
 803 -354 803 -354 925.5 -315 c 128,-1,28
 1048 -276 1048 -276 1145 -206 c 128,-1,29
 1242 -136 1242 -136 1282 -53 c 1,30,-1
 1214 383 l 1,31,32
 1093 209 1093 209 995.5 136 c 128,-1,33
 898 63 898 63 809 63 c 0,34,35
 667 63 667 63 591.5 170.5 c 128,-1,36
 516 278 516 278 516 487 c 0,37,38
 516 590 516 590 540.5 695 c 128,-1,39
 565 800 565 800 616 922 c 1,40,-1
 702 897 l 1,41,42
 629 703 629 703 629 569 c 0,43,44
 629 276 629 276 786 276 c 0,45,46
 842 276 842 276 897 307.5 c 128,-1,47
 952 339 952 339 1011 399.5 c 128,-1,48
 1070 460 1070 460 1178 606 c 1,49,50
 1159 687 1159 687 1103.5 1070.5 c 128,-1,51
 1048 1454 1048 1454 1048 1549 c 0,52,53
 1048 1631 1048 1631 1086 1677.5 c 128,-1,54
 1124 1724 1124 1724 1206 1741 c 1,55,56
 1229 1650 1229 1650 1249 1590 c 2,57,-1
 1292 1454 l 1,58,-1
 1235 1405 l 1,59,60
 1266 1151 1266 1151 1305 780 c 1,61,62
 1332 820 1332 820 1420.5 930 c 128,-1,63
 1509 1040 1509 1040 1528 1055 c 1,64,-1
 1493 1645 l 1,65,66
 1558 1713 1558 1713 1655 1780 c 1,67,68
 1667 1506 1667 1506 1673 1192 c 1,69,70
 1742 1246 1742 1246 1811 1271 c 128,-1,71
 1880 1296 1880 1296 1962 1296 c 0,72,73
 2047 1296 2047 1296 2102 1244 c 128,-1,74
 2157 1192 2157 1192 2157 1112 c 0,75,76
 2157 1071 2157 1071 2135 1031 c 128,-1,77
 2113 991 2113 991 2089 991 c 1,78,79
 2067 1042 2067 1042 2028.5 1061.5 c 128,-1,80
 1990 1081 1990 1081 1931 1081 c 0,81,82
 1793 1081 1793 1081 1677 993 c 1,83,84
 1686 369 1686 369 1692 225 c 1,85,86
 1780 164 1780 164 1896 164 c 0,87,88
 2019 164 2019 164 2103 231 c 1,89,90
 2073 341 2073 341 2016 496 c 0,91,92
 1970 620 1970 620 1970 657 c 0,93,94
 1970 712 1970 712 2014 767 c 128,-1,95
 2058 822 2058 822 2128 860 c 1,96,97
 2139 790 2139 790 2154.5 720.5 c 128,-1,98
 2170 651 2170 651 2184 584.5 c 128,-1,99
 2198 518 2198 518 2208 455.5 c 128,-1,100
 2218 393 2218 393 2218 338 c 0,101,102
 2218 260 2218 260 2134 92 c 1,103,104
 2059 26 2059 26 2001 3 c 128,-1,105
 1943 -20 1943 -20 1872 -20 c 0,0,1
1890 -330 m 1,106,107
 1835 -411 1835 -411 1747 -494 c 1,108,109
 1650 -420 1650 -420 1587 -346 c 1,110,111
 1634 -303 1634 -303 1743 -184 c 1,112,113
 1783 -228 1783 -228 1819 -262 c 128,-1,114
 1855 -296 1855 -296 1890 -330 c 1,106,107
2253 -295 m 1,115,116
 2199 -374 2199 -374 2109 -459 c 1,117,118
 2010 -384 2010 -384 1950 -311 c 1,119,120
 1997 -269 1997 -269 2105 -150 c 1,121,122
 2121 -167 2121 -167 2253 -295 c 1,115,116
EndSplineSet
Ligature2: "'liga' Standard Ligatures in Arabic lookup 8 subtable" uni0631 uni064A.init uni0627.fina uni0644
EndChar
StartChar: uni0627.fina
Encoding: 65166 65166 6
Width: 610
GlyphClass: 2
Flags: W
AnchorPoint: "Anchor-1" 360 -140 basechar 0
AnchorPoint: "Anchor-0" 300 1680 basechar 0
LayerCount: 2
Fore
SplineSet
346 1597 m 1,0,1
 361 1304 361 1304 372 578 c 1,2,-1
 379 225 l 1,3,4
 490 164 490 164 631 164 c 0,5,6
 651 164 651 164 651 143 c 2,7,-1
 651 0 l 2,8,9
 651 -20 651 -20 631 -20 c 0,10,11
 489 -20 489 -20 395 36.5 c 128,-1,12
 301 93 301 93 289 190 c 0,13,14
 249 522 249 522 207 1141 c 1,15,-1
 184 1462 l 1,16,17
 255 1537 255 1537 346 1597 c 1,0,1
EndSplineSet
EndChar
StartChar: uni062D.init
Encoding: 65187 65187 8
Width: 1532
GlyphClass: 2
Flags: W
AnchorPoint: "Anchor-1" 600 -150 basechar 0
AnchorPoint: "Anchor-0" 800 1100 basechar 0
LayerCount: 2
Fore
SplineSet
0 -20 m 0,0,1
 -20 -20 -20 -20 -20 0 c 2,2,-1
 -20 143 l 2,3,4
 -20 164 -20 164 0 164 c 0,5,6
 356 164 356 164 557 225 c 1,7,-1
 667 261 l 1,8,9
 767 298 767 298 822 315 c 128,-1,10
 877 332 877 332 934 342 c 1,11,12
 857 378 857 378 798 422.5 c 128,-1,13
 739 467 739 467 686.5 506 c 128,-1,14
 634 545 634 545 581.5 571.5 c 128,-1,15
 529 598 529 598 465 598 c 0,16,17
 418 598 418 598 381.5 590 c 128,-1,18
 345 582 345 582 315 568.5 c 128,-1,19
 285 555 285 555 201 504 c 1,20,21
 187 518 187 518 176.5 543.5 c 128,-1,22
 166 569 166 569 166 598 c 0,23,24
 166 690 166 690 247 744.5 c 128,-1,25
 328 799 328 799 457 799 c 0,26,27
 533 799 533 799 611 766 c 128,-1,28
 689 733 689 733 793 657 c 0,29,30
 912 570 912 570 996.5 524 c 128,-1,31
 1081 478 1081 478 1178 454 c 128,-1,32
 1275 430 1275 430 1450 432 c 1,33,-1
 1358 254 l 1,34,-1
 1210 268 l 1,35,36
 1102 265 1102 265 1054.5 255 c 128,-1,37
 1007 245 1007 245 945 219.5 c 128,-1,38
 883 194 883 194 770 135 c 0,39,40
 645 70 645 70 544.5 37.5 c 128,-1,41
 444 5 444 5 326.5 -7.5 c 128,-1,42
 209 -20 209 -20 0 -20 c 0,0,1
EndSplineSet
EndChar
StartChar: uni062F.fina
Encoding: 65194 65194 112
Width: 1141
GlyphClass: 2
Flags: W
AnchorPoint: "Anchor-1" 450 -160 basechar 0
AnchorPoint: "Anchor-0" 350 1200 basechar 0
LayerCount: 2
Fore
SplineSet
1161 -20 m 0,0,1
 976 -20 976 -20 864 106 c 1,2,3
 648 -20 648 -20 377 -20 c 0,4,5
 232 -20 232 -20 157 19 c 128,-1,6
 82 58 82 58 82 133 c 0,7,8
 82 168 82 168 93.5 202.5 c 128,-1,9
 105 237 105 237 125 260 c 1,10,11
 185 211 185 211 262 187.5 c 128,-1,12
 339 164 339 164 453 164 c 0,13,14
 618 164 618 164 786 213 c 1,15,16
 736 293 736 293 678 424.5 c 128,-1,17
 620 556 620 556 588.5 660 c 128,-1,18
 557 764 557 764 557 803 c 0,19,20
 557 862 557 862 590.5 903 c 128,-1,21
 624 944 624 944 684 963 c 1,22,23
 756 698 756 698 819.5 531.5 c 128,-1,24
 883 365 883 365 960.5 264.5 c 128,-1,25
 1038 164 1038 164 1161 164 c 0,26,27
 1182 164 1182 164 1182 143 c 2,28,-1
 1182 0 l 2,29,30
 1182 -20 1182 -20 1161 -20 c 0,0,1
EndSplineSet
EndChar
StartChar: uni0631.fina
Encoding: 65198 65198 13
Width: 940
GlyphClass: 2
Flags: W
AnchorPoint: "Anchor-1" 360 -840 basechar 0
AnchorPoint: "Anchor-0" 400 1116 basechar 0
LayerCount: 2
Fore
SplineSet
961 -20 m 0,0,1
 847 -20 847 -20 764 39 c 1,2,3
 725 -208 725 -208 579.5 -360 c 128,-1,4
 434 -512 434 -512 233 -512 c 0,5,6
 179 -512 179 -512 84.5 -471.5 c 128,-1,7
 -10 -431 -10 -431 -82 -377 c 1,8,-1
 -49 -297 l 1,9,10
 35 -314 35 -314 80 -319 c 128,-1,11
 125 -324 125 -324 178 -324 c 0,12,13
 358 -324 358 -324 487.5 -216.5 c 128,-1,14
 617 -109 617 -109 684 98 c 1,15,16
 662 153 662 153 641 193 c 128,-1,17
 620 233 620 233 570 320 c 1,18,19
 525 395 525 395 487 483.5 c 128,-1,20
 449 572 449 572 449 633 c 256,21,22
 449 694 449 694 486.5 731.5 c 128,-1,23
 524 769 524 769 590 801 c 1,24,25
 605 739 605 739 633.5 664.5 c 128,-1,26
 662 590 662 590 690.5 512 c 128,-1,27
 719 434 719 434 742.5 356.5 c 128,-1,28
 766 279 766 279 772 211 c 1,29,30
 856 164 856 164 961 164 c 0,31,32
 981 164 981 164 981 143 c 2,33,-1
 981 0 l 2,34,35
 981 -20 981 -20 961 -20 c 0,0,1
EndSplineSet
Colour: ffff00
EndChar
StartChar: uni0633.init
Encoding: 65203 65203 15
Width: 1585
GlyphClass: 2
Flags: W
AnchorPoint: "Anchor-1" 800 -160 basechar 0
AnchorPoint: "Anchor-0" 800 880 basechar 0
LayerCount: 2
Fore
SplineSet
545 -20 m 1,0,1
 477 -20 477 -20 390 1 c 128,-1,2
 303 22 303 22 250 53 c 1,3,4
 171 -20 171 -20 0 -20 c 0,5,6
 -20 -20 -20 -20 -20 0 c 2,7,-1
 -20 143 l 2,8,9
 -20 164 -20 164 0 164 c 0,10,11
 67 164 67 164 111 176.5 c 128,-1,12
 155 189 155 189 195 219 c 1,13,14
 226 244 226 244 245.5 268.5 c 128,-1,15
 265 293 265 293 324 393 c 1,16,17
 345 431 345 431 398 431 c 0,18,19
 435 431 435 431 457 414 c 1,20,21
 388 249 388 249 356 193 c 1,22,23
 438 164 438 164 571 164 c 0,24,25
 685 164 685 164 760 188 c 1,26,27
 776 215 776 215 818 355 c 1,28,29
 847 456 847 456 872.5 508.5 c 128,-1,30
 898 561 898 561 922 574 c 128,-1,31
 946 587 946 587 972 587 c 0,32,33
 1005 587 1005 587 1028 569 c 1,34,35
 997 503 997 503 972 422 c 128,-1,36
 947 341 947 341 924 262 c 1,37,38
 1032 212 1032 212 1130.5 191 c 128,-1,39
 1229 170 1229 170 1348 170 c 1,40,41
 1320 276 1320 276 1258 434 c 0,42,43
 1210 557 1210 557 1210 596 c 0,44,45
 1210 651 1210 651 1254 706 c 128,-1,46
 1298 761 1298 761 1368 799 c 1,47,48
 1379 729 1379 729 1395 659.5 c 128,-1,49
 1411 590 1411 590 1426 523 c 128,-1,50
 1441 456 1441 456 1451.5 393.5 c 128,-1,51
 1462 331 1462 331 1462 276 c 0,52,53
 1462 232 1462 232 1433.5 140 c 128,-1,54
 1405 48 1405 48 1370 -20 c 1,55,56
 1213 -20 1213 -20 1103.5 0 c 128,-1,57
 994 20 994 20 858 84 c 1,58,-1
 838 45 l 1,59,60
 820 18 820 18 740.5 0 c 128,-1,61
 661 -18 661 -18 545 -20 c 1,0,1
EndSplineSet
EndChar
StartChar: uni0633.medi
Encoding: 65204 65204 16
Width: 1597
GlyphClass: 2
Flags: W
AnchorPoint: "Anchor-1" 800 -160 basechar 0
AnchorPoint: "Anchor-0" 800 880 basechar 0
LayerCount: 2
Fore
SplineSet
1618 -20 m 0,0,1
 1525 -20 1525 -20 1429.5 16.5 c 128,-1,2
 1334 53 1334 53 1276 113 c 1,3,-1
 1241 45 l 1,4,5
 1225 18 1225 18 1160 -1 c 128,-1,6
 1095 -20 1095 -20 1028 -20 c 0,7,8
 965 -20 965 -20 920 -3.5 c 128,-1,9
 875 13 875 13 834 41 c 1,10,11
 812 15 812 15 737.5 -1 c 128,-1,12
 663 -17 663 -17 545 -20 c 1,13,14
 477 -20 477 -20 390 1 c 128,-1,15
 303 22 303 22 250 53 c 1,16,17
 171 -20 171 -20 0 -20 c 0,18,19
 -20 -20 -20 -20 -20 0 c 2,20,-1
 -20 143 l 2,21,22
 -20 164 -20 164 0 164 c 0,23,24
 67 164 67 164 111 176.5 c 128,-1,25
 155 189 155 189 195 219 c 1,26,27
 226 244 226 244 245.5 268.5 c 128,-1,28
 265 293 265 293 324 393 c 1,29,30
 345 431 345 431 398 431 c 0,31,32
 435 431 435 431 457 414 c 1,33,34
 388 249 388 249 356 193 c 1,35,36
 438 164 438 164 571 164 c 0,37,38
 685 164 685 164 760 188 c 1,39,40
 776 215 776 215 818 355 c 1,41,42
 847 456 847 456 872.5 508.5 c 128,-1,43
 898 561 898 561 922 574 c 128,-1,44
 946 587 946 587 972 587 c 0,45,46
 1005 587 1005 587 1028 569 c 1,47,48
 991 486 991 486 933 292 c 1,49,-1
 903 199 l 1,50,51
 941 180 941 180 969 175 c 128,-1,52
 997 170 997 170 1032 170 c 0,53,54
 1090 170 1090 170 1165 195 c 1,55,56
 1182 223 1182 223 1234 368 c 1,57,58
 1284 512 1284 512 1317 569 c 0,59,60
 1340 607 1340 607 1391 607 c 0,61,62
 1428 607 1428 607 1450 590 c 1,63,64
 1439 565 1439 565 1428.5 536.5 c 128,-1,65
 1418 508 1418 508 1329 248 c 1,66,67
 1386 210 1386 210 1453.5 187 c 128,-1,68
 1521 164 1521 164 1618 164 c 0,69,70
 1638 164 1638 164 1638 143 c 2,71,-1
 1638 0 l 2,72,73
 1638 -20 1638 -20 1618 -20 c 0,0,1
EndSplineSet
EndChar
StartChar: uni0635.fina
Encoding: 65210 65210 21
Width: 2648
GlyphClass: 2
Flags: W
AnchorPoint: "Anchor-1" 1800 -160 basechar 0
AnchorPoint: "Anchor-0" 1700 1060 basechar 0
LayerCount: 2
Fore
SplineSet
600 -696 m 0,0,1
 394 -696 394 -696 279 -577.5 c 128,-1,2
 164 -459 164 -459 164 -244 c 0,3,4
 164 -169 164 -169 172.5 -112.5 c 128,-1,5
 181 -56 181 -56 211 68 c 1,6,-1
 299 47 l 1,7,8
 272 -56 272 -56 272 -125 c 0,9,10
 272 -303 272 -303 360.5 -400.5 c 128,-1,11
 449 -498 449 -498 606 -498 c 0,12,13
 721 -498 721 -498 843.5 -459 c 128,-1,14
 966 -420 966 -420 1063 -350 c 128,-1,15
 1160 -280 1160 -280 1200 -197 c 1,16,17
 1042 149 1042 149 1042 264 c 0,18,19
 1042 390 1042 390 1200 479 c 1,20,21
 1217 353 1217 353 1237 254 c 1,22,23
 1249 248 1249 248 1305 227 c 1,24,25
 1527 526 1527 526 1727.5 683 c 128,-1,26
 1928 840 1928 840 2091 840 c 0,27,28
 2165 840 2165 840 2270 778.5 c 128,-1,29
 2375 717 2375 717 2446 634 c 128,-1,30
 2517 551 2517 551 2517 489 c 0,31,32
 2517 336 2517 336 2421 223 c 1,33,34
 2524 164 2524 164 2669 164 c 0,35,36
 2689 164 2689 164 2689 143 c 2,37,-1
 2689 0 l 2,38,39
 2689 -20 2689 -20 2669 -20 c 0,40,41
 2569 -20 2569 -20 2470.5 18.5 c 128,-1,42
 2372 57 2372 57 2304 125 c 1,43,44
 2202 59 2202 59 2049.5 19.5 c 128,-1,45
 1897 -20 1897 -20 1741 -20 c 0,46,47
 1643 -20 1643 -20 1508.5 -3.5 c 128,-1,48
 1374 13 1374 13 1278 41 c 1,49,50
 1290 -48 1290 -48 1290 -106 c 0,51,52
 1290 -251 1290 -251 1197.5 -386 c 128,-1,53
 1105 -521 1105 -521 941 -608.5 c 128,-1,54
 777 -696 777 -696 600 -696 c 0,0,1
2032 639 m 0,55,56
 1917 639 1917 639 1756 525.5 c 128,-1,57
 1595 412 1595 412 1415 199 c 1,58,59
 1583 164 1583 164 1765 164 c 0,60,61
 1933 164 1933 164 2090.5 216.5 c 128,-1,62
 2248 269 2248 269 2408 369 c 1,63,64
 2340 492 2340 492 2235.5 565.5 c 128,-1,65
 2131 639 2131 639 2032 639 c 0,55,56
EndSplineSet
EndChar
StartChar: uni0635.init
Encoding: 65211 65211 19
Width: 1894
GlyphClass: 2
Flags: W
AnchorPoint: "Anchor-1" 940 -160 basechar 0
AnchorPoint: "Anchor-0" 940 1060 basechar 0
LayerCount: 2
Fore
SplineSet
414 464 m 0,0,1
 449 464 449 464 471 442 c 1,2,-1
 399 276 l 1,3,4
 453 250 453 250 518 227 c 1,5,6
 978 840 978 840 1305 840 c 0,7,8
 1380 840 1380 840 1486 777 c 128,-1,9
 1592 714 1592 714 1661.5 631 c 128,-1,10
 1731 548 1731 548 1731 489 c 0,11,12
 1731 342 1731 342 1637.5 229 c 128,-1,13
 1544 116 1544 116 1354 48 c 128,-1,14
 1164 -20 1164 -20 954 -20 c 0,15,16
 773 -20 773 -20 591 18.5 c 128,-1,17
 409 57 409 57 305 117 c 1,18,-1
 285 91 l 1,19,20
 237 31 237 31 167 5.5 c 128,-1,21
 97 -20 97 -20 0 -20 c 0,22,23
 -20 -20 -20 -20 -20 0 c 2,24,-1
 -20 143 l 2,25,26
 -20 164 -20 164 0 164 c 0,27,28
 84 164 84 164 136 185 c 128,-1,29
 188 206 188 206 225.5 247.5 c 128,-1,30
 263 289 263 289 338 422 c 1,31,32
 364 464 364 464 414 464 c 0,0,1
1245 639 m 0,33,34
 1131 639 1131 639 970.5 526.5 c 128,-1,35
 810 414 810 414 631 199 c 1,36,37
 790 164 790 164 979 164 c 0,38,39
 1294 164 1294 164 1622 369 c 1,40,41
 1554 492 1554 492 1449.5 565.5 c 128,-1,42
 1345 639 1345 639 1245 639 c 0,33,34
EndSplineSet
EndChar
StartChar: uni0637.init
Encoding: 65219 65219 23
Width: 1591
GlyphClass: 2
Flags: W
AnchorPoint: "Anchor-1" 680 -160 basechar 0
AnchorPoint: "Anchor-0" 800 1600 basechar 0
LayerCount: 2
Fore
SplineSet
1468 518 m 0,0,1
 1468 346 1468 346 1309 226 c 128,-1,2
 1150 106 1150 106 826.5 43 c 128,-1,3
 503 -20 503 -20 0 -20 c 0,4,5
 -20 -20 -20 -20 -20 0 c 2,6,-1
 -20 143 l 2,7,8
 -20 164 -20 164 0 164 c 2,9,-1
 91 164 l 1,10,-1
 207 166 l 1,11,12
 294 288 294 288 362 369 c 1,13,-1
 291 784 l 1,14,15
 247 1020 247 1020 226.5 1182.5 c 128,-1,16
 206 1345 206 1345 206 1405 c 0,17,18
 206 1486 206 1486 243.5 1533 c 128,-1,19
 281 1580 281 1580 365 1597 c 1,20,21
 394 1482 394 1482 428 1384 c 1,22,-1
 451 1311 l 1,23,-1
 387 1255 l 1,24,25
 396 1125 396 1125 426 870 c 1,26,27
 445 697 445 697 450 634.5 c 128,-1,28
 455 572 455 572 459 481 c 1,29,30
 629 668 629 668 779.5 768 c 128,-1,31
 930 868 930 868 1042 868 c 0,32,33
 1116 868 1116 868 1220 807 c 128,-1,34
 1324 746 1324 746 1396 663 c 128,-1,35
 1468 580 1468 580 1468 518 c 0,0,1
983 668 m 0,36,37
 872 668 872 668 701 534 c 128,-1,38
 530 400 530 400 340 168 c 1,39,40
 564 175 564 175 692 193 c 1,41,42
 845 211 845 211 912 227 c 128,-1,43
 979 243 979 243 1040 265 c 128,-1,44
 1101 287 1101 287 1174.5 321 c 128,-1,45
 1248 355 1248 355 1358 412 c 1,46,47
 1286 535 1286 535 1188 601.5 c 128,-1,48
 1090 668 1090 668 983 668 c 0,36,37
EndSplineSet
EndChar
StartChar: uni0639.fina
Encoding: 65226 65226 29
Width: 1090
GlyphClass: 2
Flags: W
AnchorPoint: "Anchor-1" 340 -880 basechar 0
AnchorPoint: "Anchor-0" 480 1100 basechar 0
LayerCount: 2
Fore
SplineSet
1106 -20 m 0,0,1
 940 -20 940 -20 819.5 13 c 128,-1,2
 699 46 699 46 610 119 c 1,3,4
 348 -57 348 -57 348 -297 c 0,5,6
 348 -474 348 -474 490 -585 c 128,-1,7
 632 -696 632 -696 860 -696 c 0,8,9
 986 -696 986 -696 1078 -683.5 c 128,-1,10
 1170 -671 1170 -671 1327 -635 c 1,11,-1
 1354 -717 l 1,12,13
 1192 -806 1192 -806 1123 -834.5 c 128,-1,14
 1054 -863 1054 -863 987.5 -879 c 128,-1,15
 921 -895 921 -895 854 -895 c 0,16,17
 688 -895 688 -895 552.5 -818.5 c 128,-1,18
 417 -742 417 -742 339.5 -604.5 c 128,-1,19
 262 -467 262 -467 262 -301 c 0,20,21
 262 -156 262 -156 330.5 -25.5 c 128,-1,22
 399 105 399 105 522 203 c 1,23,24
 484 246 484 246 452.5 290.5 c 128,-1,25
 421 335 421 335 389.5 379 c 128,-1,26
 358 423 358 423 323.5 464 c 128,-1,27
 289 505 289 505 246 541 c 1,28,-1
 209 516 l 1,29,30
 164 565 164 565 164 624 c 0,31,32
 164 709 164 709 250 765 c 128,-1,33
 336 821 336 821 434.5 851 c 128,-1,34
 533 881 533 881 635 881 c 0,35,36
 790 881 790 881 893.5 795 c 128,-1,37
 997 709 997 709 997 580 c 0,38,39
 997 371 997 371 764 213 c 1,40,41
 871 164 871 164 1106 164 c 0,42,43
 1130 164 1130 164 1130 141 c 2,44,-1
 1130 2 l 2,45,46
 1130 -20 1130 -20 1106 -20 c 0,0,1
643 682 m 0,47,48
 563 682 563 682 496.5 664.5 c 128,-1,49
 430 647 430 647 360 610 c 1,50,51
 411 569 411 569 449 528.5 c 128,-1,52
 487 488 487 488 520 448 c 128,-1,53
 553 408 553 408 584 369 c 128,-1,54
 615 330 615 330 653 293 c 1,55,56
 825 419 825 419 825 528 c 0,57,58
 825 595 825 595 774.5 638.5 c 128,-1,59
 724 682 724 682 643 682 c 0,47,48
EndSplineSet
EndChar
StartChar: uni0639.init
Encoding: 65227 65227 27
Width: 1217
GlyphClass: 2
Flags: W
AnchorPoint: "Anchor-1" 500 -160 basechar 0
AnchorPoint: "Anchor-0" 440 1100 basechar 0
LayerCount: 2
Fore
SplineSet
0 -20 m 0,0,1
 -20 -20 -20 -20 -20 0 c 2,2,-1
 -20 143 l 2,3,4
 -20 164 -20 164 0 164 c 0,5,6
 167 164 167 164 299 170 c 1,7,8
 234 216 234 216 195 278.5 c 128,-1,9
 156 341 156 341 156 414 c 0,10,11
 156 520 156 520 214 634 c 128,-1,12
 272 748 272 748 359.5 814.5 c 128,-1,13
 447 881 447 881 541 881 c 0,14,15
 623 881 623 881 697 841.5 c 128,-1,16
 771 802 771 802 879 709 c 1,17,-1
 836 633 l 1,18,19
 740 669 740 669 697.5 678.5 c 128,-1,20
 655 688 655 688 602 688 c 0,21,22
 453 688 453 688 293 600 c 1,23,24
 293 497 293 497 342.5 412.5 c 128,-1,25
 392 328 392 328 485.5 276.5 c 128,-1,26
 579 225 579 225 711 215 c 1,27,28
 880 248 880 248 1122 346 c 1,29,30
 1155 316 1155 316 1155 260 c 1,31,-1
 1153 235 l 1,32,33
 1138 155 1138 155 1053 133 c 1,34,35
 756 60 756 60 612.5 34.5 c 128,-1,36
 469 9 469 9 320 -5.5 c 128,-1,37
 171 -20 171 -20 0 -20 c 0,0,1
EndSplineSet
EndChar
StartChar: uni0639.medi
Encoding: 65228 65228 28
Width: 997
GlyphClass: 2
Flags: W
AnchorPoint: "Anchor-1" 500 -160 basechar 0
AnchorPoint: "Anchor-0" 440 1100 basechar 0
LayerCount: 2
Fore
SplineSet
1014 -20 m 0,0,1
 858 -20 858 -20 740.5 10 c 128,-1,2
 623 40 623 40 528 111 c 1,3,4
 396 39 396 39 271.5 9.5 c 128,-1,5
 147 -20 147 -20 2 -20 c 0,6,7
 -20 -20 -20 -20 -20 2 c 2,8,-1
 -20 141 l 2,9,10
 -20 164 -20 164 2 164 c 0,11,12
 268 164 268 164 416 221 c 1,13,14
 381 262 381 262 351.5 304.5 c 128,-1,15
 322 347 322 347 292 388 c 128,-1,16
 262 429 262 429 228.5 468 c 128,-1,17
 195 507 195 507 154 541 c 1,18,-1
 117 516 l 1,19,20
 72 565 72 565 72 624 c 0,21,22
 72 707 72 707 154 762.5 c 128,-1,23
 236 818 236 818 339 849.5 c 128,-1,24
 442 881 442 881 543 881 c 0,25,26
 698 881 698 881 801.5 795 c 128,-1,27
 905 709 905 709 905 580 c 0,28,29
 905 481 905 481 850 384.5 c 128,-1,30
 795 288 795 288 688 207 c 1,31,32
 791 164 791 164 1014 164 c 0,33,34
 1038 164 1038 164 1038 141 c 2,35,-1
 1038 2 l 2,36,37
 1038 -20 1038 -20 1014 -20 c 0,0,1
551 682 m 0,38,39
 402 682 402 682 268 610 c 1,40,41
 346 546 346 546 426 450 c 1,42,43
 523 331 523 331 557 297 c 1,44,45
 638 350 638 350 685.5 410.5 c 128,-1,46
 733 471 733 471 733 528 c 0,47,48
 733 595 733 595 682.5 638.5 c 128,-1,49
 632 682 632 682 551 682 c 0,38,39
EndSplineSet
EndChar
StartChar: uni0643.fina
Encoding: 65242 65242 33
Width: 1774
GlyphClass: 2
Flags: W
AnchorPoint: "Anchor-1" 800 -160 basechar 0
AnchorPoint: "Anchor-0" 740 1100 basechar 0
LayerCount: 2
Fore
SplineSet
1509 1597 m 1,0,1
 1524 1304 1524 1304 1535 578 c 1,2,-1
 1542 225 l 1,3,4
 1653 164 1653 164 1794 164 c 0,5,6
 1815 164 1815 164 1815 143 c 2,7,-1
 1815 0 l 2,8,9
 1815 -20 1815 -20 1794 -20 c 0,10,11
 1684 -20 1684 -20 1601.5 13.5 c 128,-1,12
 1519 47 1519 47 1483 104 c 1,13,14
 1302 40 1302 40 1122 10 c 128,-1,15
 942 -20 942 -20 741 -20 c 0,16,17
 521 -20 521 -20 400.5 18.5 c 128,-1,18
 280 57 280 57 222 135.5 c 128,-1,19
 164 214 164 214 164 332 c 0,20,21
 164 420 164 420 197 514 c 1,22,-1
 281 514 l 1,23,24
 274 479 274 479 274 424 c 0,25,26
 274 322 274 322 323.5 267 c 128,-1,27
 373 212 373 212 481 188 c 128,-1,28
 589 164 589 164 793 164 c 0,29,30
 1132 164 1132 164 1446 240 c 1,31,32
 1411 533 1411 533 1370 1154 c 1,33,-1
 1348 1462 l 1,34,35
 1421 1538 1421 1538 1509 1597 c 1,0,1
940 797 m 1,36,-1
 942 809 l 1,37,38
 942 822 942 822 931 835 c 128,-1,39
 920 848 920 848 903 848 c 0,40,41
 862 848 862 848 821 816 c 128,-1,42
 780 784 780 784 762 733 c 1,43,44
 807 673 807 673 910 673 c 0,45,46
 967 673 967 673 1055 692 c 1,47,-1
 1049 575 l 1,48,49
 927 545 927 545 850 514 c 128,-1,50
 773 483 773 483 674 430 c 1,51,-1
 668 547 l 1,52,-1
 727 581 l 1,53,-1
 786 614 l 1,54,55
 676 636 676 636 676 735 c 0,56,57
 676 825 676 825 749 900 c 128,-1,58
 822 975 822 975 899 975 c 0,59,60
 963 975 963 975 990.5 942.5 c 128,-1,61
 1018 910 1018 910 1018 862 c 0,62,63
 1018 822 1018 822 997 780 c 1,64,-1
 940 797 l 1,36,-1
EndSplineSet
EndChar
StartChar: uni0643.init
Encoding: 65243 65243 30
Width: 999
GlyphClass: 2
Flags: W
AnchorPoint: "Anchor-1" 300 -160 basechar 0
AnchorPoint: "Anchor-0" 300 1550 basechar 0
LayerCount: 2
Fore
SplineSet
0 -20 m 0,0,1
 -20 -20 -20 -20 -20 0 c 2,2,-1
 -20 143 l 2,3,4
 -20 164 -20 164 0 164 c 0,5,6
 220 164 220 164 393 196.5 c 128,-1,7
 566 229 566 229 711 305 c 1,8,9
 621 579 621 579 205 778 c 1,10,11
 183 770 183 770 147 770 c 0,12,13
 85 770 85 770 42.5 814 c 128,-1,14
 0 858 0 858 0 926 c 0,15,16
 0 971 0 971 24.5 1060 c 128,-1,17
 49 1149 49 1149 63 1157 c 0,18,19
 345 1304 345 1304 512.5 1381.5 c 128,-1,20
 680 1459 680 1459 920 1556 c 1,21,22
 939 1540 939 1540 948 1514 c 128,-1,23
 957 1488 957 1488 957 1465 c 1,24,-1
 955 1444 l 1,25,26
 943 1359 943 1359 854 1323 c 0,27,28
 429 1149 429 1149 88 993 c 1,29,30
 272 948 272 948 440.5 843.5 c 128,-1,31
 609 739 609 739 708 612 c 128,-1,32
 807 485 807 485 807 375 c 0,33,34
 807 181 807 181 606 80.5 c 128,-1,35
 405 -20 405 -20 0 -20 c 0,0,1
EndSplineSet
EndChar
StartChar: uni0643.medi
Encoding: 65244 65244 31
Width: 1106
GlyphClass: 2
Flags: W
AnchorPoint: "Anchor-1" 400 -160 basechar 0
AnchorPoint: "Anchor-0" 300 1550 basechar 0
LayerCount: 2
Fore
SplineSet
379 252 m 1,0,1
 345 416 345 416 246 547 c 1,2,3
 139 674 139 674 70.5 794 c 128,-1,4
 2 914 2 914 2 979 c 0,5,6
 2 1042 2 1042 25 1082.5 c 128,-1,7
 48 1123 48 1123 106 1155 c 0,8,9
 248 1234 248 1234 395.5 1302 c 128,-1,10
 543 1370 543 1370 999 1556 c 1,11,12
 1018 1540 1018 1540 1027.5 1514 c 128,-1,13
 1037 1488 1037 1488 1037 1465 c 1,14,-1
 1035 1444 l 1,15,16
 1023 1359 1023 1359 934 1323 c 2,17,-1
 702 1229 l 2,18,19
 298 1065 298 1065 88 971 c 1,20,21
 278 739 278 739 407 605.5 c 128,-1,22
 536 472 536 472 670 360.5 c 128,-1,23
 804 249 804 249 910.5 206.5 c 128,-1,24
 1017 164 1017 164 1126 164 c 0,25,26
 1147 164 1147 164 1147 143 c 2,27,-1
 1147 0 l 2,28,29
 1147 -20 1147 -20 1126 -20 c 0,30,31
 990 -20 990 -20 882 18 c 128,-1,32
 774 56 774 56 663 144.5 c 128,-1,33
 552 233 552 233 471 309 c 1,34,35
 471 208 471 208 414 113 c 1,36,37
 304 48 304 48 206.5 14 c 128,-1,38
 109 -20 109 -20 0 -20 c 0,39,40
 -20 -20 -20 -20 -20 0 c 2,41,-1
 -20 143 l 2,42,43
 -20 164 -20 164 0 164 c 0,44,45
 87 164 87 164 190.5 187.5 c 128,-1,46
 294 211 294 211 379 252 c 1,0,1
EndSplineSet
EndChar
StartChar: uni0644.fina
Encoding: 65246 65246 37
Width: 1425
GlyphClass: 2
Flags: W
AnchorPoint: "Anchor-1" 630 -840 basechar 0
AnchorPoint: "Anchor-0" 460 1400 basechar 0
LayerCount: 2
Fore
SplineSet
1446 -20 m 0,0,1
 1360 -20 1360 -20 1286 16 c 1,2,-1
 1290 -106 l 1,3,4
 1290 -251 1290 -251 1197.5 -386 c 128,-1,5
 1105 -521 1105 -521 941 -608.5 c 128,-1,6
 777 -696 777 -696 600 -696 c 0,7,8
 394 -696 394 -696 279 -577.5 c 128,-1,9
 164 -459 164 -459 164 -244 c 0,10,11
 164 -169 164 -169 172.5 -112.5 c 128,-1,12
 181 -56 181 -56 211 68 c 1,13,-1
 299 47 l 1,14,15
 272 -56 272 -56 272 -125 c 0,16,17
 272 -303 272 -303 360.5 -400.5 c 128,-1,18
 449 -498 449 -498 606 -498 c 0,19,20
 721 -498 721 -498 843.5 -459 c 128,-1,21
 966 -420 966 -420 1063 -350 c 128,-1,22
 1160 -280 1160 -280 1200 -197 c 1,23,24
 1155 108 1155 108 1087 512 c 0,25,26
 1045 756 1045 756 1005.5 1041.5 c 128,-1,27
 966 1327 966 1327 966 1405 c 0,28,29
 966 1485 966 1485 1002.5 1532 c 128,-1,30
 1039 1579 1039 1579 1124 1597 c 1,31,32
 1130 1574 1130 1574 1135.5 1554 c 128,-1,33
 1141 1534 1141 1534 1210 1311 c 1,34,-1
 1153 1262 l 1,35,36
 1165 1171 1165 1171 1270 205 c 1,37,38
 1345 164 1345 164 1446 164 c 0,39,40
 1466 164 1466 164 1466 143 c 2,41,-1
 1466 0 l 2,42,43
 1466 -20 1466 -20 1446 -20 c 0,0,1
EndSplineSet
EndChar
StartChar: uni0644.init
Encoding: 65247 65247 35
Width: 512
GlyphClass: 2
Flags: W
AnchorPoint: "Anchor-1" 230 -346 basechar 0
AnchorPoint: "Anchor-0" 230 1925 basechar 0
LayerCount: 2
Fore
SplineSet
-2 -20 m 0,0,1
 -23 -20 -23 -20 -23 0 c 2,2,-1
 -23 143 l 2,3,4
 -23 164 -23 164 -2 164 c 0,5,6
 147 164 147 164 264 227 c 1,7,8
 214 879 214 879 143 1462 c 1,9,10
 214 1537 214 1537 305 1597 c 1,11,-1
 324 1240 l 1,12,13
 350 808 350 808 358.5 633 c 128,-1,14
 367 458 367 458 369 305 c 1,15,16
 369 221 369 221 285 63 c 1,17,18
 239 -20 239 -20 -2 -20 c 0,0,1
EndSplineSet
Colour: ffff00
EndChar
StartChar: uni0644.medi
Encoding: 65248 65248 36
Width: 590
GlyphClass: 2
Flags: W
AnchorPoint: "Anchor-1" 300 -160 basechar 0
AnchorPoint: "Anchor-0" 230 1680 basechar 0
LayerCount: 2
Fore
SplineSet
0 -20 m 0,0,1
 -20 -20 -20 -20 -20 0 c 2,2,-1
 -20 143 l 2,3,4
 -20 164 -20 164 0 164 c 0,5,6
 135 164 135 164 262 225 c 1,7,8
 224 553 224 553 186 1150 c 1,9,-1
 164 1462 l 1,10,11
 235 1537 235 1537 326 1597 c 1,12,13
 340 1283 340 1283 351 578 c 1,14,-1
 358 225 l 1,15,16
 469 164 469 164 610 164 c 0,17,18
 631 164 631 164 631 143 c 2,19,-1
 631 0 l 2,20,21
 631 -20 631 -20 610 -20 c 0,22,23
 424 -20 424 -20 334 66 c 1,24,25
 244 16 244 16 175 -2 c 128,-1,26
 106 -20 106 -20 0 -20 c 0,0,1
EndSplineSet
EndChar
StartChar: uni0645.fina
Encoding: 65250 65250 41
Width: 1272
GlyphClass: 2
Flags: W
AnchorPoint: "Anchor-1" 740 -341 basechar 0
AnchorPoint: "Anchor-0" 600 1103 basechar 0
LayerCount: 2
Fore
SplineSet
422 262 m 0,0,1
 422 340 422 340 467 428 c 1,2,3
 411 393 411 393 360.5 355 c 128,-1,4
 310 317 310 317 266 285 c 1,5,6
 282 95 282 95 325 -175 c 0,7,8
 375 -490 375 -490 399 -696 c 1,9,10
 326 -772 326 -772 238 -831 c 1,11,12
 228 -579 228 -579 193 -235 c 0,13,14
 164 49 164 49 164 203 c 0,15,16
 164 270 164 270 248 444 c 1,17,18
 254 459 254 459 359 536.5 c 128,-1,19
 464 614 464 614 563 673.5 c 128,-1,20
 662 733 662 733 741.5 766 c 128,-1,21
 821 799 821 799 872 799 c 0,22,23
 903 799 903 799 931 768.5 c 128,-1,24
 959 738 959 738 986.5 682.5 c 128,-1,25
 1014 627 1014 627 1069 482 c 0,26,27
 1139 294 1139 294 1189.5 229 c 128,-1,28
 1240 164 1240 164 1292 164 c 0,29,30
 1319 164 1319 164 1319 139 c 2,31,-1
 1319 6 l 2,32,33
 1319 -20 1319 -20 1292 -20 c 0,34,35
 1168 -20 1168 -20 1073 86 c 1,36,-1
 1042 -20 l 1,37,38
 880 -20 880 -20 730 18.5 c 128,-1,39
 580 57 580 57 501 121 c 128,-1,40
 422 185 422 185 422 262 c 0,0,1
549 311 m 1,41,42
 636 239 636 239 761 198.5 c 128,-1,43
 886 158 886 158 1026 147 c 1,44,45
 969 233 969 233 929 358 c 128,-1,46
 889 483 889 483 877 614 c 1,47,48
 782 570 782 570 683 479 c 128,-1,49
 584 388 584 388 549 311 c 1,41,42
EndSplineSet
Colour: ffff00
EndChar
StartChar: uni0645.init
Encoding: 65251 65251 39
Width: 1098
GlyphClass: 2
Flags: W
AnchorPoint: "Anchor-1" 520 -160 basechar 0
AnchorPoint: "Anchor-0" 560 1060 basechar 0
LayerCount: 2
Fore
SplineSet
862 -20 m 1,0,1
 720 -20 720 -20 555.5 19.5 c 128,-1,2
 391 59 391 59 281 123 c 1,3,4
 222 44 222 44 155 12 c 128,-1,5
 88 -20 88 -20 0 -20 c 0,6,7
 -20 -20 -20 -20 -20 0 c 2,8,-1
 -20 143 l 2,9,10
 -20 164 -20 164 0 164 c 0,11,12
 91 164 91 164 152.5 206.5 c 128,-1,13
 214 249 214 249 264 342 c 1,14,-1
 311 438 l 1,15,16
 400 630 400 630 488.5 714.5 c 128,-1,17
 577 799 577 799 688 799 c 0,18,19
 756 799 756 799 825 718 c 128,-1,20
 894 637 894 637 939.5 501.5 c 128,-1,21
 985 366 985 366 985 231 c 0,22,23
 985 78 985 78 862 -20 c 1,0,1
651 586 m 0,24,25
 583 586 583 586 523 523.5 c 128,-1,26
 463 461 463 461 377 285 c 1,27,28
 550 189 550 189 809 164 c 1,29,30
 805 260 805 260 781 357.5 c 128,-1,31
 757 455 757 455 720.5 520.5 c 128,-1,32
 684 586 684 586 651 586 c 0,24,25
EndSplineSet
EndChar
StartChar: uni0645.medi
Encoding: 65252 65252 40
Width: 995
GlyphClass: 2
Flags: W
AnchorPoint: "Anchor-1" 520 -160 basechar 0
AnchorPoint: "Anchor-0" 460 1060 basechar 0
LayerCount: 2
Fore
SplineSet
0 -20 m 0,0,1
 -20 -20 -20 -20 -20 0 c 2,2,-1
 -20 143 l 2,3,4
 -20 164 -20 164 0 164 c 0,5,6
 82 164 82 164 158 188 c 1,7,8
 139 222 139 222 139 262 c 0,9,10
 139 364 139 364 212 496.5 c 128,-1,11
 285 629 285 629 389.5 714 c 128,-1,12
 494 799 494 799 590 799 c 0,13,14
 663 799 663 799 741 598 c 2,15,-1
 786 482 l 2,16,17
 840 342 840 342 871.5 285 c 128,-1,18
 903 228 903 228 937 196 c 128,-1,19
 971 164 971 164 1010 164 c 0,20,21
 1036 164 1036 164 1036 139 c 2,22,-1
 1036 6 l 2,23,24
 1036 -20 1036 -20 1010 -20 c 0,25,26
 886 -20 886 -20 791 86 c 1,27,-1
 760 -20 l 1,28,29
 644 -20 644 -20 530.5 0 c 128,-1,30
 417 20 417 20 340 51 c 1,31,32
 223 9 223 9 149 -5.5 c 128,-1,33
 75 -20 75 -20 0 -20 c 0,0,1
266 311 m 1,34,35
 353 239 353 239 478 198.5 c 128,-1,36
 603 158 603 158 743 147 c 1,37,38
 686 233 686 233 646 358 c 128,-1,39
 606 483 606 483 594 614 c 1,40,41
 499 570 499 570 400 479 c 128,-1,42
 301 388 301 388 266 311 c 1,34,35
EndSplineSet
EndChar
StartChar: uni0647.fina
Encoding: 65258 65258 45
Width: 1090
GlyphClass: 2
Flags: W
AnchorPoint: "Anchor-1" 600 -160 basechar 0
AnchorPoint: "Anchor-0" 600 1200 basechar 0
LayerCount: 2
Fore
SplineSet
672 121 m 1,0,1
 548 131 548 131 479 147 c 128,-1,2
 410 163 410 163 329 202 c 128,-1,3
 248 241 248 241 206 277.5 c 128,-1,4
 164 314 164 314 164 344 c 0,5,6
 164 375 164 375 195.5 450.5 c 128,-1,7
 227 526 227 526 250 567 c 0,8,9
 285 632 285 632 402.5 717 c 128,-1,10
 520 802 520 802 664 862 c 1,11,-1
 651 963 l 1,12,13
 699 1009 699 1009 742.5 1038 c 128,-1,14
 786 1067 786 1067 834 1098 c 1,15,16
 843 687 843 687 855 379 c 1,17,-1
 860 225 l 1,18,19
 969 164 969 164 1110 164 c 0,20,21
 1130 164 1130 164 1130 143 c 2,22,-1
 1130 0 l 2,23,24
 1130 -20 1130 -20 1110 -20 c 0,25,26
 964 -20 964 -20 874 34.5 c 128,-1,27
 784 89 784 89 768 190 c 2,28,-1
 754 276 l 1,29,-1
 672 121 l 1,0,1
748 317 m 1,30,-1
 686 707 l 1,31,32
 400 605 400 605 281 455 c 1,33,34
 343 407 343 407 398 379.5 c 128,-1,35
 453 352 453 352 542 336 c 128,-1,36
 631 320 631 320 748 317 c 1,30,-1
EndSplineSet
EndChar
StartChar: uni0647.init
Encoding: 65259 65259 43
Width: 1223
GlyphClass: 2
Flags: W
AnchorPoint: "Anchor-1" 480 -160 basechar 0
AnchorPoint: "Anchor-0" 400 1200 basechar 0
LayerCount: 2
Fore
SplineSet
0 -20 m 0,0,1
 -20 -20 -20 -20 -20 0 c 2,2,-1
 -20 147 l 2,3,4
 -20 164 -20 164 0 164 c 0,5,6
 157 164 157 164 276 195 c 1,7,8
 127 323 127 323 127 479 c 0,9,10
 127 549 127 549 155 629.5 c 128,-1,11
 183 710 183 710 232 773 c 128,-1,12
 281 836 281 836 340 866 c 1,13,-1
 395 1024 l 1,14,15
 600 965 600 965 762 847 c 128,-1,16
 924 729 924 729 1012 575 c 128,-1,17
 1100 421 1100 421 1100 260 c 0,18,19
 1100 147 1100 147 977 -63 c 1,20,21
 666 -26 666 -26 442 86 c 1,22,23
 345 29 345 29 238 4.5 c 128,-1,24
 131 -20 131 -20 0 -20 c 0,0,1
213 481 m 1,25,26
 320 365 320 365 457 281 c 1,27,28
 578 375 578 375 578 537 c 0,29,30
 578 604 578 604 534 664.5 c 128,-1,31
 490 725 490 725 436 725 c 0,32,33
 398 725 398 725 352 693.5 c 128,-1,34
 306 662 306 662 269.5 607.5 c 128,-1,35
 233 553 233 553 213 481 c 1,25,26
719 530 m 0,36,37
 719 347 719 347 596 211 c 1,38,39
 760 139 760 139 971 113 c 1,40,41
 971 268 971 268 887.5 435.5 c 128,-1,42
 804 603 804 603 668 719 c 1,43,44
 719 630 719 630 719 530 c 0,36,37
EndSplineSet
EndChar
StartChar: uni0647.medi
Encoding: 65260 65260 44
Width: 938
GlyphClass: 2
Flags: W
AnchorPoint: "Anchor-1" 645 -600 basechar 0
AnchorPoint: "Anchor-0" 600 1200 basechar 0
LayerCount: 2
Fore
SplineSet
782 -35 m 1,0,1
 848 -69 848 -69 884 -115 c 128,-1,2
 920 -161 920 -161 920 -207 c 0,3,4
 920 -243 920 -243 887 -330 c 128,-1,5
 854 -417 854 -417 838 -436 c 0,6,7
 813 -467 813 -467 753 -489.5 c 128,-1,8
 693 -512 693 -512 635 -512 c 0,9,10
 448 -512 448 -512 329 -400.5 c 128,-1,11
 210 -289 210 -289 180 -84 c 1,12,-1
 88 -123 l 1,13,-1
 63 -18 l 1,14,-1
 38 -20 l 1,15,-1
 20 -20 l 2,16,17
 0 -20 0 -20 0 0 c 2,18,-1
 0 143 l 2,19,20
 0 164 0 164 20 164 c 0,21,22
 94 164 94 164 178 170 c 1,23,24
 223 614 223 614 629 999 c 1,25,-1
 715 975 l 1,26,27
 723 865 723 865 758 691 c 1,28,29
 788 535 788 535 788 461 c 0,30,31
 788 271 788 271 592 145 c 1,32,33
 744 164 744 164 952 164 c 0,34,35
 979 164 979 164 979 139 c 2,36,-1
 979 6 l 2,37,38
 979 -20 979 -20 952 -20 c 0,39,40
 851 -20 851 -20 782 -35 c 1,0,1
575 758 m 1,41,42
 477 619 477 619 430.5 529 c 128,-1,43
 384 439 384 439 356 345.5 c 128,-1,44
 328 252 328 252 324 160 c 1,45,46
 503 183 503 183 649 303 c 1,47,-1
 628 425 l 1,48,49
 584 652 584 652 575 758 c 1,41,42
432 -20 m 0,50,51
 398 -20 398 -20 338 -35 c 1,52,53
 370 -181 370 -181 452.5 -261.5 c 128,-1,54
 535 -342 535 -342 655 -342 c 0,55,56
 699 -342 699 -342 745 -324.5 c 128,-1,57
 791 -307 791 -307 815 -279 c 1,58,59
 796 -213 796 -213 736.5 -152 c 128,-1,60
 677 -91 677 -91 596 -55.5 c 128,-1,61
 515 -20 515 -20 432 -20 c 0,50,51
EndSplineSet
EndChar
StartChar: uni0648.fina
Encoding: 65262 65262 47
Width: 1128
GlyphClass: 2
Flags: W
AnchorPoint: "Anchor-1" 480 -600 basechar 0
AnchorPoint: "Anchor-0" 540 1000 basechar 0
LayerCount: 2
Fore
SplineSet
465 -512 m 0,0,1
 385 -512 385 -512 268 -463.5 c 128,-1,2
 151 -415 151 -415 82 -358 c 1,3,-1
 117 -279 l 1,4,5
 249 -324 249 -324 410 -324 c 0,6,7
 721 -324 721 -324 868 -16 c 1,8,9
 610 -5 610 -5 501 28 c 128,-1,10
 392 61 392 61 340.5 131 c 128,-1,11
 289 201 289 201 289 311 c 0,12,13
 289 434 289 434 337.5 552.5 c 128,-1,14
 386 671 386 671 466.5 745 c 128,-1,15
 547 819 547 819 629 819 c 0,16,17
 727 819 727 819 812.5 732 c 128,-1,18
 898 645 898 645 952 489 c 128,-1,19
 1006 333 1006 333 1006 174 c 2,20,-1
 1006 164 l 1,21,-1
 1149 164 l 2,22,23
 1169 164 1169 164 1169 143 c 2,24,-1
 1169 0 l 2,25,26
 1169 -20 1169 -20 1149 -20 c 2,27,-1
 1067 -20 l 1,28,-1
 981 -18 l 1,29,30
 944 -160 944 -160 866.5 -274 c 128,-1,31
 789 -388 789 -388 685 -450 c 128,-1,32
 581 -512 581 -512 465 -512 c 0,0,1
907 166 m 1,33,34
 887 289 887 289 838 393.5 c 128,-1,35
 789 498 789 498 724 556 c 128,-1,36
 659 614 659 614 592 614 c 0,37,38
 543 614 543 614 494 577.5 c 128,-1,39
 445 541 445 541 413 484 c 128,-1,40
 381 427 381 427 381 379 c 0,41,42
 381 303 381 303 440 257 c 128,-1,43
 499 211 499 211 643 184 c 0,44,45
 708 171 708 171 907 166 c 1,33,34
EndSplineSet
EndChar
StartChar: .notdef
Encoding: 65536 -1 0
Width: 1229
GlyphClass: 2
Flags: W
LayerCount: 2
Fore
SplineSet
102 -362 m 1,0,-1
 102 1444 l 1,1,-1
 1126 1444 l 1,2,-1
 1126 -362 l 1,3,-1
 102 -362 l 1,0,-1
217 -248 m 1,4,-1
 1012 -248 l 1,5,-1
 1012 1329 l 1,6,-1
 217 1329 l 1,7,-1
 217 -248 l 1,4,-1
EndSplineSet
EndChar
StartChar: Ghunna_above
Encoding: 65565 -1 264
Width: 0
GlyphClass: 4
Flags: W
LayerCount: 2
Fore
SplineSet
0 799 m 0,0,1
 -100 799 -100 799 -151.5 847 c 128,-1,2
 -203 895 -203 895 -203 1012 c 0,3,4
 -203 1070 -203 1070 -172 1178 c 1,5,-1
 -98 1163 l 1,6,7
 -109 1117 -109 1117 -109 1077 c 0,8,9
 -109 1017 -109 1017 -78 980.5 c 128,-1,10
 -47 944 -47 944 2 944 c 0,11,12
 71 944 71 944 131 970 c 128,-1,13
 191 996 191 996 215 1038 c 1,14,15
 184 1095 184 1095 163.5 1151.5 c 128,-1,16
 143 1208 143 1208 143 1237 c 0,17,18
 143 1277 143 1277 171 1306.5 c 128,-1,19
 199 1336 199 1336 266 1358 c 1,20,21
 278 1262 278 1262 287 1217 c 0,22,23
 305 1132 305 1132 305 1079 c 0,24,25
 305 1002 305 1002 263 938 c 128,-1,26
 221 874 221 874 149 836.5 c 128,-1,27
 77 799 77 799 0 799 c 0,0,1
EndSplineSet
EndChar
StartChar: alef_alt.fina
Encoding: 65557 -1 124
Width: 590
GlyphClass: 2
Flags: W
LayerCount: 2
Fore
SplineSet
326 1462 m 1,0,1
 342 1086 342 1086 349 655 c 0,2,3
 353 388 353 388 358 225 c 1,4,5
 469 164 469 164 610 164 c 0,6,7
 631 164 631 164 631 143 c 2,8,-1
 631 0 l 2,9,10
 631 -20 631 -20 610 -20 c 0,11,12
 468 -20 468 -20 374 37 c 128,-1,13
 280 94 280 94 268 190 c 0,14,15
 221 570 221 570 164 1327 c 1,16,17
 229 1395 229 1395 326 1462 c 1,0,1
EndSplineSet
EndChar
StartChar: alef_alt.isol
Encoding: 65556 -1 123
Width: 582
GlyphClass: 2
Flags: W
LayerCount: 2
Fore
SplineSet
369 1118 m 1,0,1
 383 712 383 712 383 645 c 2,2,-1
 383 557 l 2,3,4
 383 380 383 380 367 0 c 1,5,-1
 256 -20 l 1,6,7
 252 306 252 306 241 522 c 2,8,-1
 236 627 l 2,9,10
 225 870 225 870 190 1245 c 1,11,-1
 188 1278 l 1,12,13
 188 1353 188 1353 226.5 1398 c 128,-1,14
 265 1443 265 1443 348 1460 c 1,15,16
 371 1369 371 1369 391 1309 c 2,17,-1
 434 1174 l 1,18,-1
 369 1118 l 1,0,1
EndSplineSet
EndChar
StartChar: beh_dotless_alt.init
Encoding: 65552 -1 116
Width: 827
GlyphClass: 2
Flags: W
LayerCount: 2
Fore
SplineSet
0 -20 m 0,0,1
 -20 -20 -20 -20 -20 0 c 2,2,-1
 -20 143 l 2,3,4
 -20 164 -20 164 0 164 c 0,5,6
 85 164 85 164 206.5 173 c 128,-1,7
 328 182 328 182 428 202.5 c 128,-1,8
 528 223 528 223 590 252 c 1,9,10
 561 359 561 359 503 516 c 0,11,12
 457 640 457 640 457 678 c 0,13,14
 457 733 457 733 501.5 788 c 128,-1,15
 546 843 546 843 614 881 c 1,16,17
 625 811 625 811 640.5 741.5 c 128,-1,18
 656 672 656 672 670.5 605 c 128,-1,19
 685 538 685 538 695 475.5 c 128,-1,20
 705 413 705 413 705 358 c 0,21,22
 705 281 705 281 621 113 c 1,23,24
 519 51 519 51 344.5 15.5 c 128,-1,25
 170 -20 170 -20 0 -20 c 0,0,1
EndSplineSet
EndChar
StartChar: beh_dotless_alt.medi
Encoding: 65553 -1 117
Width: 868
GlyphClass: 2
Flags: W
LayerCount: 2
Fore
SplineSet
643 528 m 0,0,1
 678 528 678 528 702 510 c 1,2,3
 632 340 632 340 586 254 c 1,4,5
 728 164 728 164 889 164 c 0,6,7
 909 164 909 164 909 143 c 2,8,-1
 909 0 l 2,9,10
 909 -20 909 -20 889 -20 c 0,11,12
 665 -20 665 -20 508 121 c 1,13,-1
 489 93 l 1,14,-1
 469 68 l 1,15,16
 454 52 454 52 378 30.5 c 128,-1,17
 302 9 302 9 202.5 -5.5 c 128,-1,18
 103 -20 103 -20 0 -20 c 0,19,20
 -20 -20 -20 -20 -20 0 c 2,21,-1
 -20 143 l 2,22,23
 -20 164 -20 164 0 164 c 0,24,25
 320 164 320 164 399 219 c 0,26,27
 425 236 425 236 455.5 283.5 c 128,-1,28
 486 331 486 331 527 411 c 1,29,-1
 569 489 l 2,30,31
 591 528 591 528 643 528 c 0,0,1
EndSplineSet
EndChar
StartChar: diagonal
Encoding: 65874 -1 749
Width: 1024
GlyphClass: 2
Flags: W
LayerCount: 2
Fore
SplineSet
78 1270 m 1,0,1
 62 1337 62 1337 62 1364 c 0,2,3
 62 1376 62 1376 66 1378 c 0,4,5
 122 1407 122 1407 435 1558 c 128,-1,6
 748 1709 748 1709 909 1784 c 1,7,8
 943 1759 943 1759 943 1723 c 1,9,-1
 942 1708 l 1,10,11
 932 1664 932 1664 883 1642 c 0,12,13
 496 1468 496 1468 327 1388.5 c 128,-1,14
 158 1309 158 1309 78 1270 c 1,0,1
EndSplineSet
EndChar
StartChar: feh_dotless.isol
Encoding: 65542 -1 57
Width: 2044
GlyphClass: 2
Flags: W
LayerCount: 2
Fore
SplineSet
772 -20 m 0,0,1
 164 -20 164 -20 164 391 c 0,2,3
 164 549 164 549 197 655 c 1,4,-1
 283 655 l 1,5,6
 274 588 274 588 274 537 c 0,7,8
 274 390 274 390 331.5 312.5 c 128,-1,9
 389 235 389 235 513 199.5 c 128,-1,10
 637 164 637 164 823 164 c 0,11,12
 1062 164 1062 164 1352.5 212 c 128,-1,13
 1643 260 1643 260 1806 334 c 1,14,15
 1792 448 1792 448 1774 522 c 1,16,17
 1605 391 1605 391 1432 391 c 0,18,19
 1327 391 1327 391 1259.5 469 c 128,-1,20
 1192 547 1192 547 1192 672 c 0,21,22
 1192 791 1192 791 1233 900.5 c 128,-1,23
 1274 1010 1274 1010 1343 1074.5 c 128,-1,24
 1412 1139 1412 1139 1491 1139 c 0,25,26
 1612 1139 1612 1139 1709 1051.5 c 128,-1,27
 1806 964 1806 964 1863.5 799.5 c 128,-1,28
 1921 635 1921 635 1921 440 c 0,29,30
 1921 363 1921 363 1837 195 c 1,31,32
 1678 95 1678 95 1385 37.5 c 128,-1,33
 1092 -20 1092 -20 772 -20 c 0,0,1
1489 573 m 0,34,35
 1608 573 1608 573 1743 633 c 1,36,37
 1638 934 1638 934 1454 934 c 0,38,39
 1382 934 1382 934 1333 868 c 128,-1,40
 1284 802 1284 802 1284 719 c 0,41,42
 1284 643 1284 643 1333.5 608 c 128,-1,43
 1383 573 1383 573 1489 573 c 0,34,35
EndSplineSet
EndChar
StartChar: fourdots.above
Encoding: 65837 -1 690
Width: 1024
GlyphClass: 2
Flags: W
LayerCount: 2
Fore
SplineSet
479 961 m 1,0,1
 424 880 424 880 336 797 c 1,2,3
 237 873 237 873 176 944 c 1,4,5
 223 987 223 987 332 1106 c 1,6,7
 353 1083 353 1083 479 961 c 1,0,1
842 995 m 1,8,9
 788 916 788 916 698 831 c 1,10,11
 604 903 604 903 539 979 c 1,12,13
 581 1017 581 1017 694 1141 c 1,14,15
 716 1117 716 1117 842 995 c 1,8,9
418 1350 m 1,16,17
 364 1271 364 1271 274 1186 c 1,18,19
 177 1260 177 1260 115 1333 c 1,20,21
 157 1371 157 1371 270 1495 c 1,22,23
 286 1478 286 1478 418 1350 c 1,16,17
780 1384 m 1,24,25
 726 1306 726 1306 637 1221 c 1,26,27
 538 1297 538 1297 477 1368 c 1,28,29
 524 1411 524 1411 633 1530 c 1,30,-1
 709 1453 l 1,31,-1
 780 1384 l 1,24,25
EndSplineSet
EndChar
StartChar: fourdots.below
Encoding: 65838 -1 691
Width: 1024
GlyphClass: 2
Flags: W
LayerCount: 2
Fore
SplineSet
500 -752 m 1,0,1
 448 -828 448 -828 356 -915 c 1,2,3
 259 -841 259 -841 197 -768 c 1,4,5
 239 -730 239 -730 352 -606 c 1,6,7
 374 -630 374 -630 500 -752 c 1,0,1
862 -717 m 1,8,9
 807 -798 807 -798 719 -881 c 1,10,11
 622 -807 622 -807 559 -733 c 1,12,13
 606 -690 606 -690 715 -571 c 1,14,15
 755 -615 755 -615 791 -649 c 128,-1,16
 827 -683 827 -683 862 -717 c 1,8,9
438 -362 m 1,17,18
 383 -443 383 -443 295 -526 c 1,19,20
 196 -450 196 -450 135 -379 c 1,21,22
 182 -336 182 -336 291 -217 c 1,23,24
 312 -240 312 -240 438 -362 c 1,17,18
801 -328 m 1,25,26
 747 -407 747 -407 657 -492 c 1,27,28
 563 -420 563 -420 498 -344 c 1,29,30
 540 -306 540 -306 653 -182 c 1,31,32
 675 -206 675 -206 801 -328 c 1,25,26
EndSplineSet
EndChar
StartChar: hah_alt.fina
Encoding: 65873 -1 748
Width: 1722
GlyphClass: 2
Flags: W
LayerCount: 2
Fore
SplineSet
309 -694 m 1,0,1
 280 -621 280 -621 261 -530.5 c 128,-1,2
 242 -440 242 -440 242 -373 c 0,3,4
 242 -183 242 -183 324.5 -24.5 c 128,-1,5
 407 134 407 134 559 247.5 c 128,-1,6
 711 361 711 361 913 418 c 1,7,8
 851 449 851 449 796 481 c 128,-1,9
 741 513 741 513 687.5 539 c 128,-1,10
 634 565 634 565 579 581.5 c 128,-1,11
 524 598 524 598 463 598 c 0,12,13
 350 598 350 598 255 539 c 2,14,-1
 199 504 l 1,15,16
 185 518 185 518 174.5 543.5 c 128,-1,17
 164 569 164 569 164 598 c 0,18,19
 164 690 164 690 245 744.5 c 128,-1,20
 326 799 326 799 455 799 c 0,21,22
 549 799 549 799 645 769 c 128,-1,23
 741 739 741 739 850 678 c 0,24,25
 1059 561 1059 561 1154.5 526 c 128,-1,26
 1250 491 1250 491 1364.5 475.5 c 128,-1,27
 1479 460 1479 460 1616 455 c 1,28,-1
 1524 276 l 1,29,30
 1347 297 1347 297 1257 311 c 1,31,-1
 1243 311 l 1,32,33
 1290 238 1290 238 1337 210 c 128,-1,34
 1384 182 1384 182 1467.5 173 c 128,-1,35
 1551 164 1551 164 1745 164 c 0,36,37
 1765 164 1765 164 1765 143 c 2,38,-1
 1765 0 l 2,39,40
 1765 -20 1765 -20 1745 -20 c 0,41,42
 1538 -18 1538 -18 1425.5 9.5 c 128,-1,43
 1313 37 1313 37 1247 99.5 c 128,-1,44
 1181 162 1181 162 1126 297 c 1,45,46
 915 259 915 259 734 155 c 128,-1,47
 553 51 553 51 461 -84.5 c 128,-1,48
 369 -220 369 -220 369 -373 c 0,49,50
 369 -434 369 -434 381 -496.5 c 128,-1,51
 393 -559 393 -559 428 -651 c 1,52,-1
 309 -694 l 1,0,1
EndSplineSet
EndChar
StartChar: hah_alt.isol
Encoding: 65872 -1 747
Width: 1657
GlyphClass: 2
Flags: W
LayerCount: 2
Fore
SplineSet
309 -694 m 1,0,1
 280 -621 280 -621 261 -530.5 c 128,-1,2
 242 -440 242 -440 242 -373 c 0,3,4
 242 -183 242 -183 324.5 -24.5 c 128,-1,5
 407 134 407 134 559 247.5 c 128,-1,6
 711 361 711 361 913 418 c 1,7,8
 851 449 851 449 796 481 c 128,-1,9
 741 513 741 513 687.5 539 c 128,-1,10
 634 565 634 565 579 581.5 c 128,-1,11
 524 598 524 598 463 598 c 0,12,13
 350 598 350 598 255 539 c 2,14,-1
 199 504 l 1,15,16
 185 518 185 518 174.5 543.5 c 128,-1,17
 164 569 164 569 164 598 c 0,18,19
 164 690 164 690 245 744.5 c 128,-1,20
 326 799 326 799 455 799 c 0,21,22
 549 799 549 799 645 769 c 128,-1,23
 741 739 741 739 850 678 c 0,24,25
 1059 561 1059 561 1154.5 526 c 128,-1,26
 1250 491 1250 491 1364.5 475.5 c 128,-1,27
 1479 460 1479 460 1616 455 c 1,28,-1
 1524 276 l 1,29,30
 1347 297 1347 297 1257 311 c 1,31,32
 1106 306 1106 306 936 246.5 c 128,-1,33
 766 187 766 187 638 94 c 128,-1,34
 510 1 510 1 439.5 -119.5 c 128,-1,35
 369 -240 369 -240 369 -373 c 0,36,37
 369 -434 369 -434 381 -496.5 c 128,-1,38
 393 -559 393 -559 428 -651 c 1,39,-1
 309 -694 l 1,0,1
EndSplineSet
EndChar
StartChar: hamza_medial
Encoding: 65842 -1 695
Width: 0
GlyphClass: 2
Flags: W
LayerCount: 2
Fore
SplineSet
295 1194 m 1,0,-1
 297 1206 l 1,1,2
 297 1219 297 1219 286 1232 c 128,-1,3
 275 1245 275 1245 258 1245 c 0,4,5
 217 1245 217 1245 176 1213 c 128,-1,6
 135 1181 135 1181 117 1130 c 1,7,8
 164 1070 164 1070 263 1070 c 0,9,10
 316 1070 316 1070 410 1090 c 1,11,-1
 403 973 l 1,12,13
 270 937 270 937 195.5 906.5 c 128,-1,14
 121 876 121 876 29 827 c 1,15,-1
 23 944 l 1,16,17
 50 963 50 963 81 979 c 128,-1,18
 112 995 112 995 141 1012 c 1,19,20
 31 1032 31 1032 31 1133 c 0,21,22
 31 1188 31 1188 63 1243.5 c 128,-1,23
 95 1299 95 1299 149.5 1335.5 c 128,-1,24
 204 1372 204 1372 254 1372 c 0,25,26
 311 1372 311 1372 342 1343.5 c 128,-1,27
 373 1315 373 1315 373 1260 c 0,28,29
 373 1243 373 1243 366.5 1218 c 128,-1,30
 360 1193 360 1193 352 1178 c 1,31,-1
 295 1194 l 1,0,-1
EndSplineSet
EndChar
StartChar: onedot.above
Encoding: 65545 -1 61
Width: 1024
GlyphClass: 2
Flags: W
LayerCount: 2
Fore
SplineSet
639 969 m 1,0,1
 588 892 588 892 483 793 c 1,2,3
 376 876 376 876 311 950 c 1,4,5
 413 1050 413 1050 479 1126 c 1,6,7
 558 1040 558 1040 639 969 c 1,0,1
EndSplineSet
EndChar
StartChar: onedot.below
Encoding: 65554 -1 121
Width: 1024
GlyphClass: 2
Flags: W
LayerCount: 2
Fore
SplineSet
598 -346 m 1,0,1
 547 -423 547 -423 442 -522 c 1,2,3
 335 -439 335 -439 270 -365 c 1,4,5
 377 -260 377 -260 438 -188 c 1,6,7
 521 -279 521 -279 598 -346 c 1,0,1
EndSplineSet
EndChar
StartChar: patah.wide
Encoding: 65865 -1 738
Width: 700
GlyphClass: 2
Flags: W
LayerCount: 2
Fore
SplineSet
0 287 m 1,0,-1
 0 449 l 1,1,-1
 700 449 l 1,2,-1
 700 287 l 1,3,-1
 0 287 l 1,0,-1
EndSplineSet
EndChar
StartChar: smallv.arabic
Encoding: 65840 -1 693
Width: 563
GlyphClass: 2
Flags: W
LayerCount: 2
Fore
SplineSet
348 1118 m 1,0,1
 361 1195 361 1195 406.5 1306 c 128,-1,2
 452 1417 452 1417 487 1464 c 1,3,4
 512 1461 512 1461 531.5 1440 c 128,-1,5
 551 1419 551 1419 551 1378 c 0,6,7
 551 1360 551 1360 540 1338.5 c 128,-1,8
 529 1317 529 1317 509 1279 c 128,-1,9
 489 1241 489 1241 461.5 1179.5 c 128,-1,10
 434 1118 434 1118 401 1020 c 1,11,12
 339 984 339 984 254 971 c 1,13,14
 201 1085 201 1085 146 1194 c 128,-1,15
 91 1303 91 1303 18 1405 c 1,16,-1
 63 1416 l 1,17,18
 90 1424 90 1424 113 1424 c 0,19,20
 152 1424 152 1424 183 1399 c 128,-1,21
 214 1374 214 1374 263 1291.5 c 128,-1,22
 312 1209 312 1209 348 1118 c 1,0,1
EndSplineSet
EndChar
StartChar: threedots.above
Encoding: 65547 -1 63
Width: 1151
GlyphClass: 2
Flags: W
LayerCount: 2
Fore
SplineSet
727 1231 m 1,0,1
 631 1128 631 1128 588 1098 c 1,2,3
 500 1158 500 1158 436 1231 c 1,4,5
 490 1279 490 1279 580 1378 c 1,6,7
 607 1342 607 1342 653.5 1297 c 128,-1,8
 700 1252 700 1252 727 1231 c 1,0,1
547 961 m 1,9,10
 493 882 493 882 403 797 c 1,11,12
 306 871 306 871 244 944 c 1,13,14
 286 982 286 982 399 1106 c 1,15,16
 415 1089 415 1089 547 961 c 1,9,10
930 995 m 1,17,18
 876 916 876 916 786 831 c 1,19,20
 692 903 692 903 627 979 c 1,21,22
 669 1017 669 1017 782 1141 c 1,23,24
 804 1117 804 1117 930 995 c 1,17,18
EndSplineSet
EndChar
StartChar: threedots.below
Encoding: 65548 -1 64
Width: 1057
GlyphClass: 2
Flags: W
LayerCount: 2
Fore
SplineSet
526 -330 m 1,0,1
 471 -411 471 -411 383 -494 c 1,2,3
 286 -420 286 -420 223 -346 c 1,4,5
 288 -287 288 -287 379 -184 c 1,6,7
 419 -228 419 -228 455 -262 c 128,-1,8
 491 -296 491 -296 526 -330 c 1,0,1
909 -295 m 1,9,10
 854 -376 854 -376 766 -459 c 1,11,12
 665 -382 665 -382 606 -311 c 1,13,14
 675 -248 675 -248 762 -150 c 1,15,16
 783 -173 783 -173 909 -295 c 1,9,10
733 -594 m 1,17,18
 637 -697 637 -697 594 -727 c 1,19,20
 506 -667 506 -667 442 -594 c 1,21,22
 491 -550 491 -550 586 -446 c 1,23,24
 642 -520 642 -520 733 -594 c 1,17,18
EndSplineSet
EndChar
StartChar: threedots.horz.below
Encoding: 65839 -1 692
Width: 1161
GlyphClass: 2
Flags: W
LayerCount: 2
Fore
SplineSet
745 -358 m 1,0,1
 690 -439 690 -439 602 -522 c 1,2,3
 503 -446 503 -446 442 -375 c 1,4,5
 507 -316 507 -316 598 -213 c 1,6,7
 619 -236 619 -236 745 -358 c 1,0,1
1108 -324 m 1,8,9
 1054 -402 1054 -402 965 -487 c 1,10,11
 866 -411 866 -411 805 -340 c 1,12,13
 852 -297 852 -297 961 -178 c 1,14,15
 1001 -222 1001 -222 1037 -256 c 128,-1,16
 1073 -290 1073 -290 1108 -324 c 1,8,9
391 -387 m 1,17,18
 336 -468 336 -468 248 -551 c 1,19,20
 147 -474 147 -474 88 -403 c 1,21,22
 141 -355 141 -355 244 -242 c 1,23,24
 265 -265 265 -265 391 -387 c 1,17,18
EndSplineSet
EndChar
StartChar: threedots.rev.above
Encoding: 65845 -1 698
Width: 1151
GlyphClass: 2
Flags: W
LayerCount: 2
Fore
SplineSet
532 1196 m 1,0,1
 477 1115 477 1115 389 1032 c 1,2,3
 288 1109 288 1109 229 1180 c 1,4,5
 298 1243 298 1243 385 1341 c 1,6,7
 406 1318 406 1318 532 1196 c 1,0,1
915 1231 m 1,8,9
 860 1150 860 1150 772 1067 c 1,10,11
 673 1143 673 1143 612 1214 c 1,12,13
 666 1264 666 1264 768 1376 c 1,14,15
 789 1353 789 1353 915 1231 c 1,8,9
739 932 m 1,16,17
 643 829 643 829 600 799 c 1,18,19
 509 861 509 861 449 932 c 1,20,21
 528 1005 528 1005 592 1079 c 1,22,23
 619 1043 619 1043 665.5 998 c 128,-1,24
 712 953 712 953 739 932 c 1,16,17
EndSplineSet
EndChar
StartChar: threedots.rev.below
Encoding: 65846 -1 699
Width: 1081
GlyphClass: 2
Flags: W
LayerCount: 2
Fore
SplineSet
727 -262 m 1,0,1
 631 -365 631 -365 588 -395 c 1,2,3
 500 -335 500 -335 436 -262 c 1,4,5
 490 -214 490 -214 580 -115 c 1,6,7
 607 -151 607 -151 653.5 -196 c 128,-1,8
 700 -241 700 -241 727 -262 c 1,0,1
547 -532 m 1,9,10
 493 -611 493 -611 403 -696 c 1,11,12
 306 -622 306 -622 244 -549 c 1,13,14
 286 -511 286 -511 399 -387 c 1,15,16
 415 -404 415 -404 547 -532 c 1,9,10
930 -498 m 1,17,18
 876 -577 876 -577 786 -662 c 1,19,20
 686 -583 686 -583 627 -514 c 1,21,22
 669 -476 669 -476 782 -352 c 1,23,24
 804 -376 804 -376 930 -498 c 1,17,18
EndSplineSet
EndChar
StartChar: threedots.small.below
Encoding: 65836 -1 689
Width: 1057
GlyphClass: 2
Flags: W
LayerCount: 2
Fore
SplineSet
539 -362 m 1,0,1
 527 -382 527 -382 496.5 -417 c 128,-1,2
 466 -452 466 -452 438 -477 c 1,3,4
 361 -416 361 -416 326 -375 c 1,5,6
 386 -317 386 -317 434 -260 c 1,7,8
 470 -299 470 -299 539 -362 c 1,0,1
807 -338 m 1,9,10
 777 -386 777 -386 707 -453 c 1,11,12
 635 -396 635 -396 594 -350 c 1,13,14
 647 -299 647 -299 702 -236 c 1,15,16
 749 -285 749 -285 807 -338 c 1,9,10
684 -547 m 1,17,18
 622 -616 622 -616 586 -641 c 1,19,20
 518 -594 518 -594 479 -547 c 1,21,22
 509 -520 509 -520 580 -444 c 1,23,24
 618 -495 618 -495 684 -547 c 1,17,18
EndSplineSet
EndChar
StartChar: twodots.above
Encoding: 65546 -1 62
Width: 1024
GlyphClass: 2
Flags: W
LayerCount: 2
Fore
SplineSet
479 961 m 1,0,1
 424 880 424 880 336 797 c 1,2,3
 237 873 237 873 176 944 c 1,4,5
 223 987 223 987 332 1106 c 1,6,7
 353 1083 353 1083 479 961 c 1,0,1
842 995 m 1,8,9
 788 916 788 916 698 831 c 1,10,11
 604 903 604 903 539 979 c 1,12,13
 581 1017 581 1017 694 1141 c 1,14,15
 716 1117 716 1117 842 995 c 1,8,9
EndSplineSet
EndChar
StartChar: twodots.small.above
Encoding: 65829 -1 682
Width: 1024
GlyphClass: 2
Flags: W
LayerCount: 2
Fore
SplineSet
487 963 m 1,0,1
 440 895 440 895 387 848 c 1,2,3
 310 909 310 909 276 952 c 1,4,5
 321 993 321 993 385 1065 c 1,6,-1
 438 1011 l 1,7,-1
 487 963 l 1,0,1
741 987 m 1,8,9
 698 925 698 925 641 872 c 1,10,11
 565 932 565 932 530 975 c 1,12,13
 582 1025 582 1025 639 1090 c 1,14,15
 674 1051 674 1051 741 987 c 1,8,9
EndSplineSet
EndChar
StartChar: twodots.small.below
Encoding: 65830 -1 683
Width: 1024
GlyphClass: 2
Flags: W
LayerCount: 2
Fore
SplineSet
446 -356 m 1,0,1
 399 -424 399 -424 346 -471 c 1,2,3
 272 -412 272 -412 236 -367 c 1,4,5
 277 -331 277 -331 344 -254 c 1,6,-1
 397 -308 l 1,7,-1
 446 -356 l 1,0,1
700 -332 m 1,8,9
 647 -405 647 -405 600 -446 c 1,10,11
 522 -384 522 -384 489 -344 c 1,12,13
 541 -294 541 -294 598 -229 c 1,14,15
 633 -268 633 -268 700 -332 c 1,8,9
EndSplineSet
EndChar
StartChar: twodots.vert.above
Encoding: 65831 -1 684
Width: 647
GlyphClass: 2
Flags: W
LayerCount: 2
Fore
SplineSet
479 961 m 1,0,1
 424 880 424 880 336 797 c 1,2,3
 237 873 237 873 176 944 c 1,4,5
 223 987 223 987 332 1106 c 1,6,7
 353 1083 353 1083 479 961 c 1,0,1
434 1364 m 1,8,9
 379 1283 379 1283 291 1200 c 1,10,11
 190 1277 190 1277 131 1348 c 1,12,13
 184 1396 184 1396 287 1509 c 1,14,15
 308 1486 308 1486 434 1364 c 1,8,9
EndSplineSet
EndChar
StartChar: twodots.vert.small.above
Encoding: 65833 -1 686
Width: 647
GlyphClass: 2
Flags: W
LayerCount: 2
Fore
SplineSet
426 1018 m 1,0,1
 396 970 396 970 326 903 c 1,2,3
 246 968 246 968 215 1008 c 1,4,5
 264 1052 264 1052 324 1120 c 1,6,7
 351 1089 351 1089 376 1066 c 128,-1,8
 401 1043 401 1043 426 1018 c 1,0,1
395 1300 m 1,9,10
 357 1243 357 1243 295 1186 c 1,11,12
 220 1246 220 1246 182 1288 c 1,13,14
 247 1351 247 1351 293 1403 c 1,15,16
 342 1349 342 1349 395 1300 c 1,9,10
EndSplineSet
EndChar
StartChar: twodots.vert.small.below
Encoding: 65834 -1 687
Width: 676
GlyphClass: 2
Flags: W
LayerCount: 2
Fore
SplineSet
426 -670 m 1,0,1
 388 -727 388 -727 326 -784 c 1,2,3
 244 -717 244 -717 215 -680 c 1,4,5
 260 -639 260 -639 324 -567 c 1,6,-1
 376 -621 l 1,7,-1
 426 -670 l 1,0,1
395 -387 m 1,8,9
 365 -435 365 -435 295 -502 c 1,10,11
 223 -445 223 -445 182 -399 c 1,12,13
 239 -344 239 -344 293 -285 c 1,14,15
 337 -333 337 -333 395 -387 c 1,8,9
EndSplineSet
EndChar
StartChar: uni066E.fina
Encoding: 65539 -1 54
Width: 2050
GlyphClass: 2
Flags: W
AnchorPoint: "Anchor-1" 960 -160 basechar 0
AnchorPoint: "Anchor-0" 940 1000 basechar 0
LayerCount: 2
Fore
SplineSet
2071 -20 m 0,0,1
 1825 -20 1825 -20 1659 150 c 1,2,3
 1509 69 1509 69 1296.5 24.5 c 128,-1,4
 1084 -20 1084 -20 834 -20 c 0,5,6
 545 -20 545 -20 395.5 85 c 128,-1,7
 246 190 246 190 246 391 c 0,8,9
 246 549 246 549 279 655 c 1,10,-1
 365 655 l 1,11,12
 363 644 363 644 359.5 605.5 c 128,-1,13
 356 567 356 567 356 537 c 0,14,15
 356 396 356 396 412 317 c 128,-1,16
 468 238 468 238 585 201 c 128,-1,17
 702 164 702 164 885 164 c 0,18,19
 1012 164 1012 164 1169 185 c 128,-1,20
 1326 206 1326 206 1446 238 c 128,-1,21
 1566 270 1566 270 1608 301.5 c 128,-1,22
 1650 333 1650 333 1688 402 c 2,23,-1
 1722 463 l 1,24,25
 1745 501 1745 501 1796 501 c 0,26,27
 1831 501 1831 501 1855 483 c 1,28,29
 1789 319 1789 319 1755 262 c 1,30,31
 1895 164 1895 164 2071 164 c 0,32,33
 2091 164 2091 164 2091 143 c 2,34,-1
 2091 0 l 2,35,36
 2091 -20 2091 -20 2071 -20 c 0,0,1
EndSplineSet
EndChar
StartChar: uni066E.init
Encoding: 65550 -1 114
Width: 664
GlyphClass: 2
Flags: W
AnchorPoint: "Anchor-1" 300 -160 basechar 0
AnchorPoint: "Anchor-0" 230 1100 basechar 0
LayerCount: 2
Fore
SplineSet
0 -20 m 0,0,1
 -20 -20 -20 -20 -20 0 c 2,2,-1
 -20 143 l 2,3,4
 -20 164 -20 164 0 164 c 0,5,6
 107 164 107 164 223 187.5 c 128,-1,7
 339 211 339 211 426 252 c 1,8,9
 397 359 397 359 339 516 c 0,10,11
 293 640 293 640 293 678 c 0,12,13
 293 733 293 733 337 788 c 128,-1,14
 381 843 381 843 451 881 c 1,15,16
 461 811 461 811 476.5 741.5 c 128,-1,17
 492 672 492 672 506.5 605 c 128,-1,18
 521 538 521 538 531 475.5 c 128,-1,19
 541 413 541 413 541 358 c 0,20,21
 541 281 541 281 457 113 c 1,22,23
 234 -20 234 -20 0 -20 c 0,0,1
EndSplineSet
EndChar
StartChar: uni066F.fina
Encoding: 65544 -1 60
Width: 1546
GlyphClass: 2
Flags: W
AnchorPoint: "Anchor-1" 740 -840 basechar 0
AnchorPoint: "Anchor-0" 900 1060 basechar 0
LayerCount: 2
Fore
SplineSet
995 819 m 0,0,1
 1095 819 1095 819 1189.5 733 c 128,-1,2
 1284 647 1284 647 1348 495.5 c 128,-1,3
 1412 344 1412 344 1430 164 c 1,4,-1
 1481 163 l 1,5,-1
 1567 164 l 2,6,7
 1587 164 1587 164 1587 143 c 2,8,-1
 1587 0 l 2,9,10
 1587 -20 1587 -20 1567 -20 c 2,11,-1
 1434 -20 l 1,12,13
 1421 -203 1421 -203 1315 -354.5 c 128,-1,14
 1209 -506 1209 -506 1020 -601 c 128,-1,15
 831 -696 831 -696 641 -696 c 0,16,17
 416 -696 416 -696 290 -577.5 c 128,-1,18
 164 -459 164 -459 164 -244 c 0,19,20
 164 -169 164 -169 172.5 -112.5 c 128,-1,21
 181 -56 181 -56 211 68 c 1,22,-1
 299 47 l 1,23,24
 272 -56 272 -56 272 -125 c 0,25,26
 272 -306 272 -306 369 -402 c 128,-1,27
 466 -498 466 -498 647 -498 c 0,28,29
 860 -498 860 -498 1039.5 -414.5 c 128,-1,30
 1219 -331 1219 -331 1313 -188 c 1,31,-1
 1303 -18 l 1,32,33
 994 -8 994 -8 878.5 25 c 128,-1,34
 763 58 763 58 709 128 c 128,-1,35
 655 198 655 198 655 311 c 0,36,37
 655 434 655 434 703.5 552.5 c 128,-1,38
 752 671 752 671 832.5 745 c 128,-1,39
 913 819 913 819 995 819 c 0,0,1
1274 166 m 1,40,41
 1244 303 1244 303 1194.5 404 c 128,-1,42
 1145 505 1145 505 1083 559.5 c 128,-1,43
 1021 614 1021 614 958 614 c 0,44,45
 910 614 910 614 861 577.5 c 128,-1,46
 812 541 812 541 780 484 c 128,-1,47
 748 427 748 427 748 379 c 0,48,49
 748 303 748 303 807 257 c 128,-1,50
 866 211 866 211 1010 184 c 1,51,52
 1069 171 1069 171 1274 166 c 1,40,41
EndSplineSet
EndChar
StartChar: uni066F.medi
Encoding: 65541 -1 56
Width: 932
GlyphClass: 2
Flags: W
AnchorPoint: "Anchor-1" 460 -160 basechar 0
AnchorPoint: "Anchor-0" 430 1080 basechar 0
LayerCount: 2
Fore
SplineSet
209 172 m 1,0,1
 121 271 121 271 121 379 c 0,2,3
 121 440 121 440 134.5 520.5 c 128,-1,4
 148 601 148 601 164 631 c 0,5,6
 232 751 232 751 333 816 c 128,-1,7
 434 881 434 881 545 881 c 0,8,9
 608 881 608 881 666.5 818.5 c 128,-1,10
 725 756 725 756 761 654 c 128,-1,11
 797 552 797 552 797 449 c 0,12,13
 797 294 797 294 694 176 c 1,14,15
 784 164 784 164 952 164 c 0,16,17
 973 164 973 164 973 143 c 2,18,-1
 973 0 l 2,19,20
 973 -20 973 -20 952 -20 c 0,21,22
 644 -20 644 -20 459 57 c 1,23,24
 373 16 373 16 268 -2 c 128,-1,25
 163 -20 163 -20 2 -20 c 0,26,27
 -20 -20 -20 -20 -20 2 c 2,28,-1
 -20 141 l 2,29,30
 -20 164 -20 164 2 164 c 0,31,32
 141 164 141 164 209 172 c 1,0,1
211 401 m 1,33,34
 311 284 311 284 459 227 c 1,35,36
 596 281 596 281 702 375 c 1,37,38
 696 436 696 436 663 508 c 128,-1,39
 630 580 630 580 589 628 c 128,-1,40
 548 676 548 676 522 676 c 0,41,42
 453 676 453 676 359 593 c 128,-1,43
 265 510 265 510 211 401 c 1,33,34
EndSplineSet
EndChar
StartChar: uni06A1.fina
Encoding: 65543 -1 58
Width: 1970
GlyphClass: 2
Flags: W
AnchorPoint: "Anchor-1" 1460 -160 basechar 0
AnchorPoint: "Anchor-0" 1460 1100 basechar 0
LayerCount: 2
Fore
SplineSet
1991 -20 m 0,0,1
 1692 -20 1692 -20 1495 76 c 1,2,3
 1367 30 1367 30 1180.5 5 c 128,-1,4
 994 -20 994 -20 772 -20 c 0,5,6
 164 -20 164 -20 164 391 c 0,7,8
 164 549 164 549 197 655 c 1,9,-1
 283 655 l 1,10,11
 274 588 274 588 274 537 c 0,12,13
 274 390 274 390 331.5 312.5 c 128,-1,14
 389 235 389 235 513 199.5 c 128,-1,15
 637 164 637 164 823 164 c 0,16,17
 1052 164 1052 164 1255 205 c 1,18,19
 1159 308 1159 308 1159 420 c 0,20,21
 1159 468 1159 468 1172 554 c 128,-1,22
 1185 640 1185 640 1202 672 c 0,23,24
 1270 792 1270 792 1371 857 c 128,-1,25
 1472 922 1472 922 1583 922 c 0,26,27
 1646 922 1646 922 1704.5 860 c 128,-1,28
 1763 798 1763 798 1799 695 c 128,-1,29
 1835 592 1835 592 1835 489 c 0,30,31
 1835 315 1835 315 1696 190 c 1,32,33
 1822 164 1822 164 1991 164 c 0,34,35
 2011 164 2011 164 2011 143 c 2,36,-1
 2011 0 l 2,37,38
 2011 -20 2011 -20 1991 -20 c 0,0,1
1249 442 m 1,39,40
 1341 333 1341 333 1473 266 c 1,41,42
 1635 325 1635 325 1741 416 c 1,43,44
 1735 477 1735 477 1702 549 c 128,-1,45
 1669 621 1669 621 1628 669 c 128,-1,46
 1587 717 1587 717 1561 717 c 0,47,48
 1493 717 1493 717 1398.5 635 c 128,-1,49
 1304 553 1304 553 1249 442 c 1,39,40
EndSplineSet
EndChar
StartChar: uni06AA.init
Encoding: 65668 -1 421
Width: 2138
GlyphClass: 2
Flags: W
AnchorPoint: "Anchor-1" 800 -160 basechar 0
AnchorPoint: "Anchor-0" 620 1330 basechar 0
LayerCount: 2
Fore
SplineSet
0 -20 m 0,0,1
 -20 -20 -20 -20 -20 0 c 2,2,-1
 -20 143 l 2,3,4
 -20 164 -20 164 0 164 c 2,5,-1
 187 164 l 2,6,7
 812 164 812 164 1260 183.5 c 128,-1,8
 1708 203 1708 203 1925 236 c 1,9,10
 1891 337 1891 337 1809.5 385.5 c 128,-1,11
 1728 434 1728 434 1587 434 c 0,12,13
 1441 434 1441 434 1098 415 c 0,14,15
 755 395 755 395 586 395 c 0,16,17
 424 395 424 395 352.5 446.5 c 128,-1,18
 281 498 281 498 281 618 c 0,19,20
 281 751 281 751 372 871 c 128,-1,21
 463 991 463 991 635 1091.5 c 128,-1,22
 807 1192 807 1192 961 1229 c 1,23,24
 967 1198 967 1198 967 1168 c 0,25,26
 967 1042 967 1042 858 995 c 1,27,28
 698 929 698 929 532.5 822.5 c 128,-1,29
 367 716 367 716 367 662 c 0,30,31
 367 630 367 630 455.5 606 c 128,-1,32
 544 582 544 582 629 582 c 0,33,34
 740 582 740 582 1100 599 c 256,35,36
 1460 616 1460 616 1581 616 c 256,37,38
 1702 616 1702 616 1802 575.5 c 128,-1,39
 1902 535 1902 535 1958.5 459.5 c 128,-1,40
 2015 384 2015 384 2015 281 c 0,41,42
 2015 202 2015 202 1964 86 c 1,43,44
 1677 37 1677 37 1133.5 8.5 c 128,-1,45
 590 -20 590 -20 0 -20 c 0,0,1
EndSplineSet
EndChar
StartChar: uni06AA.medi
Encoding: 65669 -1 422
Width: 2261
GlyphClass: 2
Flags: W
AnchorPoint: "Anchor-1" 800 -160 basechar 0
AnchorPoint: "Anchor-0" 620 1330 basechar 0
LayerCount: 2
Fore
SplineSet
2281 -20 m 0,0,1
 2198 -20 2198 -20 2114 7.5 c 128,-1,2
 2030 35 2030 35 1964 86 c 1,3,4
 1677 37 1677 37 1133.5 8.5 c 128,-1,5
 590 -20 590 -20 0 -20 c 0,6,7
 -20 -20 -20 -20 -20 0 c 2,8,-1
 -20 143 l 2,9,10
 -20 164 -20 164 0 164 c 2,11,-1
 187 164 l 2,12,13
 812 164 812 164 1260 183.5 c 128,-1,14
 1708 203 1708 203 1925 236 c 1,15,16
 1891 337 1891 337 1809.5 385.5 c 128,-1,17
 1728 434 1728 434 1587 434 c 0,18,19
 1441 434 1441 434 1098 415 c 0,20,21
 755 395 755 395 586 395 c 0,22,23
 424 395 424 395 352.5 446.5 c 128,-1,24
 281 498 281 498 281 618 c 0,25,26
 281 751 281 751 372 871 c 128,-1,27
 463 991 463 991 635 1091.5 c 128,-1,28
 807 1192 807 1192 961 1229 c 1,29,30
 967 1198 967 1198 967 1168 c 0,31,32
 967 1042 967 1042 858 995 c 1,33,34
 698 929 698 929 532.5 822.5 c 128,-1,35
 367 716 367 716 367 662 c 0,36,37
 367 630 367 630 455.5 606 c 128,-1,38
 544 582 544 582 629 582 c 0,39,40
 740 582 740 582 1100 599 c 256,41,42
 1460 616 1460 616 1581 616 c 256,43,44
 1702 616 1702 616 1802 575.5 c 128,-1,45
 1902 535 1902 535 1958.5 459.5 c 128,-1,46
 2015 384 2015 384 2015 281 c 1,47,-1
 2011 236 l 1,48,49
 2133 164 2133 164 2281 164 c 0,50,51
 2302 164 2302 164 2302 143 c 2,52,-1
 2302 0 l 2,53,54
 2302 -20 2302 -20 2281 -20 c 0,0,1
EndSplineSet
EndChar
StartChar: uni06B8.init
Encoding: 65707 -1 473
Width: 848
GlyphClass: 2
Flags: W
AnchorPoint: "Anchor-1" 395 -780 basechar 0
AnchorPoint: "Anchor-0" 520 1680 basechar 0
LayerCount: 2
Fore
SplineSet
0 -20 m 0,0,1
 -20 -20 -20 -20 -20 0 c 2,2,-1
 -20 143 l 2,3,4
 -20 164 -20 164 0 164 c 0,5,6
 169 164 169 164 337.5 183 c 128,-1,7
 506 202 506 202 573 229 c 1,8,9
 524 865 524 865 453 1462 c 1,10,11
 526 1538 526 1538 614 1597 c 1,12,-1
 633 1240 l 1,13,14
 659 808 659 808 667.5 633 c 128,-1,15
 676 458 676 458 678 305 c 1,16,17
 678 221 678 221 594 63 c 0,18,19
 574 27 574 27 389.5 3.5 c 128,-1,20
 205 -20 205 -20 0 -20 c 0,0,1
321 -348 m 1,21,22
 266 -429 266 -429 178 -512 c 1,23,24
 81 -438 81 -438 18 -364 c 1,25,26
 83 -305 83 -305 174 -202 c 1,27,28
 214 -246 214 -246 250 -280 c 128,-1,29
 286 -314 286 -314 321 -348 c 1,21,22
704 -313 m 1,30,31
 649 -394 649 -394 561 -477 c 1,32,33
 460 -400 460 -400 401 -329 c 1,34,35
 470 -266 470 -266 557 -168 c 1,36,37
 578 -191 578 -191 704 -313 c 1,30,31
528 -612 m 1,38,39
 432 -715 432 -715 389 -745 c 1,40,41
 301 -685 301 -685 237 -612 c 1,42,43
 286 -568 286 -568 381 -464 c 1,44,45
 437 -538 437 -538 528 -612 c 1,38,39
EndSplineSet
EndChar
StartChar: uni06C5.fina
Encoding: 65847 -1 701
Width: 1128
GlyphClass: 2
Flags: W
AnchorPoint: "Anchor-1" 480 -840 basechar 0
AnchorPoint: "Anchor-0" 540 1147 basechar 0
LayerCount: 2
Fore
SplineSet
465 -512 m 0,0,1
 385 -512 385 -512 268 -463.5 c 128,-1,2
 151 -415 151 -415 82 -358 c 1,3,-1
 117 -279 l 1,4,5
 249 -324 249 -324 410 -324 c 0,6,7
 556 -324 556 -324 670 -252 c 1,8,9
 648 -243 648 -243 629 -235 c 128,-1,10
 610 -227 610 -227 590 -221 c 128,-1,11
 570 -215 570 -215 548.5 -211 c 128,-1,12
 527 -207 527 -207 500 -207 c 0,13,14
 458 -207 458 -207 387 -238 c 1,15,-1
 350 -176 l 1,16,17
 411 -129 411 -129 440.5 -116.5 c 128,-1,18
 470 -104 470 -104 502 -104 c 0,19,20
 553 -104 553 -104 625 -131 c 1,21,22
 719 -168 719 -168 760 -176 c 1,23,24
 825 -108 825 -108 868 -16 c 1,25,26
 610 -5 610 -5 501 28 c 128,-1,27
 392 61 392 61 340.5 131 c 128,-1,28
 289 201 289 201 289 311 c 0,29,30
 289 434 289 434 337.5 552.5 c 128,-1,31
 386 671 386 671 466.5 745 c 128,-1,32
 547 819 547 819 629 819 c 0,33,34
 727 819 727 819 812.5 732 c 128,-1,35
 898 645 898 645 952 489 c 128,-1,36
 1006 333 1006 333 1006 174 c 2,37,-1
 1006 164 l 1,38,-1
 1149 164 l 2,39,40
 1169 164 1169 164 1169 143 c 2,41,-1
 1169 0 l 2,42,43
 1169 -20 1169 -20 1149 -20 c 2,44,-1
 1067 -20 l 1,45,-1
 981 -18 l 1,46,47
 944 -160 944 -160 866.5 -274 c 128,-1,48
 789 -388 789 -388 685 -450 c 128,-1,49
 581 -512 581 -512 465 -512 c 0,0,1
907 166 m 1,50,51
 887 289 887 289 838 393.5 c 128,-1,52
 789 498 789 498 724 556 c 128,-1,53
 659 614 659 614 592 614 c 0,54,55
 543 614 543 614 494 577.5 c 128,-1,56
 445 541 445 541 413 484 c 128,-1,57
 381 427 381 427 381 379 c 0,58,59
 381 303 381 303 440 257 c 128,-1,60
 499 211 499 211 643 184 c 0,61,62
 708 171 708 171 907 166 c 1,50,51
EndSplineSet
Colour: ffff00
EndChar
StartChar: uni06F4.urdu
Encoding: 65563 -1 254
Width: 1120
GlyphClass: 2
Flags: W
LayerCount: 2
Fore
SplineSet
672 748 m 1,0,1
 638 915 638 915 558 1029 c 128,-1,2
 478 1143 478 1143 395 1143 c 0,3,4
 355 1143 355 1143 333 1120.5 c 128,-1,5
 311 1098 311 1098 311 1067 c 0,6,7
 311 967 311 967 445 695 c 1,8,-1
 518 545 l 2,9,10
 579 418 579 418 615 274 c 128,-1,11
 651 130 651 130 651 -2 c 1,12,-1
 559 -25 l 1,13,14
 529 167 529 167 430 350 c 0,15,16
 291 609 291 609 244 736.5 c 128,-1,17
 197 864 197 864 197 940 c 0,18,19
 197 1037 197 1037 238 1149.5 c 128,-1,20
 279 1262 279 1262 332.5 1305 c 128,-1,21
 386 1348 386 1348 467 1348 c 0,22,23
 536 1348 536 1348 610.5 1264 c 128,-1,24
 685 1180 685 1180 741 1040 c 1,25,26
 796 1160 796 1160 860 1233 c 128,-1,27
 924 1306 924 1306 1051 1399 c 1,28,29
 1057 1360 1057 1360 1057 1316 c 0,30,31
 1057 1247 1057 1247 1037.5 1187 c 128,-1,32
 1018 1127 1018 1127 983 1094 c 0,33,34
 899 1016 899 1016 861.5 959 c 128,-1,35
 824 902 824 902 780 793 c 1,36,-1
 672 748 l 1,0,1
EndSplineSet
EndChar
StartChar: uni06F7.urdu
Encoding: 65564 -1 255
Width: 1012
GlyphClass: 2
Flags: W
LayerCount: 2
Fore
SplineSet
889 211 m 1,0,1
 889 118 889 118 854.5 66 c 128,-1,2
 820 14 820 14 764 2 c 1,3,4
 650 -20 650 -20 428 -20 c 0,5,6
 343 -20 343 -20 237 -8.5 c 128,-1,7
 131 3 131 3 86 16 c 1,8,9
 66 99 66 99 66 188 c 0,10,11
 66 377 66 377 187 583 c 128,-1,12
 308 789 308 789 644 1175 c 0,13,14
 704 1244 704 1244 764 1325 c 1,15,16
 812 1276 812 1276 812 1208 c 0,17,18
 812 1133 812 1133 754 1061 c 2,19,-1
 506 757 l 1,20,21
 327 540 327 540 243.5 414.5 c 128,-1,22
 160 289 160 289 160 233 c 1,23,24
 199 213 199 213 305 197.5 c 128,-1,25
 411 182 411 182 510 182 c 0,26,27
 707 182 707 182 889 211 c 1,0,1
EndSplineSet
EndChar
StartChar: uni0750.init
Encoding: 65750 -1 574
Width: 1159
GlyphClass: 2
Flags: W
AnchorPoint: "Anchor-1" 504 -850 basechar 0
AnchorPoint: "Anchor-0" 660 1135 basechar 0
LayerCount: 2
Fore
SplineSet
0 -20 m 0,0,1
 -20 -20 -20 -20 -20 0 c 2,2,-1
 -20 143 l 2,3,4
 -20 164 -20 164 0 164 c 2,5,-1
 35 164 l 2,6,7
 298 164 298 164 555 187 c 128,-1,8
 812 210 812 210 897 252 c 1,9,10
 868 359 868 359 810 516 c 0,11,12
 764 640 764 640 764 678 c 0,13,14
 764 733 764 733 808 788 c 128,-1,15
 852 843 852 843 922 881 c 1,16,17
 932 811 932 811 947.5 741.5 c 128,-1,18
 963 672 963 672 977.5 605 c 128,-1,19
 992 538 992 538 1002 475.5 c 128,-1,20
 1012 413 1012 413 1012 358 c 0,21,22
 1012 281 1012 281 928 113 c 1,23,24
 867 76 867 76 728 46 c 128,-1,25
 589 16 589 16 379.5 -2 c 128,-1,26
 170 -20 170 -20 0 -20 c 0,0,1
673 -358 m 1,27,28
 618 -439 618 -439 530 -522 c 1,29,30
 431 -446 431 -446 370 -375 c 1,31,32
 435 -316 435 -316 526 -213 c 1,33,34
 547 -236 547 -236 673 -358 c 1,27,28
1036 -324 m 1,35,36
 982 -402 982 -402 893 -487 c 1,37,38
 794 -411 794 -411 733 -340 c 1,39,40
 780 -297 780 -297 889 -178 c 1,41,42
 929 -222 929 -222 965 -256 c 128,-1,43
 1001 -290 1001 -290 1036 -324 c 1,35,36
319 -387 m 1,44,45
 264 -468 264 -468 176 -551 c 1,46,47
 75 -474 75 -474 16 -403 c 1,48,49
 69 -355 69 -355 172 -242 c 1,50,51
 193 -265 193 -265 319 -387 c 1,44,45
EndSplineSet
Colour: ffff00
EndChar
StartChar: uni0750.medi
Encoding: 65751 -1 575
Width: 1176
GlyphClass: 2
Flags: W
AnchorPoint: "Anchor-1" 537 -600 basechar 0
AnchorPoint: "Anchor-0" 710 800 basechar 0
LayerCount: 2
Fore
SplineSet
848 528 m 0,0,1
 883 528 883 528 907 510 c 1,2,3
 861 399 861 399 791 254 c 1,4,5
 867 201 867 201 958.5 182.5 c 128,-1,6
 1050 164 1050 164 1196 164 c 0,7,8
 1217 164 1217 164 1217 143 c 2,9,-1
 1217 0 l 2,10,11
 1217 -20 1217 -20 1196 -20 c 0,12,13
 1023 -20 1023 -20 908.5 14.5 c 128,-1,14
 794 49 794 49 713 121 c 1,15,-1
 674 68 l 1,16,17
 663 55 663 55 541.5 33 c 128,-1,18
 420 11 420 11 264 -4.5 c 128,-1,19
 108 -20 108 -20 0 -20 c 0,20,21
 -20 -20 -20 -20 -20 0 c 2,22,-1
 -20 143 l 2,23,24
 -20 164 -20 164 0 164 c 0,25,26
 221 164 221 164 396 179.5 c 128,-1,27
 571 195 571 195 604 219 c 1,28,29
 630 236 630 236 660.5 283.5 c 128,-1,30
 691 331 691 331 732 411 c 1,31,-1
 774 489 l 2,32,33
 796 528 796 528 848 528 c 0,0,1
722 -358 m 1,34,35
 667 -439 667 -439 579 -522 c 1,36,37
 480 -446 480 -446 419 -375 c 1,38,39
 484 -316 484 -316 575 -213 c 1,40,41
 596 -236 596 -236 722 -358 c 1,34,35
1085 -324 m 1,42,43
 1031 -402 1031 -402 942 -487 c 1,44,45
 843 -411 843 -411 782 -340 c 1,46,47
 829 -297 829 -297 938 -178 c 1,48,49
 978 -222 978 -222 1014 -256 c 128,-1,50
 1050 -290 1050 -290 1085 -324 c 1,42,43
368 -387 m 1,51,52
 313 -468 313 -468 225 -551 c 1,53,54
 124 -474 124 -474 65 -403 c 1,55,56
 118 -355 118 -355 221 -242 c 1,57,58
 242 -265 242 -265 368 -387 c 1,51,52
EndSplineSet
EndChar
StartChar: uni076A.fina
Encoding: 65821 -1 671
Width: 1425
GlyphClass: 2
Flags: W
AnchorPoint: "Anchor-1" 630 -840 basechar 0
AnchorPoint: "Anchor-0" 460 1400 basechar 0
LayerCount: 2
Fore
SplineSet
705 995 m 1,0,-1
 1012 995 l 1,1,2
 966 1309 966 1309 966 1405 c 0,3,4
 966 1485 966 1485 1002.5 1532 c 128,-1,5
 1039 1579 1039 1579 1124 1597 c 1,6,7
 1130 1574 1130 1574 1135.5 1554 c 128,-1,8
 1141 1534 1141 1534 1210 1311 c 1,9,-1
 1153 1262 l 1,10,-1
 1184 995 l 1,11,-1
 1384 995 l 1,12,-1
 1384 879 l 1,13,-1
 1196 879 l 1,14,-1
 1270 205 l 1,15,16
 1345 164 1345 164 1446 164 c 0,17,18
 1466 164 1466 164 1466 143 c 2,19,-1
 1466 0 l 2,20,21
 1466 -20 1466 -20 1446 -20 c 0,22,23
 1360 -20 1360 -20 1286 16 c 1,24,-1
 1290 -106 l 1,25,26
 1290 -251 1290 -251 1197.5 -386 c 128,-1,27
 1105 -521 1105 -521 941 -608.5 c 128,-1,28
 777 -696 777 -696 600 -696 c 0,29,30
 394 -696 394 -696 279 -577.5 c 128,-1,31
 164 -459 164 -459 164 -244 c 0,32,33
 164 -169 164 -169 172.5 -112.5 c 128,-1,34
 181 -56 181 -56 211 68 c 1,35,-1
 299 47 l 1,36,37
 272 -56 272 -56 272 -125 c 0,38,39
 272 -303 272 -303 360.5 -400.5 c 128,-1,40
 449 -498 449 -498 606 -498 c 0,41,42
 721 -498 721 -498 843.5 -459 c 128,-1,43
 966 -420 966 -420 1063 -350 c 128,-1,44
 1160 -280 1160 -280 1200 -197 c 1,45,46
 1155 108 1155 108 1087 512 c 0,47,48
 1048 740 1048 740 1028 879 c 1,49,-1
 705 879 l 1,50,-1
 705 995 l 1,0,-1
EndSplineSet
EndChar
StartChar: uni076A.init
Encoding: 65822 -1 672
Width: 512
GlyphClass: 2
Flags: W
AnchorPoint: "Anchor-1" 230 -160 basechar 0
AnchorPoint: "Anchor-0" 230 1680 basechar 0
LayerCount: 2
Fore
SplineSet
0 1110 m 1,0,-1
 184 1110 l 1,1,-1
 145 1462 l 1,2,3
 216 1537 216 1537 307 1597 c 1,4,-1
 319 1345 l 1,5,-1
 332 1110 l 1,6,-1
 575 1110 l 1,7,-1
 575 993 l 1,8,-1
 340 993 l 1,9,-1
 351 818 l 2,10,11
 368 540 368 540 371 305 c 1,12,13
 371 221 371 221 287 63 c 1,14,15
 241 -20 241 -20 0 -20 c 0,16,17
 -20 -20 -20 -20 -20 0 c 2,18,-1
 -20 143 l 2,19,20
 -20 164 -20 164 0 164 c 0,21,22
 149 164 149 164 266 227 c 1,23,24
 232 647 232 647 197 993 c 1,25,-1
 0 993 l 1,26,-1
 0 1110 l 1,0,-1
EndSplineSet
EndChar
StartChar: uni076A.medi
Encoding: 65823 -1 673
Width: 590
GlyphClass: 2
Flags: W
AnchorPoint: "Anchor-1" 300 -160 basechar 0
AnchorPoint: "Anchor-0" 230 1680 basechar 0
LayerCount: 2
Fore
SplineSet
-2 1110 m 1,0,-1
 188 1110 l 1,1,-1
 164 1462 l 1,2,3
 235 1537 235 1537 326 1597 c 1,4,5
 334 1431 334 1431 342 1110 c 1,6,-1
 575 1110 l 1,7,-1
 575 993 l 1,8,-1
 344 993 l 1,9,10
 354 353 354 353 358 225 c 1,11,12
 469 164 469 164 610 164 c 0,13,14
 631 164 631 164 631 143 c 2,15,-1
 631 0 l 2,16,17
 631 -20 631 -20 610 -20 c 0,18,19
 424 -20 424 -20 334 66 c 1,20,21
 244 16 244 16 175 -2 c 128,-1,22
 106 -20 106 -20 0 -20 c 0,23,24
 -20 -20 -20 -20 -20 0 c 2,25,-1
 -20 143 l 2,26,27
 -20 164 -20 164 0 164 c 0,28,29
 135 164 135 164 262 225 c 1,30,31
 235 448 235 448 197 993 c 1,32,-1
 -2 993 l 1,33,-1
 -2 1110 l 1,0,-1
EndSplineSet
EndChar
StartChar: uni076A0627.fina
Encoding: 65864 -1 732
Width: 1470
GlyphClass: 3
Flags: W
AnchorPoint: "Anchor-3" 1100 -160 baselig 0
AnchorPoint: "Anchor-2" 1100 1740 baselig 0
AnchorPoint: "Anchor-3" 400 -160 baselig 1
AnchorPoint: "Anchor-2" 160 1500 baselig 1
LayerCount: 2
Fore
SplineSet
793 1157 m 1,0,-1
 1028 1157 l 1,1,2
 1036 1255 1036 1255 1044 1462 c 1,3,4
 1115 1537 1115 1537 1206 1597 c 1,5,6
 1218 1327 1218 1327 1221 1157 c 1,7,-1
 1337 1157 l 1,8,-1
 1337 1040 l 1,9,-1
 1223 1040 l 1,10,-1
 1230 641 l 1,11,-1
 1239 225 l 1,12,13
 1350 164 1350 164 1491 164 c 0,14,15
 1511 164 1511 164 1511 143 c 2,16,-1
 1511 0 l 2,17,18
 1511 -20 1511 -20 1491 -20 c 0,19,20
 1349 -20 1349 -20 1255 36.5 c 128,-1,21
 1161 93 1161 93 1149 190 c 0,22,23
 1125 378 1125 378 1111.5 556 c 128,-1,24
 1098 734 1098 734 1085 950 c 1,25,26
 1042 586 1042 586 999 430 c 1,27,28
 886 42 886 42 625 10 c 1,29,30
 461 -8 461 -8 354.5 -13 c 128,-1,31
 248 -18 248 -18 135 -20 c 1,32,-1
 127 63 l 1,33,34
 386 126 386 126 511.5 173.5 c 128,-1,35
 637 221 637 221 715 283 c 1,36,37
 534 681 534 681 276 926 c 1,38,-1
 188 926 l 1,39,40
 144 972 144 972 119 1011 c 128,-1,41
 94 1050 94 1050 88.5 1079.5 c 128,-1,42
 83 1109 83 1109 83 1132 c 0,43,44
 83 1227 83 1227 174 1266 c 1,45,46
 318 1174 318 1174 460.5 980.5 c 128,-1,47
 603 787 603 787 684 588 c 1,48,49
 725 482 725 482 774 336 c 1,50,51
 811 371 811 371 849 431 c 128,-1,52
 887 491 887 491 918.5 577 c 128,-1,53
 950 663 950 663 973.5 772.5 c 128,-1,54
 997 882 997 882 1016 1040 c 1,55,-1
 793 1040 l 1,56,-1
 793 1157 l 1,0,-1
EndSplineSet
Ligature2: "'rlig' Required Ligatures in Arabic lookup 6 subtable" uni076A.medi uni0627.fina
EndChar
StartChar: wasla
Encoding: 65549 -1 113
Width: 0
GlyphClass: 4
Flags: W
AnchorPoint: "Anchor-4" 80 1680 basemark 0
AnchorPoint: "Anchor-4" 80 1260 mark 0
AnchorPoint: "Anchor-2" 80 1260 mark 0
AnchorPoint: "Anchor-0" 80 1260 mark 0
LayerCount: 2
Fore
SplineSet
152 1260 m 0,0,1
 99 1260 99 1260 49.5 1276.5 c 128,-1,2
 0 1293 0 1293 -63 1325 c 1,3,4
 -115 1301 -115 1301 -156 1260 c 1,5,-1
 -193 1290 l 1,6,7
 -149 1358 -149 1358 -112.5 1392.5 c 128,-1,8
 -76 1427 -76 1427 -33 1427 c 0,9,10
 -23 1427 -23 1427 14 1411 c 1,11,12
 62 1483 62 1483 113 1524 c 128,-1,13
 164 1565 164 1565 227 1565 c 0,14,15
 275 1565 275 1565 309.5 1518.5 c 128,-1,16
 344 1472 344 1472 344 1405 c 0,17,18
 344 1368 344 1368 322 1313 c 1,19,20
 267 1277 267 1277 234.5 1268.5 c 128,-1,21
 202 1260 202 1260 152 1260 c 0,0,1
207 1462 m 0,22,23
 143 1462 143 1462 66 1391 c 1,24,25
 108 1370 108 1370 152 1370 c 0,26,27
 213 1370 213 1370 234.5 1374.5 c 128,-1,28
 256 1379 256 1379 299 1397 c 1,29,30
 265 1462 265 1462 207 1462 c 0,22,23
EndSplineSet
EndChar
StartChar: wavyhamza_above
Encoding: 65843 -1 696
Width: 0
GlyphClass: 2
Flags: W
LayerCount: 2
Fore
SplineSet
51 1278 m 0,0,1
 78 1278 78 1278 100 1286 c 1,2,3
 43 1314 43 1314 15.5 1348 c 128,-1,4
 -12 1382 -12 1382 -12 1430 c 0,5,6
 -12 1483 -12 1483 22 1536.5 c 128,-1,7
 56 1590 56 1590 110 1626.5 c 128,-1,8
 164 1663 164 1663 205 1663 c 0,9,10
 254 1663 254 1663 282.5 1635 c 128,-1,11
 311 1607 311 1607 311 1556 c 0,12,13
 311 1541 311 1541 306 1515.5 c 128,-1,14
 301 1490 301 1490 295 1475 c 1,15,-1
 242 1489 l 1,16,-1
 243 1498 l 1,17,18
 243 1515 243 1515 231.5 1526.5 c 128,-1,19
 220 1538 220 1538 207 1538 c 0,20,21
 174 1538 174 1538 134.5 1506.5 c 128,-1,22
 95 1475 95 1475 72 1432 c 1,23,24
 101 1401 101 1401 151 1377.5 c 128,-1,25
 201 1354 201 1354 240 1354 c 0,26,27
 295 1354 295 1354 360 1384 c 1,28,-1
 354 1272 l 1,29,30
 269 1221 269 1221 180 1189 c 128,-1,31
 91 1157 91 1157 49 1157 c 0,32,33
 17 1157 17 1157 -25 1182 c 1,34,35
 -67 1204 -67 1204 -90 1204 c 0,36,37
 -134 1204 -134 1204 -188 1143 c 1,38,-1
 -231 1176 l 1,39,40
 -205 1222 -205 1222 -160 1262.5 c 128,-1,41
 -115 1303 -115 1303 -82 1303 c 0,42,43
 -75 1303 -75 1303 -31 1292 c 1,44,-1
 -20 1290 l 1,45,46
 21 1278 21 1278 51 1278 c 0,0,1
EndSplineSet
EndChar
